<svg width="308" height="271" viewBox="0 0 308 271" fill="none" xmlns="http://www.w3.org/2000/svg">
<path d="M268.237 152.325L266.636 152.542L271.808 161.68L270.207 161.896L264.592 151.975L261.39 152.409L262.868 155.019L259.666 155.453L258.483 153.364L253.681 154.014L253.09 152.97L248.287 153.62L246.366 150.226L239.962 151.093L245.429 160.753L242.228 161.186L238.829 155.181L234.026 155.831L232.991 154.004L226.44 154.61L227.327 156.176L222.376 156.565L223.558 158.654L221.957 158.871L219.445 154.432L217.844 154.649L223.312 164.309L220.11 164.742L216.563 158.476L210.159 159.343L211.489 161.693L205.086 162.56L205.824 163.865L201.022 164.515L195.997 155.638L192.648 155.811L195.308 160.51L190.505 161.16L185.185 151.761L178.781 152.628L186.022 165.421L181.219 166.071L179.15 162.416L172.599 163.022L173.042 163.805L168.239 164.455L168.091 164.194L164.742 164.367L164.89 164.628L160.087 165.278L158.338 165.233L158.929 166.278L155.727 166.711L158.387 171.411L151.983 172.277L146.959 163.401L140.555 164.268L141.59 166.095L135.038 166.701L144.643 183.671L141.294 183.843L142.771 186.454L136.368 187.321L127.206 171.134L124.004 171.567L120.753 165.824L117.551 166.257L119.324 169.39L112.92 170.257L113.659 171.562L110.457 171.996L110.014 171.212L105.211 171.863L105.802 172.907L99.2506 173.513L99.5461 174.035L97.9452 174.251L93.512 166.419L90.3101 166.852L90.1623 166.591L83.7585 167.458L89.8172 178.163L84.8666 178.552L83.5366 176.202L81.9357 176.419L81.0491 174.852L74.6453 175.719L74.4975 175.458L71.2956 175.891L71.5911 176.413L65.0396 177.019L66.6651 179.891L65.0641 180.108L64.9163 179.847L60.1135 180.497L58.3402 177.364L56.7393 177.58L53.636 172.098L50.4341 172.531L49.3997 170.704L46.1978 171.137L47.8233 174.009L46.0746 173.965L51.3944 183.363L48.1925 183.797L44.7938 177.792L39.9909 178.442L40.7298 179.748L39.7988 179.93L35.7792 180.137L35.6314 179.876C34.193 179.77 32.8301 179.393 31.5428 178.742L37.0105 188.402C35.7231 187.752 34.7954 187.128 34.2273 186.53L29.7941 178.698C28.5823 177.775 27.4346 176.357 26.351 174.442L6.99264 140.24C6.40154 139.196 6.12079 138.091 6.15037 136.925L10.5836 144.758C10.5606 144.311 10.7002 143.543 11.0023 142.452L5.53472 132.792C6.18498 131.505 6.85822 130.664 7.55443 130.27L8.59875 129.679C9.29497 129.285 10.1767 129.016 11.244 128.871L11.914 128.837L11.0273 127.27L15.8302 126.62L19.229 132.625L22.5786 132.453L17.2588 123.054L18.8597 122.837L17.382 120.226L20.5839 119.793L21.4705 121.359L24.6724 120.926L27.9235 126.67L29.5244 126.453L31.1499 129.325L35.9528 128.675L36.1005 128.936L37.7015 128.719L36.2237 126.108L42.6275 125.242L42.332 124.719L45.5339 124.286L45.6817 124.547L52.0855 123.68L52.9721 125.247L54.5731 125.03L56.0508 127.641L60.8536 126.991L54.7949 116.286L61.1987 115.42L61.3465 115.681L64.5484 115.247L68.9816 123.08L70.5826 122.863L70.287 122.341L76.8386 121.735L76.2475 120.691L81.0503 120.041L81.4936 120.824L84.6955 120.39L83.8089 118.824L90.3605 118.218L88.5872 115.085L91.7891 114.652L95.0401 120.396L98.242 119.962L107.256 135.888L113.66 135.021L112.33 132.672L115.532 132.238L106.074 115.529L112.478 114.662L111.444 112.835L117.995 112.229L122.872 120.845L129.276 119.978L126.616 115.278L129.818 114.845L129.374 114.062L138.98 112.761L139.128 113.022L143.931 112.372L143.487 111.589L150.039 110.983L152.108 114.639L156.911 113.988L149.67 101.195L156.074 100.329L161.246 109.466L166.196 109.077L163.536 104.378L166.738 103.945L171.91 113.082L176.713 112.432L175.826 110.866L182.378 110.26L180.9 107.649L187.452 107.043L190.998 113.309L194.2 112.876L188.733 103.216L190.334 102.999L192.698 107.177L194.299 106.96L193.265 105.132L198.067 104.482L197.329 103.177L203.732 102.31L204.767 104.138L209.57 103.487L212.968 109.492L216.318 109.32L210.703 99.3989L217.106 98.5321L219.028 101.926L223.83 101.276L224.421 102.32L229.224 101.67L230.406 103.759L233.608 103.325L232.131 100.715L235.333 100.281L240.948 110.202L242.549 109.986L237.377 100.848L238.978 100.631L232.771 89.6656L235.973 89.2322L240.111 96.5425L246.662 95.9368L250.652 102.986L252.253 102.769L248.707 96.5033L255.11 95.6365L251.564 89.3705L253.165 89.1538L257.894 97.5084L261.096 97.075L258.879 93.1588L262.081 92.7254L259.569 88.287L264.372 87.6369L268.066 94.1639L270.337 93.9127C271.056 93.9653 271.726 93.9308 272.347 93.8093C273.24 93.7634 274.095 93.8537 274.913 94.0803L272.696 90.1641C274.407 90.3448 276.141 90.972 277.898 92.046C279.655 93.1199 281.174 94.7882 282.455 97.0509L302.256 132.036C303.931 134.995 303.535 137.747 301.069 140.292L303.138 143.947C302.888 144.318 302.502 144.651 301.98 144.947C301.284 145.341 300.402 145.61 299.335 145.754L297.325 145.858L293.778 139.592L288.828 139.981L291.488 144.68L288.138 144.853L290.355 148.769L287.153 149.202L282.424 140.848L280.823 141.064L284.37 147.33L277.966 148.197L281.512 154.463L279.911 154.68L275.922 147.631L269.37 148.236L265.232 140.926L262.03 141.36L268.237 152.325Z" fill="#F5F2EE"/>
</svg>
