<?xml version="1.0" encoding="UTF-8"?><svg id="Layer_1" xmlns="http://www.w3.org/2000/svg" width="1550" height="600" viewBox="0 0 1550 600"><defs><style>.cls-1{fill:#f5f2ee;}.cls-2{fill:#ede6e0;}.cls-3{fill:#8c6464;}.cls-4{fill:#735a3d;}.cls-5{fill:#bf9969;}.cls-6{fill:#bca37d;}.cls-7{fill:#d9c3b0;}.cls-8{fill:#d9d4c7;}.cls-9{fill:#453732;}.cls-10{opacity:.7;}</style></defs><g class="cls-10"><path class="cls-9" d="M1484.28,320.37v56.83l11.84,1.77v-8.88l2.96,.59v-39.67l5.92,.58v36.71l5.92,.59v.59l8.88,1.18v14.8l8.88,1.18h2.96v6.51h2.96v36.71s2.97,.59,2.97,.59v20.13l5.92,.58v-30.19l2.96,.59v1.18l2.96,.59v-17.76h1.78c.39,0,.59,.19,.59,.58h.59v-15.39c1.97,0,3.94,.59,5.91,1.78v-1.18c5.14,1.97,9.08,5.13,11.85,9.46v.59c1.18,1.98,2.17,3.94,2.96,5.92v1.78c.39,1.18,.78,2.37,1.18,3.55v98.87c0,1.18-.38,2.96-1.18,5.33v-1.18c-.39,1.18-1.38,2.57-2.96,4.14v-1.18c-2.37,2.37-5.33,3.55-8.88,3.56h-2.96v1.18c-.39,0-.78-.2-1.18-.59l-4.74-1.78v15.39l-2.96-1.18v11.25s2.97,0,2.97,0v5.33c1.97,0,3.94,.59,5.92,1.78,5.13,1.97,9.07,4.93,11.84,8.87,1.18,1.98,2.17,3.94,2.96,5.92v-9.47c.39,1.18,.78,2.37,1.18,3.55v98.87c0,1.97-.38,3.74-1.18,5.33v10.06c-.39,1.18-1.38,2.57-2.96,4.14-2.37,2.37-5.33,3.55-8.88,3.56h-2.96c-.39,0-.78-.2-1.18-.59l-4.74-1.78v-4.74l-2.96-1.18v45.59s-2.95-1.18-2.95-1.18v-21.9l-2.96-1.18v29.01l-5.92-2.36v-26.64l-2.96-1.18v3.55l-2.96-.59v-27.23s-2.97-1.18-2.97-1.18v3.55l-8.88-2.95v-8.88l-8.88-3.54v-2.96l-5.92-1.78v-26.64l-5.92-1.77v55.65l-2.96-1.18v-3.55l-11.84-4.73v-23.68l-11.84-4.73v-23.09l-11.84-4.74v7.7l-5.92-2.36v20.72l-5.92-2.37v4.14l-8.88-3.54v-11.25l-8.88-3.54v8.29l-14.8-5.91v8.29l-2.37-1.18c-1.58-.79-3.16-1.38-4.74-1.78-1.58-.78-3.16-1.97-4.74-3.54v-6.51c-2.77-1.98-4.94-4.54-6.52-7.7-1.97-3.55-2.96-7.7-2.96-12.43v-59.79c0-6.7,3.15-11.05,9.46-13.02v7.1c.79-.4,2.37-.59,4.74-.6l7.1,1.18v-8.29l8.88,1.77v-.59l5.92,1.18v-7.7l8.88,1.18v11.25l8.88,1.18v-4.14l5.92,1.18v-21.31l5.92,1.18v-7.1l11.84,1.78v23.09l11.84,1.77v23.68s11.85,1.77,11.85,1.77v3.55l2.96,.59v-56.24s5.91,1.18,5.91,1.18v26.05l5.92,1.18v2.37l8.88,1.18v8.88s8.89,1.18,8.89,1.18v-3.55l2.96,.59v26.64l2.96,.59v-4.14l2.96,.59v-13.02l-2.96-1.18v-36.11s-2.97-1.18-2.97-1.18v-5.92l-11.84-4.73v-14.21l-8.88-3.54v-.59l-5.92-2.37v-36.11s-5.93-2.36-5.93-2.36v39.67s-2.95-1.18-2.95-1.18v8.88l-11.84-4.73v-56.83s-11.85-4.14-11.85-4.14v43.81s-11.83-4.74-11.83-4.74v7.7l-5.92-2.36v5.33l-5.92-1.78v1.78l-8.88-3.54v-11.84s-8.89-3.54-8.89-3.54v13.02s-5.91-2.37-5.91-2.37v-6.51s-8.89-3.54-8.89-3.54l-2.37-.59c-1.58-.79-3.15-1.58-4.74-2.37-1.58-.78-3.15-1.97-4.74-3.54v4.14c-2.76-1.98-4.93-4.54-6.51-7.7-1.97-3.55-2.96-7.7-2.96-12.43v-59.79c0-2.76,.78-5.33,2.36-7.7,1.58-2.76,3.94-4.34,7.1-4.74v-4.14c1.18-.79,2.76-.79,4.74,0l7.1,.59,8.88,1.77v5.92l5.92,1.18v-12.43l8.88,1.18v11.84l8.88,1.18v-1.78l5.92,.59v-5.33l5.92,.58v-7.7l11.84,1.78v-43.81s11.84,1.77,11.84,1.77Zm53.31,276.44l5.92,1.18v-18.35l-5.92-2.36v19.54Zm8.88-46.19l-2.96-1.18v19.54l2.96,.59v21.9h2.96v-38.48l-2.96-1.18v-1.18Z"/><path class="cls-9" d="M1448.58,138.33v56.83s11.85,1.77,11.85,1.77v-8.88l2.96,.59v-39.67s5.91,.59,5.91,.59v36.71s5.93,.59,5.93,.59v.59l8.88,1.18v14.8l8.88,1.18h2.96s0,6.51,0,6.51h2.96s0,36.71,0,36.71l2.96,.58v20.13s5.93,.59,5.93,.59v-30.19s2.95,.59,2.95,.59v1.18l2.96,.58v-17.76h1.78c.39,0,.59,.2,.59,.59h.59v-15.39c1.98,0,3.94,.59,5.92,1.77v-1.18c5.13,1.97,9.08,5.12,11.84,9.46v.59c1.18,1.97,2.17,3.94,2.96,5.92v1.78c.39,1.18,.79,2.37,1.18,3.55v98.87c.02,1.18-.38,2.96-1.17,5.33v-1.18c-.4,1.18-1.38,2.56-2.96,4.14v-1.18c-2.37,2.37-5.33,3.55-8.88,3.56h-2.96v1.18c-.4,0-.79-.2-1.18-.59l-4.74-1.78v15.39l-2.96-1.18v11.25h2.96v5.33c1.98,0,3.94,.59,5.92,1.78,5.13,1.97,9.08,4.93,11.84,8.87,1.18,1.97,2.18,3.94,2.96,5.92v-9.47c.39,1.18,.79,2.37,1.18,3.55v4.14l.02,94.72c0,1.97-.4,3.74-1.18,5.33v10.06c-.4,1.18-1.38,2.56-2.96,4.14-2.37,2.37-5.33,3.55-8.88,3.56h-2.96c-.4,0-.79-.2-1.18-.59l-4.74-1.78v-4.74l-2.96-1.18v45.59l-2.96-1.18v-21.9l-2.96-1.18v29.01l-5.92-2.37v-26.64l-2.96-1.18v3.55l-2.96-.59v-27.23l-2.96-1.18v3.55l-8.88-2.95v-8.88l-8.89-3.55v-2.96l-5.92-1.77v-26.64l-5.92-1.78v55.65s-2.95-1.18-2.95-1.18v-3.55l-11.84-4.74v-23.68s-11.85-4.73-11.85-4.73v-23.09l-11.84-4.73v7.7l-5.92-2.36v20.72l-5.92-2.37v4.14l-8.88-3.54v-11.25l-8.88-3.55v8.29l-14.8-5.9v8.29l-2.37-1.18c-1.58-.79-3.16-1.38-4.74-1.78-1.58-.78-3.16-1.97-4.74-3.54v-6.51c-2.76-1.98-4.94-4.54-6.51-7.7-1.98-3.55-2.96-7.7-2.96-12.43v-59.79c0-6.7,3.14-11.05,9.46-13.02v7.1c.78-.4,2.37-.6,4.74-.6l7.1,1.18v-8.29l8.88,1.77v-.59l5.92,1.18v-7.7l8.88,1.18v11.25l8.88,1.18v-4.14l5.92,1.18v-21.31l5.92,1.18v-7.1s11.83,1.77,11.83,1.77v23.09s11.85,1.77,11.85,1.77v23.68l11.84,1.78v3.55l2.96,.58v-56.24s5.91,1.18,5.91,1.18v26.05s5.93,1.18,5.93,1.18v2.37l8.88,1.18v8.88l8.88,1.18v-3.55l2.96,.59v26.64l2.96,.59v-4.14l2.96,.58v-13.02l-2.96-1.18v-36.11l-2.96-1.18v-5.92l-11.85-4.73v-14.21l-8.88-3.55v-.59l-5.92-2.36v-36.11l-5.92-2.37v39.67l-2.96-1.18v8.88l-11.84-4.74v-56.83s-11.85-4.14-11.85-4.14v43.81s-11.83-4.73-11.83-4.73v7.7l-5.92-2.36v5.33l-5.92-1.78v1.78l-8.88-3.54v-11.84l-8.88-3.55v13.02l-5.92-2.36v-6.51l-8.88-3.54-2.37-.59c-1.58-.79-3.16-1.58-4.74-2.37-1.58-.78-3.16-1.97-4.74-3.54v4.14c-2.77-1.98-4.94-4.54-6.51-7.7-1.98-3.55-2.96-7.7-2.96-12.43v-59.79c0-2.76,.77-5.33,2.36-7.7,1.58-2.76,3.94-4.34,7.1-4.74v-4.14c1.18-.79,2.76-.79,4.73,0l7.1,.59,8.89,1.77v5.92l5.92,1.18v-12.43s8.87,1.18,8.87,1.18v11.84s8.89,1.18,8.89,1.18v-1.78l5.92,.59v-5.33l5.92,.59v-7.7s11.83,1.77,11.83,1.77v-43.81l11.84,1.77Zm53.32,276.44l5.92,1.18v-18.35s-5.93-2.37-5.93-2.37v19.54Zm8.88-46.18l-2.96-1.18v19.54l2.96,.59v21.9s2.97,0,2.97,0v-38.48s-2.97-1.18-2.97-1.18v-1.18Z"/><path class="cls-4" d="M1352.82,198.32v56.84l11.84,1.77v-8.88l2.96,.59v-39.67l5.92,.59v36.7l5.92,.59v.59l8.88,1.18v14.8s8.89,1.18,8.89,1.18h2.96v6.51h2.96v36.71l2.96,.59v20.13l5.92,.58v-30.19l2.96,.59v1.18l2.96,.59v-17.76h1.78c.39,0,.59,.19,.59,.59,0,0,.2,0,.59,0v-15.39c1.97,0,3.94,.59,5.92,1.78v-1.18c5.13,1.97,9.07,5.13,11.84,9.46v.59c1.18,1.98,2.17,3.94,2.96,5.92v1.78c.39,1.18,.79,2.37,1.18,3.55v98.87c0,1.18-.38,2.96-1.18,5.33v-1.18c-.39,1.18-1.38,2.57-2.96,4.14v-1.18c-2.37,2.37-5.33,3.56-8.88,3.56h-2.96v1.18c-.39,0-.78-.2-1.18-.59l-4.74-1.78v15.39s-2.95-1.18-2.95-1.18v11.25h2.96s0,5.32,0,5.32c1.97,0,3.94,.59,5.92,1.78,5.13,1.97,9.08,4.93,11.84,8.87,1.18,1.98,2.17,3.94,2.96,5.92v-9.47c.39,1.18,.79,2.37,1.18,3.55v98.87c0,1.97-.38,3.74-1.18,5.33v10.06c-.39,1.18-1.38,2.57-2.95,4.14-2.37,2.37-5.33,3.56-8.88,3.56h-2.96c-.4,0-.79-.2-1.18-.59l-4.74-1.78v-4.74l-2.97-1.18v45.59s-2.95-1.18-2.95-1.18v-21.9l-2.96-1.18v29.01l-5.92-2.36v-26.64l-2.96-1.18v3.55l-2.96-.59v-27.23s-2.97-1.18-2.97-1.18v3.55l-8.88-2.95v-8.88l-8.88-3.54v-2.96l-5.92-1.78v-26.64l-5.92-1.77v55.65s-2.95-1.18-2.95-1.18v-3.55l-11.85-4.73v-23.68l-11.84-4.73v-23.09l-11.84-4.74v7.7l-5.92-2.36v20.72l-5.92-2.37v4.14l-8.88-3.54v-11.25l-8.88-3.54v8.29l-14.8-5.91v8.29l-2.37-1.18c-1.58-.79-3.16-1.38-4.74-1.78-1.58-.78-3.16-1.97-4.74-3.54v-6.51c-2.77-1.98-4.94-4.54-6.51-7.7-1.98-3.55-2.96-7.7-2.96-12.43v-59.79c0-6.7,3.14-11.05,9.46-13.02v7.1c.78-.4,2.37-.59,4.74-.6l7.1,1.18v-8.29l8.88,1.77v-.59l5.92,1.18v-7.7s8.87,1.18,8.87,1.18v11.25s8.89,1.18,8.89,1.18v-4.14l5.92,1.18v-21.31s5.91,1.18,5.91,1.18v-7.1l11.84,1.78v23.09s11.85,1.77,11.85,1.77v23.68l11.84,1.77v3.55l2.96,.59v-56.24s5.91,1.18,5.91,1.18v26.05s5.93,1.18,5.93,1.18v2.37l8.88,1.18v8.88l8.88,1.18v-3.55l2.96,.59v26.64l2.96,.59v-4.14l2.96,.59v-13.02l-2.96-1.18v-36.11s-2.97-1.18-2.97-1.18v-5.92l-11.84-4.73v-14.21l-8.88-3.54v-.59l-5.92-2.37v-36.11s-5.93-2.36-5.93-2.36v39.67s-2.95-1.18-2.95-1.18v8.88l-11.84-4.73v-56.83s-11.85-4.14-11.85-4.14v43.81s-11.83-4.74-11.83-4.74v7.7l-5.92-2.36v5.33l-5.92-1.78v1.78l-8.88-3.54v-11.84l-8.88-3.54v13.02l-5.92-2.37v-6.51l-8.88-3.54-2.37-.59c-1.58-.79-3.16-1.58-4.74-2.37-1.58-.78-3.16-1.97-4.74-3.54v4.14c-2.77-1.98-4.94-4.54-6.52-7.7-1.97-3.55-2.96-7.7-2.96-12.43v-59.79c0-2.76,.78-5.33,2.36-7.7,1.58-2.76,3.95-4.34,7.1-4.74v-4.14c1.18-.79,2.77-.79,4.74,0l7.1,.59,8.88,1.77v5.92l5.92,1.18v-12.43l8.88,1.18v11.84l8.88,1.18v-1.78l5.92,.59v-5.33l5.92,.58v-7.7l11.84,1.78v-43.81l11.84,1.77Zm53.31,276.44l5.92,1.18v-18.35l-5.92-2.36v19.54Zm8.88-46.19l-2.96-1.18v19.54l2.96,.59v21.9h2.96v-38.48l-2.96-1.18v-1.18Z"/><path class="cls-4" d="M1257.94,264.52v56.83l11.84,1.77v-8.88l2.96,.58v-39.67l5.92,.59v36.71l5.92,.59v.59l8.88,1.18v14.8s8.89,1.18,8.89,1.18h2.96v6.51h2.96v36.71l2.96,.59v20.13l5.92,.58v-30.19l2.96,.59v1.18l2.96,.59v-17.76h1.78c.39,0,.59,.19,.59,.58h.59v-15.39c1.97,0,3.94,.59,5.92,1.78v-1.18c5.13,1.97,9.07,5.13,11.84,9.46v.59c1.18,1.98,2.17,3.94,2.96,5.92v1.78c.39,1.18,.79,2.37,1.18,3.55v98.87c0,1.18-.38,2.96-1.18,5.33v-1.18c-.39,1.18-1.38,2.57-2.96,4.14v-1.18c-2.37,2.37-5.33,3.55-8.88,3.56h-2.96v1.18c-.39,0-.78-.2-1.18-.59l-4.74-1.78v15.39s-2.95-1.18-2.95-1.18v11.25h2.96s0,5.32,0,5.32c1.97,0,3.94,.59,5.92,1.78,5.13,1.97,9.08,4.93,11.84,8.87,1.18,1.98,2.17,3.94,2.96,5.92v-9.47c.39,1.18,.79,2.37,1.18,3.55v98.87c0,1.97-.38,3.74-1.18,5.33v10.06c-.39,1.18-1.38,2.57-2.95,4.14-2.37,2.37-5.33,3.55-8.88,3.56h-2.96c-.4,0-.79-.2-1.18-.59l-4.74-1.78v-4.74s-2.97-1.18-2.97-1.18v45.59s-2.95-1.18-2.95-1.18v-21.9l-2.96-1.18v29.01l-5.92-2.36v-26.64l-2.96-1.18v3.55l-2.96-.59v-27.23s-2.97-1.18-2.97-1.18v3.55l-8.88-2.95v-8.88l-8.88-3.54v-2.96l-5.92-1.78v-26.64l-5.92-1.78v55.65s-2.95-1.18-2.95-1.18v-3.55s-11.85-4.73-11.85-4.73v-23.68l-11.84-4.74v-23.09l-11.84-4.73v7.7l-5.92-2.36v20.72l-5.92-2.37v4.14l-8.88-3.54v-11.25l-8.88-3.54v8.29l-14.8-5.91v8.29l-2.37-1.18c-1.58-.79-3.16-1.38-4.74-1.78-1.58-.78-3.16-1.97-4.74-3.54v-6.51c-2.77-1.98-4.94-4.54-6.51-7.7-1.98-3.55-2.96-7.7-2.97-12.43v-59.79c0-6.7,3.15-11.05,9.46-13.02v7.1c.79-.4,2.38-.59,4.74-.6l7.1,1.18v-8.29s8.88,1.77,8.88,1.77v-.59l5.92,1.18v-7.7s8.87,1.18,8.87,1.18v11.25s8.89,1.18,8.89,1.18v-4.14l5.92,1.18v-21.31s5.91,1.18,5.91,1.18v-7.1l11.84,1.77v23.09s11.85,1.78,11.85,1.78v23.68l11.84,1.77v3.55l2.96,.58v-56.24s5.91,1.18,5.91,1.18v26.05s5.93,1.18,5.93,1.18v2.37l8.88,1.18v8.88l8.88,1.18v-3.55l2.96,.59v26.64l2.96,.59v-4.14l2.96,.59v-13.02l-2.96-1.18v-36.11s-2.97-1.18-2.97-1.18v-5.92l-11.84-4.73v-14.21l-8.88-3.54v-.59l-5.92-2.37v-36.11s-5.93-2.37-5.93-2.37v39.67s-2.95-1.18-2.95-1.18v8.88l-11.84-4.73v-56.83s-11.85-4.14-11.85-4.14v43.81s-11.83-4.73-11.83-4.73v7.7l-5.92-2.36v5.33l-5.92-1.78v1.78l-8.88-3.54v-11.84l-8.88-3.54v13.02l-5.92-2.37v-6.51l-8.88-3.54-2.37-.59c-1.58-.79-3.16-1.58-4.74-2.37-1.58-.78-3.16-1.97-4.74-3.54v4.14c-2.76-1.98-4.93-4.54-6.51-7.7-1.97-3.55-2.96-7.7-2.96-12.43v-59.79c0-2.76,.78-5.33,2.36-7.7,1.58-2.76,3.95-4.34,7.1-4.74v-4.14c1.18-.79,2.77-.79,4.74,0l7.1,.59,8.88,1.77v5.92l5.92,1.18v-12.43l8.88,1.18v11.84l8.88,1.18v-1.78l5.92,.59v-5.33l5.92,.58v-7.7l11.84,1.77v-43.81l11.84,1.78Zm53.31,276.44l5.92,1.18v-18.35l-5.92-2.36v19.54Zm8.88-46.19l-2.96-1.18v19.54l2.96,.59v21.9h2.96v-38.48l-2.96-1.18v-1.18Z"/><path class="cls-3" d="M1187.36,396.98v56.83s11.86,1.77,11.86,1.77v-8.88s2.95,.59,2.95,.59v-39.67s5.91,.59,5.91,.59v36.71s5.93,.59,5.93,.59v.59l8.88,1.18v14.8s8.89,1.18,8.89,1.18h2.96v6.51h2.96v36.71s2.97,.59,2.97,.59v20.13s5.93,.59,5.93,.59v-30.19s2.95,.59,2.95,.59v1.18l2.96,.59v-17.76s1.77,0,1.77,0c.4,0,.59,.19,.59,.59h.59v-15.39c1.98,0,3.94,.58,5.92,1.77v-1.18c5.13,1.98,9.08,5.13,11.84,9.47v.59c1.18,1.98,2.18,3.94,2.96,5.92v1.78c.4,1.18,.79,2.37,1.19,3.55v4.14l.03,94.72c0,1.18-.4,2.96-1.18,5.33v-1.18c-.4,1.18-1.38,2.57-2.96,4.14v-1.18c-2.37,2.37-5.33,3.55-8.88,3.55h-2.96v1.18c-.39,0-.79-.19-1.18-.59l-4.74-1.77v15.39l-2.96-1.18v11.25h2.97v5.33c1.98,0,3.94,.58,5.92,1.77,5.13,1.98,9.08,4.94,11.84,8.88,1.18,1.98,2.18,3.94,2.96,5.92v-9.47c.39,1.18,.79,2.37,1.18,3.55v4.14l.03,94.72c0,1.97-.39,3.75-1.18,5.33v10.06c-.39,1.18-1.38,2.57-2.95,4.14-2.37,2.37-5.33,3.55-8.88,3.55h-2.96c-.39,0-.79-.19-1.18-.59l-4.74-1.77v-4.74l-2.96-1.18v45.59s-2.95-1.18-2.95-1.18v-21.9s-2.97-1.18-2.97-1.18v29.01s-5.91-2.37-5.91-2.37v-26.64s-2.97-1.18-2.97-1.18v3.55l-2.96-.59v-27.23l-2.96-1.18v3.55l-8.88-2.95v-8.88s-8.89-3.55-8.89-3.55v-2.96l-5.92-1.78v-26.64s-5.93-1.78-5.93-1.78l.02,55.65-2.96-1.18v-3.55l-11.84-4.73v-23.68s-11.85-4.74-11.85-4.74v-23.09s-11.85-4.73-11.85-4.73v7.7l-5.92-2.37v20.72s-5.91-2.37-5.91-2.37v4.14l-8.88-3.55v-11.25s-8.89-3.54-8.89-3.54v8.29l-14.8-5.92v8.29s-2.37-1.18-2.37-1.18c-1.58-.78-3.15-1.38-4.74-1.78-1.58-.78-3.15-1.97-4.74-3.55v-6.51c-2.76-1.97-4.94-4.54-6.51-7.69-1.98-3.55-2.96-7.7-2.97-12.43v-59.79c-.02-6.71,3.14-11.06,9.45-13.03v7.1c.79-.39,2.37-.59,4.74-.59l7.1,1.18v-8.29l8.88,1.78v-.59l5.92,1.18v-7.7l8.88,1.18v11.25l8.88,1.18v-4.14l5.92,1.18v-21.31l5.92,1.18v-7.1l11.84,1.77v23.09l11.84,1.78v23.68s11.85,1.77,11.85,1.77v3.55l2.96,.59v-56.24s5.91,1.18,5.91,1.18v26.05l5.92,1.18v2.37l8.89,1.18v8.88l8.88,1.18v-3.55l2.96,.59v26.64s2.97,.59,2.97,.59v-4.14s2.95,.59,2.95,.59v-13.02l-2.96-1.18v-36.11s-2.97-1.18-2.97-1.18v-5.92l-11.84-4.73v-14.21s-8.89-3.55-8.89-3.55v-.59l-5.92-2.37v-36.11s-5.93-2.37-5.93-2.37v39.67s-2.95-1.18-2.95-1.18v8.88l-11.84-4.73-.02-56.83-11.84-4.14v43.81s-11.83-4.73-11.83-4.73v7.7s-5.92-2.37-5.92-2.37v5.33s-5.91-1.78-5.91-1.78v1.78l-8.88-3.55v-11.84s-8.89-3.54-8.89-3.54v13.02l-5.92-2.37v-6.51l-8.88-3.55-2.37-.59c-1.58-.78-3.16-1.58-4.74-2.37-1.58-.78-3.16-1.97-4.74-3.55v4.14c-2.76-1.97-4.94-4.54-6.51-7.69-1.98-3.55-2.96-7.7-2.97-12.43v-59.79c-.02-2.77,.77-5.33,2.35-7.7,1.58-2.77,3.94-4.34,7.1-4.74v-4.14c1.18-.78,2.76-.78,4.74,0l7.1,.59,8.88,1.78v5.92l5.92,1.18v-12.43l8.88,1.18v11.84l8.88,1.18v-1.78l5.92,.59v-5.33l5.92,.59v-7.7l11.84,1.77v-43.81s11.83,1.78,11.83,1.78Zm53.35,276.46l5.92,1.18v-18.35l-5.92-2.37v19.54Zm8.87-46.18l-2.96-1.18v19.54l2.96,.59v21.9h2.97v-38.48s-2.97-1.18-2.97-1.18v-1.18Z"/><path class="cls-3" d="M1077.73,320.37v56.83s11.85,1.77,11.85,1.77v-8.88l2.96,.59v-39.67l5.92,.58v36.71l5.92,.59v.59l8.88,1.18v14.8l8.88,1.18h2.96v6.51h2.96v36.71s2.97,.59,2.97,.59v20.13l5.92,.58v-30.19l2.96,.59v1.18l2.96,.59v-17.76h1.78c.39,0,.59,.19,.59,.58h.59v-15.39c1.97,0,3.94,.59,5.91,1.78v-1.18c5.14,1.97,9.08,5.13,11.85,9.46v.59c1.18,1.98,2.17,3.94,2.96,5.92v1.78c.39,1.18,.78,2.37,1.18,3.55v98.87c0,1.18-.38,2.96-1.18,5.33v-1.18c-.39,1.18-1.38,2.57-2.96,4.14v-1.18c-2.37,2.37-5.33,3.55-8.88,3.56h-2.96v1.18c-.39,0-.79-.2-1.18-.59l-4.74-1.78v15.39l-2.96-1.18v11.25h2.96s0,5.32,0,5.32c1.97,0,3.94,.59,5.92,1.78,5.13,1.97,9.07,4.93,11.84,8.87,1.18,1.98,2.17,3.94,2.96,5.92v-9.47c.39,1.18,.78,2.37,1.18,3.55v98.87c0,1.97-.38,3.74-1.18,5.33v10.06c-.39,1.18-1.38,2.57-2.96,4.14-2.37,2.37-5.33,3.55-8.88,3.56h-2.96c-.39,0-.78-.2-1.18-.59l-4.74-1.78v-4.74l-2.96-1.18v45.59s-2.95-1.18-2.95-1.18v-21.9l-2.96-1.18v29.01l-5.92-2.36v-26.64l-2.97-1.18v3.55s-2.95-.59-2.95-.59v-27.23s-2.97-1.18-2.97-1.18v3.55l-8.88-2.95v-8.88l-8.88-3.54v-2.96l-5.92-1.78v-26.64l-5.92-1.77v55.65l-2.96-1.18v-3.55l-11.84-4.73v-23.68l-11.84-4.73v-23.09s-11.85-4.74-11.85-4.74v7.7s-5.92-2.36-5.92-2.36v20.72s-5.91-2.37-5.91-2.37v4.14l-8.88-3.54v-11.25l-8.88-3.54v8.29l-14.8-5.91v8.29l-2.37-1.18c-1.58-.79-3.16-1.38-4.74-1.78-1.58-.78-3.16-1.97-4.74-3.54v-6.51c-2.77-1.98-4.94-4.54-6.52-7.7-1.97-3.55-2.96-7.7-2.96-12.43v-59.79c0-6.7,3.15-11.05,9.46-13.02v7.1c.79-.4,2.37-.59,4.74-.6l7.1,1.18v-8.29l8.88,1.77v-.59l5.92,1.18v-7.7l8.88,1.18v11.25l8.88,1.18v-4.14l5.92,1.18v-21.31l5.92,1.18v-7.1l11.84,1.78v23.09l11.84,1.77v23.68s11.85,1.77,11.85,1.77v3.55l2.96,.59v-56.24s5.91,1.18,5.91,1.18v26.05l5.92,1.18v2.37l8.88,1.18v8.88s8.89,1.18,8.89,1.18v-3.55s2.95,.59,2.95,.59v26.64s2.97,.59,2.97,.59v-4.14l2.96,.59v-13.02l-2.96-1.18v-36.11s-2.97-1.18-2.97-1.18v-5.92l-11.84-4.73v-14.21l-8.88-3.54v-.59l-5.92-2.37v-36.11s-5.93-2.36-5.93-2.36v39.67s-2.95-1.18-2.95-1.18v8.88l-11.84-4.73v-56.83s-11.85-4.14-11.85-4.14v43.81l-11.84-4.74v7.7s-5.91-2.36-5.91-2.36v5.33l-5.92-1.78v1.78l-8.88-3.54v-11.84s-8.89-3.54-8.89-3.54v13.02l-5.92-2.37v-6.51l-8.88-3.54-2.37-.59c-1.58-.79-3.15-1.58-4.74-2.37-1.58-.78-3.15-1.97-4.74-3.54v4.14c-2.76-1.98-4.93-4.54-6.51-7.7-1.98-3.55-2.96-7.7-2.96-12.43v-59.79c0-2.76,.78-5.33,2.36-7.7,1.58-2.76,3.94-4.34,7.1-4.74v-4.14c1.18-.79,2.76-.79,4.74,0l7.1,.59,8.88,1.77v5.92l5.92,1.18v-12.43l8.88,1.18v11.84l8.88,1.18v-1.78l5.92,.59v-5.33l5.92,.58v-7.7l11.84,1.78v-43.81s11.83,1.77,11.83,1.77Zm53.32,276.44l5.92,1.18v-18.35l-5.92-2.36v19.54Zm8.88-46.19l-2.96-1.18v19.54l2.96,.59v21.9h2.96v-38.48l-2.96-1.18v-1.18Z"/><path class="cls-6" d="M990.67,231.42v56.83s11.85,1.77,11.85,1.77v-8.88l2.96,.59v-39.67s5.91,.58,5.91,.58v36.71s5.93,.59,5.93,.59v.59l8.88,1.18v14.8l8.88,1.18h2.96s0,6.5,0,6.5h2.96v36.71s2.97,.59,2.97,.59v20.13l5.92,.59v-30.19l2.96,.58v1.18l2.96,.59v-17.76s1.77,0,1.77,0c.4,0,.59,.2,.59,.59h.59v-15.39c1.98,0,3.94,.59,5.92,1.77v-1.18c5.14,1.98,9.08,5.13,11.84,9.46v.59c1.18,1.98,2.18,3.95,2.96,5.92v1.78c.4,1.18,.79,2.37,1.18,3.55,0,1.18,0,2.57,0,4.14v94.72c0,1.18-.39,2.96-1.18,5.33v-1.18c-.39,1.18-1.38,2.57-2.96,4.14v-1.18c-2.37,2.38-5.33,3.56-8.88,3.56h-2.96v1.18c-.39,0-.79-.19-1.18-.59l-4.74-1.77v15.39l-2.96-1.18v11.25h2.96v5.33c1.98,0,3.95,.59,5.92,1.77,5.14,1.98,9.08,4.93,11.84,8.87,1.18,1.98,2.18,3.95,2.97,5.92v-9.47c.39,1.18,.78,2.37,1.18,3.55,0,1.18,0,2.57,0,4.14v94.72c0,1.98-.38,3.75-1.18,5.33v10.06c-.39,1.18-1.38,2.57-2.96,4.14-2.37,2.38-5.33,3.56-8.88,3.56h-2.96c-.39,0-.79-.19-1.18-.59l-4.74-1.77v-4.74l-2.96-1.18v45.59s-2.95-1.18-2.95-1.18v-21.9s-2.97-1.18-2.97-1.18v29.01s-5.91-2.37-5.91-2.37v-26.64s-2.97-1.18-2.97-1.18v3.55l-2.96-.59v-27.23l-2.96-1.18v3.55l-8.88-2.96v-8.88l-8.88-3.54v-2.96l-5.92-1.78v-26.64s-5.93-1.77-5.93-1.77v55.65s-2.95-1.18-2.95-1.18v-3.55l-11.84-4.73v-23.68l-11.84-4.73v-23.09s-11.85-4.73-11.85-4.73v7.7l-5.92-2.37v20.72s-5.91-2.36-5.91-2.36v4.14l-8.88-3.55v-11.25s-8.89-3.54-8.89-3.54v8.29l-14.8-5.91v8.29l-2.37-1.18c-1.58-.78-3.15-1.38-4.74-1.77-1.58-.79-3.15-1.98-4.74-3.55v-6.51c-2.76-1.97-4.93-4.54-6.51-7.69-1.98-3.55-2.96-7.7-2.96-12.43v-59.79c0-6.71,3.15-11.06,9.46-13.03v7.1c.79-.39,2.37-.59,4.74-.59l7.1,1.18v-8.29l8.88,1.78v-.59l5.92,1.18v-7.7l8.88,1.18v11.25l8.88,1.18v-4.14l5.92,1.18v-21.31l5.92,1.18v-7.1l11.84,1.77v23.09l11.84,1.77v23.68l11.84,1.77v3.55l2.96,.59v-56.24l5.92,1.18v26.05l5.92,1.18v2.37l8.88,1.18v8.88l8.88,1.18v-3.55l2.96,.58v26.64s2.97,.59,2.97,.59v-4.14l2.96,.59v-13.02s-2.97-1.18-2.97-1.18v-36.11l-2.96-1.18v-5.92l-11.84-4.73v-14.21l-8.89-3.54v-.59l-5.92-2.37v-36.11l-5.92-2.36v39.67l-2.96-1.18v8.88s-11.83-4.73-11.83-4.73v-56.83s-11.85-4.14-11.85-4.14v43.81l-11.84-4.73v7.7l-5.92-2.37v5.33l-5.92-1.77v1.78l-8.88-3.55v-11.84l-8.88-3.54v13.02l-5.92-2.36v-6.51l-8.88-3.55-2.37-.59c-1.58-.78-3.16-1.58-4.74-2.36-1.58-.79-3.16-1.98-4.74-3.55v4.14c-2.76-1.97-4.94-4.54-6.51-7.69-1.98-3.55-2.96-7.7-2.96-12.43v-59.79c0-2.76,.78-5.33,2.36-7.7,1.58-2.77,3.94-4.34,7.1-4.74v-4.14c1.18-.79,2.76-.79,4.74,0l7.1,.58,8.88,1.78v5.92l5.92,1.18v-12.43l8.88,1.18v11.84l8.88,1.18v-1.78l5.92,.58v-5.33l5.92,.59v-7.7l11.84,1.77v-43.81s11.83,1.77,11.83,1.77Zm53.32,276.44l5.92,1.18v-18.35l-5.92-2.37v19.54Zm8.87-46.19l-2.96-1.18v19.54s2.97,.58,2.97,.58v21.9h2.96v-38.48s-2.97-1.18-2.97-1.18v-1.18Z"/><path class="cls-6" d="M949.76,320.37v56.83l11.84,1.77v-8.88l2.96,.59v-39.67l5.92,.58v36.71l5.92,.59v.59l8.88,1.18v14.8l8.88,1.18h2.96v6.51h2.97v36.71l2.96,.59v20.13l5.92,.58v-30.19l2.96,.59v1.18l2.96,.59v-17.76h1.78c.39,0,.59,.19,.59,.58h.59v-15.39c1.97,0,3.94,.59,5.92,1.78v-1.18c5.13,1.97,9.07,5.13,11.84,9.46v.59c1.18,1.98,2.17,3.94,2.96,5.92v1.78c.39,1.18,.78,2.37,1.18,3.55v98.87c0,1.18-.38,2.96-1.18,5.33v-1.18c-.39,1.18-1.38,2.57-2.96,4.14v-1.18c-2.37,2.37-5.33,3.55-8.88,3.56h-2.96v1.18c-.39,0-.78-.2-1.18-.59l-4.74-1.78v15.39s-2.96-1.18-2.96-1.18v11.25s2.97,0,2.97,0v5.33c1.97,0,3.94,.59,5.92,1.78,5.13,1.97,9.07,4.93,11.84,8.87,1.18,1.98,2.17,3.94,2.96,5.92v-9.47c.39,1.18,.79,2.37,1.18,3.55v98.87c0,1.97-.38,3.74-1.18,5.33v10.06c-.39,1.18-1.38,2.57-2.96,4.14-2.37,2.37-5.32,3.55-8.87,3.56h-2.96c-.4,0-.79-.2-1.18-.59l-4.74-1.78v-4.74l-2.96-1.18v45.59s-2.95-1.18-2.95-1.18v-21.9l-2.96-1.18v29.01l-5.92-2.36v-26.64l-2.96-1.18v3.55l-2.96-.59v-27.23s-2.97-1.18-2.97-1.18v3.55l-8.88-2.95v-8.88l-8.88-3.54v-2.96l-5.92-1.78v-26.64l-5.92-1.77v55.65l-2.96-1.18v-3.55l-11.84-4.73v-23.68l-11.84-4.73v-23.09l-11.84-4.74v7.7l-5.92-2.36v20.72l-5.92-2.37v4.14l-8.88-3.54v-11.25l-8.88-3.54v8.29l-14.8-5.91v8.29l-2.37-1.18c-1.58-.79-3.16-1.38-4.74-1.78-1.58-.78-3.16-1.97-4.74-3.54v-6.51c-2.77-1.98-4.94-4.54-6.51-7.7-1.98-3.55-2.97-7.7-2.97-12.43v-59.79c0-6.7,3.15-11.05,9.46-13.02v7.1c.79-.4,2.38-.59,4.74-.6l7.1,1.18v-8.29s8.87,1.77,8.87,1.77v-.59l5.92,1.18v-7.7l8.88,1.18v11.25s8.89,1.18,8.89,1.18v-4.14s5.91,1.18,5.91,1.18v-21.31l5.92,1.18v-7.1l11.84,1.78v23.09l11.84,1.77v23.68s11.85,1.77,11.85,1.77v3.55l2.96,.59v-56.24s5.91,1.18,5.91,1.18v26.05l5.93,1.18v2.37l8.88,1.18v8.88l8.88,1.18v-3.55l2.96,.59v26.64l2.96,.59v-4.14l2.96,.59v-13.02l-2.96-1.18v-36.11s-2.97-1.18-2.97-1.18v-5.92l-11.84-4.73v-14.21l-8.88-3.54v-.59l-5.92-2.37v-36.11s-5.93-2.36-5.93-2.36v39.67s-2.95-1.18-2.95-1.18v8.88l-11.84-4.73v-56.83s-11.85-4.14-11.85-4.14v43.81s-11.83-4.74-11.83-4.74v7.7l-5.92-2.36v5.33l-5.92-1.78v1.78l-8.88-3.54v-11.84l-8.89-3.54v13.02s-5.91-2.37-5.91-2.37v-6.51l-8.88-3.54-2.38-.59c-1.58-.79-3.15-1.58-4.74-2.37-1.58-.78-3.15-1.97-4.74-3.54v4.14c-2.76-1.98-4.93-4.54-6.51-7.7-1.97-3.55-2.96-7.7-2.96-12.43v-59.79c0-2.76,.78-5.33,2.36-7.7,1.58-2.76,3.95-4.34,7.1-4.74v-4.14c1.18-.79,2.76-.79,4.74,0l7.1,.59,8.88,1.77v5.92l5.92,1.18v-12.43l8.88,1.18v11.84l8.88,1.18v-1.78l5.92,.59v-5.33l5.92,.58v-7.7l11.84,1.78v-43.81l11.84,1.77Zm53.31,276.44l5.92,1.18v-18.35l-5.92-2.36v19.54Zm8.88-46.19l-2.96-1.18v19.54l2.96,.59v21.9h2.96v-38.48l-2.96-1.18v-1.18Z"/><path class="cls-5" d="M851.39,320.37v56.83s11.84,1.77,11.84,1.77v-8.88l2.96,.59v-39.67l5.92,.58v36.71l5.92,.59v.59l8.88,1.18v14.8l8.88,1.18h2.96v6.51h2.97v36.71l2.96,.59v20.13l5.92,.58v-30.19l2.96,.59v1.18l2.96,.59v-17.76h1.78c.39,0,.59,.19,.59,.58h.59v-15.39c1.97,0,3.94,.59,5.92,1.78v-1.18c5.13,1.97,9.07,5.13,11.84,9.46v.59c1.18,1.98,2.17,3.94,2.96,5.92v1.78c.39,1.18,.78,2.37,1.18,3.55v98.87c0,1.18-.38,2.96-1.18,5.33v-1.18c-.39,1.18-1.38,2.57-2.96,4.14v-1.18c-2.37,2.37-5.33,3.55-8.88,3.56h-2.96v1.18c-.39,0-.78-.2-1.18-.59l-4.74-1.78v15.39l-2.96-1.18v11.25s2.97,0,2.97,0v5.33c1.97,0,3.94,.59,5.92,1.78,5.13,1.97,9.07,4.93,11.84,8.87,1.18,1.98,2.17,3.94,2.96,5.92v-9.47c.39,1.18,.78,2.37,1.18,3.55v98.87c0,1.97-.38,3.74-1.18,5.33v10.06c-.39,1.18-1.38,2.57-2.96,4.14-2.37,2.37-5.33,3.55-8.88,3.56h-2.96c-.39,0-.78-.2-1.18-.59l-4.74-1.78v-4.74l-2.96-1.18v45.59s-2.95-1.18-2.95-1.18v-21.9l-2.96-1.18v29.01l-5.92-2.36v-26.64l-2.96-1.18v3.55l-2.96-.59v-27.23s-2.97-1.18-2.97-1.18v3.55l-8.88-2.95v-8.88l-8.88-3.54v-2.96l-5.92-1.78v-26.64l-5.92-1.77v55.65l-2.96-1.18v-3.55l-11.84-4.73v-23.68s-11.84-4.73-11.84-4.73v-23.09s-11.84-4.74-11.84-4.74v7.7s-5.92-2.36-5.92-2.36v20.72s-5.92-2.37-5.92-2.37v4.14l-8.88-3.54v-11.25s-8.88-3.54-8.88-3.54v8.29s-14.8-5.91-14.8-5.91v8.29s-2.37-1.18-2.37-1.18c-1.58-.79-3.16-1.38-4.74-1.78-1.58-.78-3.16-1.97-4.74-3.54v-6.51c-2.76-1.98-4.93-4.54-6.51-7.7-1.97-3.55-2.96-7.7-2.96-12.43v-59.79c0-6.7,3.15-11.05,9.46-13.02v7.1c.79-.4,2.37-.59,4.74-.6l7.1,1.18v-8.29s8.88,1.77,8.88,1.77v-.59l5.92,1.18v-7.7s8.88,1.18,8.88,1.18v11.25s8.88,1.18,8.88,1.18v-4.14l5.92,1.18v-21.31s5.92,1.18,5.92,1.18v-7.1s11.84,1.78,11.84,1.78v23.09s11.84,1.77,11.84,1.77v23.68s11.84,1.77,11.84,1.77v3.55l2.96,.59v-56.24s5.91,1.18,5.91,1.18v26.05l5.92,1.18v2.37s8.89,1.18,8.89,1.18v8.88l8.88,1.18v-3.55l2.96,.59v26.64l2.96,.59v-4.14l2.96,.59v-13.02l-2.96-1.18v-36.11s-2.97-1.18-2.97-1.18v-5.92l-11.84-4.73v-14.21l-8.88-3.54v-.59l-5.92-2.37v-36.11s-5.93-2.36-5.93-2.36v39.67s-2.95-1.18-2.95-1.18v8.88l-11.84-4.73v-56.83s-11.85-4.14-11.85-4.14v43.81s-11.84-4.74-11.84-4.74v7.7s-5.92-2.36-5.92-2.36v5.33l-5.92-1.78v1.78l-8.88-3.54v-11.84s-8.88-3.54-8.88-3.54v13.02s-5.92-2.37-5.92-2.37v-6.51s-8.88-3.54-8.88-3.54l-2.37-.59c-1.58-.79-3.16-1.58-4.74-2.37-1.58-.78-3.16-1.97-4.74-3.54v4.14c-2.76-1.98-4.93-4.54-6.51-7.7-1.97-3.55-2.96-7.7-2.96-12.43v-59.79c0-2.76,.78-5.33,2.36-7.7,1.58-2.76,3.95-4.34,7.1-4.74v-4.14c1.18-.79,2.76-.79,4.74,0l7.11,.59,8.88,1.77v5.92s5.92,1.18,5.92,1.18v-12.43s8.88,1.18,8.88,1.18v11.84s8.88,1.18,8.88,1.18v-1.78l5.92,.59v-5.33s5.92,.58,5.92,.58v-7.7s11.84,1.78,11.84,1.78v-43.81s11.84,1.77,11.84,1.77Zm53.31,276.44l5.92,1.18v-18.35l-5.92-2.36v19.54Zm8.88-46.19l-2.96-1.18v19.54l2.96,.59v21.9h2.96v-38.48l-2.96-1.18v-1.18Z"/><path class="cls-5" d="M810.47,138.33v56.83s11.85,1.77,11.85,1.77v-8.88s2.96,.59,2.96,.59v-39.67s5.92,.59,5.92,.59v36.71s5.92,.59,5.92,.59v.59l8.88,1.18v14.8s8.88,1.18,8.88,1.18h2.96s0,6.51,0,6.51h2.96s0,36.71,0,36.71l2.96,.58v20.13s5.93,.59,5.93,.59v-30.19s2.95,.59,2.95,.59v1.18l2.96,.58v-17.76h1.78c.39,0,.59,.2,.59,.59h.59v-15.39c1.98,0,3.94,.59,5.92,1.77v-1.18c5.13,1.97,9.08,5.12,11.84,9.46v.59c1.18,1.97,2.17,3.94,2.96,5.92v1.78c.4,1.18,.79,2.37,1.18,3.55v4.14l.02,94.72c0,1.18-.4,2.96-1.18,5.33v-1.18c-.4,1.18-1.38,2.56-2.96,4.14v-1.18c-2.37,2.37-5.33,3.55-8.88,3.56h-2.96v1.18c-.4,0-.79-.2-1.18-.59l-4.74-1.78v15.39l-2.96-1.18v11.25h2.96v5.33c1.98,0,3.94,.59,5.92,1.78,5.13,1.97,9.08,4.93,11.84,8.87,1.18,1.97,2.18,3.94,2.96,5.92v-9.47c.4,1.18,.79,2.37,1.18,3.55v4.14l.02,94.72c0,1.97-.4,3.74-1.18,5.33v10.06c-.4,1.18-1.38,2.56-2.96,4.14-2.37,2.37-5.33,3.55-8.88,3.56h-2.96c-.39,0-.79-.2-1.18-.59l-4.74-1.78v-4.74l-2.96-1.18v45.59l-2.96-1.18v-21.9l-2.96-1.18v29.01l-5.92-2.37v-26.64l-2.96-1.18v3.55l-2.96-.59v-27.23s-2.96-1.18-2.96-1.18v3.55l-8.88-2.95v-8.88s-8.88-3.55-8.88-3.55v-2.96l-5.92-1.77v-26.64s-5.92-1.78-5.92-1.78v55.65s-2.95-1.18-2.95-1.18v-3.55l-11.84-4.74v-23.68s-11.84-4.73-11.84-4.73v-23.09s-11.84-4.73-11.84-4.73v7.7s-5.92-2.36-5.92-2.36v20.72s-5.92-2.37-5.92-2.37v4.14l-8.88-3.54v-11.25s-8.88-3.55-8.88-3.55v8.29s-14.8-5.9-14.8-5.9v8.29s-2.37-1.18-2.37-1.18c-1.58-.79-3.16-1.38-4.74-1.78-1.58-.78-3.16-1.97-4.74-3.54v-6.51c-2.76-1.98-4.93-4.54-6.51-7.7-1.97-3.55-2.96-7.7-2.96-12.43v-59.79c0-6.7,3.15-11.05,9.46-13.02v7.1c.79-.4,2.37-.6,4.74-.6l7.1,1.18v-8.29s8.88,1.77,8.88,1.77v-.59l5.92,1.18v-7.7s8.88,1.18,8.88,1.18v11.25s8.88,1.18,8.88,1.18v-4.14s5.92,1.18,5.92,1.18v-21.31s5.92,1.18,5.92,1.18v-7.1s11.84,1.77,11.84,1.77v23.09s11.84,1.77,11.84,1.77v23.68s11.84,1.78,11.84,1.78v3.55l2.96,.58v-56.24s5.91,1.18,5.91,1.18v26.05s5.92,1.18,5.92,1.18v2.37l8.88,1.18v8.88s8.88,1.18,8.88,1.18v-3.55s2.96,.59,2.96,.59v26.64s2.96,.59,2.96,.59v-4.14l2.96,.58v-13.02l-2.96-1.18v-36.11l-2.96-1.18v-5.92l-11.84-4.73v-14.21s-8.88-3.55-8.88-3.55v-.59s-5.92-2.36-5.92-2.36v-36.11s-5.92-2.37-5.92-2.37v39.67s-2.96-1.18-2.96-1.18v8.88s-11.84-4.74-11.84-4.74v-56.83s-11.85-4.14-11.85-4.14v43.81s-11.84-4.73-11.84-4.73v7.7s-5.92-2.36-5.92-2.36v5.33s-5.92-1.78-5.92-1.78v1.78l-8.88-3.54v-11.84s-8.88-3.55-8.88-3.55v13.02s-5.92-2.36-5.92-2.36v-6.51s-8.88-3.54-8.88-3.54l-2.37-.59c-1.58-.79-3.16-1.58-4.74-2.37-1.58-.78-3.16-1.97-4.74-3.54v4.14c-2.76-1.98-4.93-4.54-6.51-7.7-1.97-3.55-2.96-7.7-2.96-12.43v-59.79c0-2.76,.78-5.33,2.36-7.7,1.58-2.76,3.95-4.34,7.1-4.74v-4.14c1.18-.79,2.76-.79,4.74,0l7.1,.59,8.88,1.77v5.92l5.92,1.18v-12.43s8.88,1.18,8.88,1.18v11.84s8.88,1.18,8.88,1.18v-1.78l5.92,.59v-5.33s5.92,.59,5.92,.59v-7.7s11.84,1.77,11.84,1.77v-43.81s11.84,1.77,11.84,1.77Zm53.32,276.44l5.92,1.18v-18.35s-5.93-2.37-5.93-2.37v19.54Zm8.88-46.18l-2.96-1.18v19.54l2.96,.59v21.9s2.97,0,2.97,0v-38.48s-2.97-1.18-2.97-1.18v-1.18Z"/><path class="cls-7" d="M720.8,320.37v56.83s11.85,1.77,11.85,1.77v-8.88s2.96,.59,2.96,.59v-39.67s5.92,.58,5.92,.58v36.71s5.92,.59,5.92,.59v.59l8.88,1.18v14.8s8.88,1.18,8.88,1.18h2.96v6.51h2.96v36.71s2.96,.59,2.96,.59v20.13s5.92,.58,5.92,.58v-30.19s2.96,.59,2.96,.59v1.18l2.96,.59v-17.76s1.77,0,1.77,0c.39,0,.59,.19,.59,.58h.59v-15.39c1.97,0,3.94,.59,5.92,1.78v-1.18c5.13,1.97,9.08,5.13,11.84,9.46v.59c1.18,1.98,2.17,3.94,2.96,5.92v1.78c.4,1.18,.79,2.37,1.18,3.55v98.87c.01,1.18-.38,2.96-1.17,5.33v-1.18c-.39,1.18-1.38,2.57-2.96,4.14v-1.18c-2.37,2.37-5.33,3.55-8.88,3.56h-2.96v1.18c-.4,0-.79-.2-1.18-.59l-4.74-1.78v15.39s-2.96-1.18-2.96-1.18v11.25s2.96,0,2.96,0v5.33c1.97,0,3.95,.59,5.92,1.78,5.13,1.97,9.08,4.93,11.84,8.87,1.18,1.98,2.17,3.94,2.96,5.92v-9.47c.39,1.18,.79,2.37,1.18,3.55,0,1.18,0,2.56,0,4.14v94.72c.01,1.97-.38,3.74-1.17,5.33v10.06c-.39,1.18-1.38,2.57-2.96,4.14-2.37,2.37-5.33,3.55-8.88,3.56h-2.96c-.4,0-.79-.2-1.18-.59l-4.74-1.78v-4.74l-2.96-1.18v45.59s-2.95-1.18-2.95-1.18v-21.9s-2.96-1.18-2.96-1.18v29.01s-5.92-2.36-5.92-2.36v-26.64s-2.96-1.18-2.96-1.18v3.55s-2.96-.59-2.96-.59v-27.23s-2.96-1.18-2.96-1.18v3.55l-8.88-2.95v-8.88s-8.88-3.54-8.88-3.54v-2.96l-5.92-1.78v-26.64s-5.92-1.77-5.92-1.77v55.65s-2.95-1.18-2.95-1.18v-3.55l-11.84-4.73v-23.68s-11.84-4.73-11.84-4.73v-23.09s-11.84-4.74-11.84-4.74v7.7s-5.92-2.36-5.92-2.36v20.72s-5.92-2.37-5.92-2.37v4.14l-8.88-3.54v-11.25s-8.88-3.54-8.88-3.54v8.29s-14.8-5.91-14.8-5.91v8.29s-2.37-1.18-2.37-1.18c-1.58-.79-3.16-1.38-4.74-1.78-1.58-.78-3.16-1.97-4.74-3.54v-6.51c-2.76-1.98-4.93-4.54-6.51-7.7-1.97-3.55-2.96-7.7-2.96-12.43v-59.79c0-6.7,3.15-11.05,9.46-13.02v7.1c.79-.4,2.37-.59,4.74-.6l7.1,1.18v-8.29s8.88,1.77,8.88,1.77v-.59l5.92,1.18v-7.7s8.88,1.18,8.88,1.18v11.25s8.88,1.18,8.88,1.18v-4.14s5.92,1.18,5.92,1.18v-21.31s5.92,1.18,5.92,1.18v-7.1s11.84,1.78,11.84,1.78v23.09s11.84,1.77,11.84,1.77v23.68s11.84,1.77,11.84,1.77v3.55l2.96,.59v-56.24s5.91,1.18,5.91,1.18v26.05s5.92,1.18,5.92,1.18v2.37l8.88,1.18v8.88s8.88,1.18,8.88,1.18v-3.55l2.96,.59v26.64s2.96,.59,2.96,.59v-4.14s2.96,.59,2.96,.59v-13.02s-2.96-1.18-2.96-1.18v-36.11s-2.96-1.18-2.96-1.18v-5.92s-11.84-4.73-11.84-4.73v-14.21s-8.88-3.54-8.88-3.54v-.59l-5.92-2.37v-36.11s-5.92-2.36-5.92-2.36v39.67s-2.96-1.18-2.96-1.18v8.88s-11.84-4.73-11.84-4.73v-56.83s-11.85-4.14-11.85-4.14v43.81s-11.84-4.74-11.84-4.74v7.7s-5.92-2.36-5.92-2.36v5.33s-5.92-1.78-5.92-1.78v1.78l-8.88-3.54v-11.84s-8.88-3.54-8.88-3.54v13.02s-5.92-2.37-5.92-2.37v-6.51s-8.88-3.54-8.88-3.54l-2.37-.59c-1.58-.79-3.16-1.58-4.74-2.37-1.58-.78-3.16-1.97-4.74-3.54v4.14c-2.76-1.98-4.93-4.54-6.51-7.7-1.97-3.55-2.96-7.7-2.96-12.43v-59.79c0-2.76,.78-5.33,2.36-7.7,1.58-2.76,3.95-4.34,7.1-4.74v-4.14c1.18-.79,2.76-.79,4.74,0l7.1,.59,8.88,1.77v5.92s5.92,1.18,5.92,1.18v-12.43s8.88,1.18,8.88,1.18v11.84s8.88,1.18,8.88,1.18v-1.78s5.92,.59,5.92,.59v-5.33s5.92,.58,5.92,.58v-7.7s11.84,1.78,11.84,1.78v-43.81s11.84,1.77,11.84,1.77Zm53.31,276.44l5.92,1.18v-18.35s-5.92-2.36-5.92-2.36v19.54Zm8.88-46.19l-2.96-1.18v19.54s2.96,.59,2.96,.59v21.9h2.96v-38.48s-2.96-1.18-2.96-1.18v-1.18Z"/><path class="cls-7" d="M652.03,198.32v56.84s11.85,1.77,11.85,1.77v-8.88s2.96,.59,2.96,.59v-39.67s5.92,.59,5.92,.59v36.7s5.92,.59,5.92,.59v.59l8.88,1.18v14.8s8.88,1.18,8.88,1.18h2.96v6.51h2.96v36.71s2.96,.59,2.96,.59v20.13s5.92,.58,5.92,.58v-30.19s2.96,.59,2.96,.59v1.18l2.96,.59v-17.76s1.77,0,1.77,0c.39,0,.59,.19,.59,.59,0,0,.2,0,.59,0v-15.39c1.97,0,3.94,.59,5.92,1.78v-1.18c5.13,1.97,9.08,5.13,11.84,9.46v.59c1.18,1.98,2.17,3.94,2.96,5.92v1.78c.4,1.18,.79,2.37,1.18,3.55v98.87c.01,1.18-.38,2.96-1.17,5.33v-1.18c-.4,1.18-1.38,2.57-2.96,4.14v-1.18c-2.37,2.37-5.33,3.56-8.88,3.56h-2.96v1.18c-.39,0-.79-.2-1.18-.59l-4.74-1.78v15.39s-2.96-1.18-2.96-1.18v11.25s2.96,0,2.96,0v5.33c1.97,0,3.95,.59,5.92,1.78,5.13,1.97,9.08,4.93,11.84,8.87,1.18,1.98,2.17,3.94,2.96,5.92v-9.47c.39,1.18,.79,2.37,1.18,3.55v98.87c.01,1.97-.38,3.74-1.17,5.33v10.06c-.39,1.18-1.38,2.57-2.96,4.14-2.37,2.37-5.33,3.56-8.88,3.56h-2.96c-.39,0-.79-.2-1.18-.59l-4.74-1.78v-4.74s-2.96-1.18-2.96-1.18v45.59s-2.95-1.18-2.95-1.18v-21.9s-2.96-1.18-2.96-1.18v29.01s-5.92-2.36-5.92-2.36v-26.64s-2.96-1.18-2.96-1.18v3.55l-2.96-.59v-27.23s-2.96-1.18-2.96-1.18v3.55l-8.88-2.95v-8.88s-8.88-3.54-8.88-3.54v-2.96l-5.92-1.78v-26.64s-5.92-1.77-5.92-1.77v55.65s-2.95-1.18-2.95-1.18v-3.55s-11.84-4.73-11.84-4.73v-23.68s-11.84-4.73-11.84-4.73v-23.09s-11.84-4.74-11.84-4.74v7.7s-5.92-2.36-5.92-2.36v20.72s-5.92-2.37-5.92-2.37v4.14s-8.88-3.54-8.88-3.54v-11.25s-8.88-3.54-8.88-3.54v8.29s-14.8-5.91-14.8-5.91v8.29s-2.37-1.18-2.37-1.18c-1.58-.79-3.16-1.38-4.74-1.78-1.58-.78-3.16-1.97-4.74-3.54v-6.51c-2.76-1.98-4.93-4.54-6.51-7.7-1.97-3.55-2.96-7.7-2.96-12.43v-59.79c0-6.7,3.15-11.05,9.46-13.02v7.1c.79-.4,2.37-.59,4.74-.6l7.11,1.18v-8.29s8.88,1.77,8.88,1.77v-.59l5.92,1.18v-7.7s8.88,1.18,8.88,1.18v11.25s8.88,1.18,8.88,1.18v-4.14s5.92,1.18,5.92,1.18v-21.31s5.92,1.18,5.92,1.18v-7.1s11.84,1.78,11.84,1.78v23.09s11.84,1.77,11.84,1.77v23.68s11.84,1.77,11.84,1.77v3.55l2.96,.59v-56.24s5.91,1.18,5.91,1.18v26.05s5.92,1.18,5.92,1.18v2.37s8.88,1.18,8.88,1.18v8.88s8.88,1.18,8.88,1.18v-3.55l2.96,.59v26.64s2.96,.59,2.96,.59v-4.14l2.96,.59v-13.02s-2.96-1.18-2.96-1.18v-36.11s-2.96-1.18-2.96-1.18v-5.92s-11.84-4.73-11.84-4.73v-14.21s-8.88-3.54-8.88-3.54v-.59l-5.92-2.37v-36.11s-5.92-2.36-5.92-2.36v39.67s-2.96-1.18-2.96-1.18v8.88s-11.84-4.73-11.84-4.73v-56.83s-11.85-4.14-11.85-4.14v43.81s-11.84-4.74-11.84-4.74v7.7s-5.92-2.36-5.92-2.36v5.33s-5.92-1.78-5.92-1.78v1.78l-8.88-3.54v-11.84s-8.88-3.54-8.88-3.54v13.02s-5.92-2.37-5.92-2.37v-6.51s-8.88-3.54-8.88-3.54l-2.37-.59c-1.58-.79-3.16-1.58-4.74-2.37-1.58-.78-3.16-1.97-4.74-3.54v4.14c-2.76-1.98-4.93-4.54-6.51-7.7-1.97-3.55-2.96-7.7-2.96-12.43v-59.79c0-2.76,.78-5.33,2.36-7.7,1.58-2.76,3.95-4.34,7.1-4.74v-4.14c1.18-.79,2.76-.79,4.74,0l7.1,.59,8.88,1.77v5.92s5.92,1.18,5.92,1.18v-12.43s8.88,1.18,8.88,1.18v11.84s8.88,1.18,8.88,1.18v-1.78s5.92,.59,5.92,.59v-5.33l5.92,.58v-7.7s11.84,1.78,11.84,1.78v-43.81s11.84,1.77,11.84,1.77Zm53.31,276.44l5.92,1.18v-18.35s-5.92-2.36-5.92-2.36v19.54Zm8.88-46.19l-2.96-1.18v19.54s2.96,.59,2.96,.59v21.9h2.96v-38.48s-2.97-1.18-2.97-1.18v-1.18Z"/><path class="cls-7" d="M572.81,320.37v56.83s11.85,1.77,11.85,1.77v-8.88s2.96,.59,2.96,.59v-39.67s5.92,.58,5.92,.58v36.71s5.92,.59,5.92,.59v.59l8.88,1.18v14.8s8.88,1.18,8.88,1.18h2.96v6.51h2.96v36.71s2.96,.59,2.96,.59v20.13s5.92,.58,5.92,.58v-30.19s2.96,.59,2.96,.59v1.18l2.96,.59v-17.76s1.77,0,1.77,0c.39,0,.59,.19,.59,.58h.59v-15.39c1.97,0,3.94,.59,5.92,1.78v-1.18c5.13,1.97,9.08,5.13,11.84,9.46v.59c1.18,1.98,2.17,3.94,2.96,5.92v1.78c.39,1.18,.79,2.37,1.18,3.55,0,1.18,0,2.56,0,4.14v94.72c.01,1.18-.38,2.96-1.17,5.33v-1.18c-.4,1.18-1.38,2.57-2.96,4.14v-1.18c-2.37,2.37-5.33,3.55-8.88,3.56h-2.96v1.18c-.39,0-.79-.2-1.18-.59l-4.74-1.78v15.39s-2.96-1.18-2.96-1.18v11.25s2.96,0,2.96,0v5.33c1.97,0,3.95,.59,5.92,1.78,5.13,1.97,9.08,4.93,11.84,8.87,1.18,1.98,2.17,3.94,2.96,5.92v-9.47c.39,1.18,.79,2.37,1.18,3.55v98.87c.01,1.97-.38,3.74-1.17,5.33v10.06c-.39,1.18-1.38,2.57-2.96,4.14-2.37,2.37-5.33,3.55-8.88,3.56h-2.96c-.39,0-.79-.2-1.18-.59l-4.74-1.78v-4.74s-2.96-1.18-2.96-1.18v45.59s-2.95-1.18-2.95-1.18v-21.9s-2.96-1.18-2.96-1.18v29.01s-5.92-2.36-5.92-2.36v-26.64s-2.96-1.18-2.96-1.18v3.55l-2.96-.59v-27.23s-2.96-1.18-2.96-1.18v3.55s-8.88-2.95-8.88-2.95v-8.88s-8.88-3.54-8.88-3.54v-2.96s-5.92-1.78-5.92-1.78v-26.64s-5.92-1.77-5.92-1.77v55.65s-2.95-1.18-2.95-1.18v-3.55s-11.84-4.73-11.84-4.73v-23.68s-11.84-4.73-11.84-4.73v-23.09s-11.84-4.74-11.84-4.74v7.7s-5.92-2.36-5.92-2.36v20.72s-5.92-2.37-5.92-2.37v4.14s-8.88-3.54-8.88-3.54v-11.25s-8.88-3.54-8.88-3.54v8.29s-14.8-5.91-14.8-5.91v8.29s-2.37-1.18-2.37-1.18c-1.58-.79-3.16-1.38-4.74-1.78-1.58-.78-3.16-1.97-4.74-3.54v-6.51c-2.76-1.98-4.93-4.54-6.51-7.7-1.97-3.55-2.96-7.7-2.96-12.43v-59.79c0-6.7,3.15-11.05,9.46-13.02v7.1c.79-.4,2.37-.59,4.74-.6l7.1,1.18v-8.29s8.88,1.77,8.88,1.77v-.59s5.92,1.18,5.92,1.18v-7.7s8.88,1.18,8.88,1.18v11.25s8.88,1.18,8.88,1.18v-4.14l5.92,1.18v-21.31s5.92,1.18,5.92,1.18v-7.1s11.84,1.78,11.84,1.78v23.09s11.84,1.77,11.84,1.77v23.68s11.84,1.77,11.84,1.77v3.55s2.96,.59,2.96,.59v-56.24s5.91,1.18,5.91,1.18v26.05s5.92,1.18,5.92,1.18v2.37l8.88,1.18v8.88s8.88,1.18,8.88,1.18v-3.55s2.96,.59,2.96,.59v26.64s2.96,.59,2.96,.59v-4.14l2.96,.59v-13.02s-2.96-1.18-2.96-1.18v-36.11s-2.96-1.18-2.96-1.18v-5.92s-11.84-4.73-11.84-4.73v-14.21s-8.88-3.54-8.88-3.54v-.59l-5.92-2.37v-36.11s-5.93-2.36-5.93-2.36v39.67s-2.95-1.18-2.95-1.18v8.88s-11.84-4.73-11.84-4.73v-56.83s-11.85-4.14-11.85-4.14v43.81s-11.84-4.74-11.84-4.74v7.7s-5.92-2.36-5.92-2.36v5.33s-5.92-1.78-5.92-1.78v1.78s-8.88-3.54-8.88-3.54v-11.84s-8.88-3.54-8.88-3.54v13.02s-5.92-2.37-5.92-2.37v-6.51s-8.88-3.54-8.88-3.54l-2.37-.59c-1.58-.79-3.16-1.58-4.74-2.37-1.58-.78-3.16-1.97-4.74-3.54v4.14c-2.76-1.98-4.93-4.54-6.51-7.7-1.97-3.55-2.96-7.7-2.96-12.43v-59.79c0-2.76,.78-5.33,2.36-7.7,1.58-2.76,3.95-4.34,7.1-4.74v-4.14c1.18-.79,2.76-.79,4.74,0l7.1,.59,8.88,1.77v5.92s5.92,1.18,5.92,1.18v-12.43s8.88,1.18,8.88,1.18v11.84s8.88,1.18,8.88,1.18v-1.78l5.92,.59v-5.33s5.92,.58,5.92,.58v-7.7s11.84,1.78,11.84,1.78v-43.81s11.84,1.77,11.84,1.77Zm53.31,276.44l5.92,1.18v-18.35s-5.92-2.36-5.92-2.36v19.54Zm8.88-46.19l-2.96-1.18v19.54s2.96,.59,2.96,.59v21.9h2.96v-38.48s-2.97-1.18-2.97-1.18v-1.18Z"/><path class="cls-8" d="M494.46,198.32v56.84s11.85,1.77,11.85,1.77v-8.88s2.96,.59,2.96,.59v-39.67s5.91,.59,5.91,.59v36.7s5.92,.59,5.92,.59v.59s8.88,1.18,8.88,1.18v14.8s8.88,1.18,8.88,1.18h2.96v6.51h2.96v36.71s2.96,.59,2.96,.59v20.13s5.92,.58,5.92,.58v-30.19s2.96,.59,2.96,.59v1.18l2.96,.59v-17.76s1.77,0,1.77,0c.4,0,.59,.19,.59,.59,0,0,.2,0,.59,0v-15.39c1.97,0,3.95,.59,5.92,1.78v-1.18c5.13,1.97,9.08,5.13,11.84,9.46v.59c1.18,1.98,2.17,3.94,2.96,5.92v1.78c.39,1.18,.79,2.37,1.18,3.55,0,1.18,0,2.56,0,4.14v94.72c.01,1.18-.38,2.96-1.17,5.33v-1.18c-.39,1.18-1.38,2.57-2.96,4.14v-1.18c-2.37,2.37-5.33,3.56-8.88,3.56h-2.96v1.18c-.39,0-.79-.2-1.18-.59l-4.74-1.78v15.39s-2.96-1.18-2.96-1.18v11.25s2.96,0,2.96,0v5.33c1.97,0,3.95,.59,5.92,1.78,5.13,1.97,9.08,4.93,11.84,8.87,1.18,1.98,2.17,3.94,2.96,5.92v-9.47c.39,1.18,.79,2.37,1.18,3.55v98.87c.01,1.97-.38,3.74-1.17,5.33v10.06c-.39,1.18-1.38,2.57-2.96,4.14-2.37,2.37-5.33,3.56-8.88,3.56h-2.96c-.39,0-.79-.2-1.18-.59l-4.74-1.78v-4.74s-2.96-1.18-2.96-1.18v45.59s-2.95-1.18-2.95-1.18v-21.9s-2.96-1.18-2.96-1.18v29.01s-5.92-2.36-5.92-2.36v-26.64s-2.96-1.18-2.96-1.18v3.55l-2.96-.59v-27.23s-2.96-1.18-2.96-1.18v3.55s-8.88-2.95-8.88-2.95v-8.88s-8.88-3.54-8.88-3.54v-2.96s-5.92-1.78-5.92-1.78v-26.64s-5.92-1.77-5.92-1.77v55.65s-2.95-1.18-2.95-1.18v-3.55s-11.84-4.73-11.84-4.73v-23.68s-11.84-4.73-11.84-4.73v-23.09s-11.84-4.74-11.84-4.74v7.7s-5.92-2.36-5.92-2.36v20.72s-5.92-2.37-5.92-2.37v4.14s-8.88-3.54-8.88-3.54v-11.25s-8.88-3.54-8.88-3.54v8.29s-14.8-5.91-14.8-5.91v8.29s-2.37-1.18-2.37-1.18c-1.58-.79-3.16-1.38-4.74-1.78-1.58-.78-3.16-1.97-4.74-3.54v-6.51c-2.76-1.98-4.93-4.54-6.51-7.7-1.97-3.55-2.96-7.7-2.96-12.43v-59.79c0-6.7,3.15-11.05,9.46-13.02v7.1c.79-.4,2.37-.59,4.74-.6l7.1,1.18v-8.29s8.88,1.77,8.88,1.77v-.59l5.92,1.18v-7.7s8.88,1.18,8.88,1.18v11.25s8.88,1.18,8.88,1.18v-4.14l5.92,1.18v-21.31s5.92,1.18,5.92,1.18v-7.1s11.84,1.78,11.84,1.78v23.09s11.84,1.77,11.84,1.77v23.68s11.84,1.77,11.84,1.77v3.55s2.96,.59,2.96,.59v-56.24s5.91,1.18,5.91,1.18v26.05s5.92,1.18,5.92,1.18v2.37l8.88,1.18v8.88s8.88,1.18,8.88,1.18v-3.55s2.96,.59,2.96,.59v26.64s2.96,.59,2.96,.59v-4.14l2.96,.59v-13.02s-2.96-1.18-2.96-1.18v-36.11s-2.96-1.18-2.96-1.18v-5.92s-11.84-4.73-11.84-4.73v-14.21s-8.88-3.54-8.88-3.54v-.59l-5.92-2.37v-36.11s-5.92-2.36-5.92-2.36v39.67s-2.96-1.18-2.96-1.18v8.88s-11.84-4.73-11.84-4.73v-56.83s-11.85-4.14-11.85-4.14v43.81s-11.84-4.74-11.84-4.74v7.7s-5.92-2.36-5.92-2.36v5.33l-5.92-1.78v1.78s-8.88-3.54-8.88-3.54v-11.84s-8.88-3.54-8.88-3.54v13.02s-5.92-2.37-5.92-2.37v-6.51s-8.88-3.54-8.88-3.54l-2.37-.59c-1.58-.79-3.16-1.58-4.74-2.37-1.58-.78-3.16-1.97-4.74-3.54v4.14c-2.76-1.98-4.93-4.54-6.51-7.7-1.97-3.55-2.96-7.7-2.96-12.43v-59.79c0-2.76,.78-5.33,2.36-7.7,1.58-2.76,3.95-4.34,7.1-4.74v-4.14c1.18-.79,2.76-.79,4.74,0l7.1,.59,8.88,1.77v5.92s5.92,1.18,5.92,1.18v-12.43s8.88,1.18,8.88,1.18v11.84s8.88,1.18,8.88,1.18v-1.78l5.92,.59v-5.33s5.92,.58,5.92,.58v-7.7s11.84,1.78,11.84,1.78v-43.81s11.84,1.77,11.84,1.77Zm53.31,276.44l5.92,1.18v-18.35s-5.92-2.36-5.92-2.36v19.54Zm8.88-46.19l-2.96-1.18v19.54s2.96,.59,2.96,.59v21.9h2.96v-38.48s-2.97-1.18-2.97-1.18v-1.18Z"/><path class="cls-8" d="M415.24,320.37v56.83s11.85,1.77,11.85,1.77v-8.88s2.96,.59,2.96,.59v-39.67s5.92,.58,5.92,.58v36.71s5.92,.59,5.92,.59v.59l8.88,1.18v14.8s8.88,1.18,8.88,1.18h2.96v6.51h2.96v36.71s2.96,.59,2.96,.59v20.13s5.92,.58,5.92,.58v-30.19s2.96,.59,2.96,.59v1.18s2.96,.59,2.96,.59v-17.76s1.77,0,1.77,0c.4,0,.59,.19,.59,.58h.59v-15.39c1.97,0,3.95,.59,5.92,1.78v-1.18c5.13,1.97,9.08,5.13,11.84,9.46v.59c1.18,1.98,2.17,3.94,2.96,5.92v1.78c.4,1.18,.79,2.37,1.18,3.55,0,1.18,0,2.56,0,4.14v94.72c.01,1.18-.38,2.96-1.17,5.33v-1.18c-.39,1.18-1.38,2.57-2.96,4.14v-1.18c-2.37,2.37-5.33,3.55-8.88,3.56h-2.96v1.18c-.39,0-.79-.2-1.18-.59l-4.74-1.78v15.39s-2.96-1.18-2.96-1.18v11.25s2.96,0,2.96,0v5.33c1.97,0,3.95,.59,5.92,1.78,5.13,1.97,9.08,4.93,11.84,8.87,1.18,1.98,2.17,3.94,2.96,5.92v-9.47c.39,1.18,.79,2.37,1.18,3.55,0,1.18,0,2.56,0,4.14v94.72c.01,1.97-.38,3.74-1.17,5.33v10.06c-.39,1.18-1.38,2.57-2.96,4.14-2.37,2.37-5.33,3.55-8.88,3.56h-2.96c-.39,0-.79-.2-1.18-.59l-4.74-1.78v-4.74s-2.96-1.18-2.96-1.18v45.59s-2.95-1.18-2.95-1.18v-21.9s-2.96-1.18-2.96-1.18v29.01s-5.92-2.36-5.92-2.36v-26.64s-2.96-1.18-2.96-1.18v3.55s-2.96-.59-2.96-.59v-27.23s-2.96-1.18-2.96-1.18v3.55s-8.88-2.95-8.88-2.95v-8.88s-8.88-3.54-8.88-3.54v-2.96l-5.92-1.78v-26.64s-5.92-1.77-5.92-1.77v55.65s-2.95-1.18-2.95-1.18v-3.55l-11.84-4.73v-23.68s-11.84-4.73-11.84-4.73v-23.09s-11.84-4.74-11.84-4.74v7.7s-5.92-2.36-5.92-2.36v20.72s-5.92-2.37-5.92-2.37v4.14l-8.88-3.54v-11.25s-8.88-3.54-8.88-3.54v8.29s-14.8-5.91-14.8-5.91v8.29s-2.37-1.18-2.37-1.18c-1.58-.79-3.16-1.38-4.74-1.78-1.58-.78-3.16-1.97-4.74-3.54v-6.51c-2.76-1.98-4.94-4.54-6.51-7.7-1.97-3.55-2.96-7.7-2.96-12.43v-59.79c0-6.7,3.15-11.05,9.46-13.02v7.1c.79-.4,2.37-.59,4.74-.6l7.1,1.18v-8.29s8.88,1.77,8.88,1.77v-.59l5.92,1.18v-7.7s8.88,1.18,8.88,1.18v11.25s8.88,1.18,8.88,1.18v-4.14l5.92,1.18v-21.31s5.92,1.18,5.92,1.18v-7.1s11.84,1.78,11.84,1.78v23.09s11.84,1.77,11.84,1.77v23.68s11.84,1.77,11.84,1.77v3.55l2.96,.59v-56.24s5.91,1.18,5.91,1.18v26.05s5.92,1.18,5.92,1.18v2.37l8.88,1.18v8.88s8.88,1.18,8.88,1.18v-3.55s2.96,.59,2.96,.59v26.64s2.96,.59,2.96,.59v-4.14s2.96,.59,2.96,.59v-13.02s-2.96-1.18-2.96-1.18v-36.11s-2.97-1.18-2.97-1.18v-5.92l-11.84-4.73v-14.21s-8.88-3.54-8.88-3.54v-.59l-5.92-2.37v-36.11s-5.92-2.36-5.92-2.36v39.67s-2.96-1.18-2.96-1.18v8.88s-11.84-4.73-11.84-4.73v-56.83s-11.85-4.14-11.85-4.14v43.81s-11.84-4.74-11.84-4.74v7.7s-5.92-2.36-5.92-2.36v5.33l-5.92-1.78v1.78l-8.88-3.54v-11.84s-8.88-3.54-8.88-3.54v13.02s-5.92-2.37-5.92-2.37v-6.51s-8.88-3.54-8.88-3.54l-2.37-.59c-1.58-.79-3.16-1.58-4.74-2.37-1.58-.78-3.16-1.97-4.74-3.54v4.14c-2.76-1.98-4.93-4.54-6.51-7.7-1.97-3.55-2.96-7.7-2.96-12.43v-59.79c0-2.76,.78-5.33,2.36-7.7,1.58-2.76,3.95-4.34,7.1-4.74v-4.14c1.18-.79,2.76-.79,4.74,0l7.11,.59,8.88,1.77v5.92s5.92,1.18,5.92,1.18v-12.43s8.88,1.18,8.88,1.18v11.84s8.88,1.18,8.88,1.18v-1.78l5.92,.59v-5.33s5.92,.58,5.92,.58v-7.7s11.84,1.78,11.84,1.78v-43.81s11.84,1.77,11.84,1.77Zm53.31,276.44l5.92,1.18v-18.35s-5.92-2.36-5.92-2.36v19.54Zm8.88-46.19l-2.96-1.18v19.54s2.96,.59,2.96,.59v21.9h2.96v-38.48s-2.96-1.18-2.96-1.18v-1.18Z"/><path class="cls-8" d="M335.15,198.32v56.84s11.85,1.77,11.85,1.77v-8.88s2.96,.59,2.96,.59v-39.67s5.92,.59,5.92,.59v36.7s5.92,.59,5.92,.59v.59l8.88,1.18v14.8s8.88,1.18,8.88,1.18h2.96v6.51h2.96v36.71s2.96,.59,2.96,.59v20.13s5.92,.58,5.92,.58v-30.19s2.96,.59,2.96,.59v1.18l2.96,.59v-17.76s1.77,0,1.77,0c.39,0,.59,.19,.59,.59,0,0,.2,0,.59,0v-15.39c1.97,0,3.94,.59,5.92,1.78v-1.18c5.13,1.97,9.08,5.13,11.84,9.46v.59c1.18,1.98,2.17,3.94,2.96,5.92v1.78c.4,1.18,.79,2.37,1.18,3.55,0,1.18,0,2.56,0,4.14v94.72c.01,1.18-.38,2.96-1.17,5.33v-1.18c-.39,1.18-1.38,2.57-2.96,4.14v-1.18c-2.37,2.37-5.33,3.56-8.88,3.56h-2.96v1.18c-.39,0-.79-.2-1.18-.59l-4.74-1.78v15.39s-2.96-1.18-2.96-1.18v11.25s2.96,0,2.96,0v5.33c1.97,0,3.95,.59,5.92,1.78,5.13,1.97,9.08,4.93,11.84,8.87,1.18,1.98,2.17,3.94,2.96,5.92v-9.47c.39,1.18,.79,2.37,1.18,3.55,0,1.18,0,2.56,0,4.14v94.72c.01,1.97-.38,3.74-1.17,5.33v10.06c-.39,1.18-1.38,2.57-2.96,4.14-2.37,2.37-5.33,3.56-8.88,3.56h-2.96c-.4,0-.79-.2-1.18-.59l-4.74-1.78v-4.74l-2.96-1.18v45.59s-2.95-1.18-2.95-1.18v-21.9s-2.96-1.18-2.96-1.18v29.01s-5.92-2.36-5.92-2.36v-26.64s-2.96-1.18-2.96-1.18v3.55s-2.96-.59-2.96-.59v-27.23s-2.96-1.18-2.96-1.18v3.55l-8.88-2.95v-8.88s-8.88-3.54-8.88-3.54v-2.96l-5.92-1.78v-26.64s-5.92-1.77-5.92-1.77v55.65s-2.95-1.18-2.95-1.18v-3.55l-11.84-4.73v-23.68s-11.84-4.73-11.84-4.73v-23.09s-11.84-4.74-11.84-4.74v7.7s-5.92-2.36-5.92-2.36v20.72s-5.92-2.37-5.92-2.37v4.14l-8.88-3.54v-11.25s-8.88-3.54-8.88-3.54v8.29s-14.8-5.91-14.8-5.91v8.29s-2.37-1.18-2.37-1.18c-1.58-.79-3.16-1.38-4.74-1.78-1.58-.78-3.16-1.97-4.74-3.54v-6.51c-2.76-1.98-4.93-4.54-6.51-7.7-1.97-3.55-2.96-7.7-2.96-12.43v-59.79c0-6.7,3.15-11.05,9.46-13.02v7.1c.79-.4,2.37-.59,4.74-.6l7.1,1.18v-8.29s8.88,1.77,8.88,1.77v-.59l5.92,1.18v-7.7s8.88,1.18,8.88,1.18v11.25s8.88,1.18,8.88,1.18v-4.14s5.92,1.18,5.92,1.18v-21.31s5.92,1.18,5.92,1.18v-7.1s11.84,1.78,11.84,1.78v23.09s11.84,1.77,11.84,1.77v23.68s11.84,1.77,11.84,1.77v3.55l2.96,.59v-56.24s5.91,1.18,5.91,1.18v26.05s5.92,1.18,5.92,1.18v2.37l8.88,1.18v8.88s8.88,1.18,8.88,1.18v-3.55l2.96,.59v26.64s2.96,.59,2.96,.59v-4.14s2.96,.59,2.96,.59v-13.02s-2.96-1.18-2.96-1.18v-36.11s-2.96-1.18-2.96-1.18v-5.92s-11.84-4.73-11.84-4.73v-14.21s-8.88-3.54-8.88-3.54v-.59l-5.92-2.37v-36.11s-5.92-2.36-5.92-2.36v39.67s-2.96-1.18-2.96-1.18v8.88s-11.84-4.73-11.84-4.73v-56.83s-11.85-4.14-11.85-4.14v43.81s-11.84-4.74-11.84-4.74v7.7s-5.92-2.36-5.92-2.36v5.33s-5.92-1.78-5.92-1.78v1.78l-8.88-3.54v-11.84s-8.88-3.54-8.88-3.54v13.02s-5.92-2.37-5.92-2.37v-6.51s-8.88-3.54-8.88-3.54l-2.37-.59c-1.58-.79-3.16-1.58-4.74-2.37-1.58-.78-3.16-1.97-4.74-3.54v4.14c-2.76-1.98-4.93-4.54-6.51-7.7-1.97-3.55-2.96-7.7-2.96-12.43v-59.79c0-2.76,.78-5.33,2.36-7.7,1.58-2.76,3.95-4.34,7.1-4.74v-4.14c1.18-.79,2.76-.79,4.74,0l7.1,.59,8.88,1.77v5.92l5.92,1.18v-12.43s8.88,1.18,8.88,1.18v11.84s8.88,1.18,8.88,1.18v-1.78l5.92,.59v-5.33s5.92,.58,5.92,.58v-7.7s11.84,1.78,11.84,1.78v-43.81s11.84,1.77,11.84,1.77Zm53.31,276.44l5.92,1.18v-18.35s-5.92-2.36-5.92-2.36v19.54Zm8.88-46.19l-2.96-1.18v19.54s2.96,.59,2.96,.59v21.9h2.96v-38.48s-2.96-1.18-2.96-1.18v-1.18Z"/><path class="cls-2" d="M268.12,320.37v56.83s11.85,1.77,11.85,1.77v-8.88s2.96,.59,2.96,.59v-39.67s5.92,.58,5.92,.58v36.71s5.92,.59,5.92,.59v.59l8.88,1.18v14.8s8.88,1.18,8.88,1.18h2.96v6.51h2.96v36.71s2.96,.59,2.96,.59v20.13s5.92,.58,5.92,.58v-30.19s2.96,.59,2.96,.59v1.18l2.96,.59v-17.76s1.77,0,1.77,0c.39,0,.59,.19,.59,.58h.59v-15.39c1.97,0,3.94,.59,5.92,1.78v-1.18c5.13,1.97,9.08,5.13,11.84,9.46v.59c1.18,1.98,2.17,3.94,2.96,5.92v1.78c.4,1.18,.79,2.37,1.18,3.55v98.87c.01,1.18-.38,2.96-1.17,5.33v-1.18c-.39,1.18-1.38,2.57-2.96,4.14v-1.18c-2.37,2.37-5.33,3.55-8.88,3.56h-2.96v1.18c-.4,0-.79-.2-1.18-.59l-4.74-1.78v15.39s-2.96-1.18-2.96-1.18v11.25s2.96,0,2.96,0v5.33c1.97,0,3.95,.59,5.92,1.78,5.13,1.97,9.08,4.93,11.84,8.87,1.18,1.98,2.17,3.94,2.96,5.92v-9.47c.39,1.18,.79,2.37,1.18,3.55,0,1.18,0,2.56,0,4.14v94.72c.01,1.97-.38,3.74-1.17,5.33v10.06c-.39,1.18-1.38,2.57-2.96,4.14-2.37,2.37-5.33,3.55-8.88,3.56h-2.96c-.4,0-.79-.2-1.18-.59l-4.74-1.78v-4.74l-2.96-1.18v45.59s-2.95-1.18-2.95-1.18v-21.9s-2.96-1.18-2.96-1.18v29.01s-5.92-2.36-5.92-2.36v-26.64s-2.96-1.18-2.96-1.18v3.55s-2.96-.59-2.96-.59v-27.23s-2.96-1.18-2.96-1.18v3.55l-8.88-2.95v-8.88s-8.88-3.54-8.88-3.54v-2.96l-5.92-1.78v-26.64s-5.92-1.77-5.92-1.77v55.65s-2.95-1.18-2.95-1.18v-3.55l-11.84-4.73v-23.68s-11.84-4.73-11.84-4.73v-23.09s-11.84-4.74-11.84-4.74v7.7s-5.92-2.36-5.92-2.36v20.72s-5.92-2.37-5.92-2.37v4.14l-8.88-3.54v-11.25s-8.88-3.54-8.88-3.54v8.29s-14.8-5.91-14.8-5.91v8.29s-2.37-1.18-2.37-1.18c-1.58-.79-3.16-1.38-4.74-1.78-1.58-.78-3.16-1.97-4.74-3.54v-6.51c-2.76-1.98-4.93-4.54-6.51-7.7-1.97-3.55-2.96-7.7-2.96-12.43v-59.79c0-6.7,3.15-11.05,9.46-13.02v7.1c.79-.4,2.37-.59,4.74-.6l7.1,1.18v-8.29s8.88,1.77,8.88,1.77v-.59l5.92,1.18v-7.7s8.88,1.18,8.88,1.18v11.25s8.88,1.18,8.88,1.18v-4.14s5.92,1.18,5.92,1.18v-21.31s5.92,1.18,5.92,1.18v-7.1s11.84,1.78,11.84,1.78v23.09s11.84,1.77,11.84,1.77v23.68s11.84,1.77,11.84,1.77v3.55l2.96,.59v-56.24s5.91,1.18,5.91,1.18v26.05s5.92,1.18,5.92,1.18v2.37l8.88,1.18v8.88s8.88,1.18,8.88,1.18v-3.55l2.96,.59v26.64s2.96,.59,2.96,.59v-4.14s2.96,.59,2.96,.59v-13.02s-2.96-1.18-2.96-1.18v-36.11s-2.96-1.18-2.96-1.18v-5.92s-11.84-4.73-11.84-4.73v-14.21s-8.88-3.54-8.88-3.54v-.59l-5.92-2.37v-36.11s-5.92-2.36-5.92-2.36v39.67s-2.96-1.18-2.96-1.18v8.88s-11.84-4.73-11.84-4.73v-56.83s-11.85-4.14-11.85-4.14v43.81s-11.84-4.74-11.84-4.74v7.7s-5.92-2.36-5.92-2.36v5.33s-5.92-1.78-5.92-1.78v1.78l-8.88-3.54v-11.84s-8.88-3.54-8.88-3.54v13.02s-5.92-2.37-5.92-2.37v-6.51s-8.88-3.54-8.88-3.54l-2.37-.59c-1.58-.79-3.16-1.58-4.74-2.37-1.58-.78-3.16-1.97-4.74-3.54v4.14c-2.76-1.98-4.93-4.54-6.51-7.7-1.97-3.55-2.96-7.7-2.96-12.43v-59.79c0-2.76,.78-5.33,2.36-7.7,1.58-2.76,3.95-4.34,7.1-4.74v-4.14c1.18-.79,2.76-.79,4.74,0l7.1,.59,8.88,1.77v5.92s5.92,1.18,5.92,1.18v-12.43s8.88,1.18,8.88,1.18v11.84s8.88,1.18,8.88,1.18v-1.78s5.92,.59,5.92,.59v-5.33l5.92,.58v-7.7s11.84,1.78,11.84,1.78v-43.81s11.84,1.77,11.84,1.77Zm53.31,276.44l5.92,1.18v-18.35s-5.92-2.36-5.92-2.36v19.54Zm8.88-46.19l-2.96-1.18v19.54s2.96,.59,2.96,.59v21.9h2.96v-38.48s-2.96-1.18-2.96-1.18v-1.18Z"/><path class="cls-2" d="M207.18,198.32v56.84s11.85,1.77,11.85,1.77v-8.88s2.96,.59,2.96,.59v-39.67s5.92,.59,5.92,.59v36.7s5.92,.59,5.92,.59v.59l8.88,1.18v14.8s8.88,1.18,8.88,1.18h2.96v6.51h2.96v36.71s2.96,.59,2.96,.59v20.13s5.92,.58,5.92,.58v-30.19s2.96,.59,2.96,.59v1.18l2.96,.59v-17.76s1.77,0,1.77,0c.39,0,.59,.19,.59,.59,0,0,.2,0,.59,0v-15.39c1.97,0,3.94,.59,5.92,1.78v-1.18c5.13,1.97,9.08,5.13,11.84,9.46v.59c1.18,1.98,2.17,3.94,2.96,5.92v1.78c.4,1.18,.79,2.37,1.18,3.55v98.87c.01,1.18-.38,2.96-1.17,5.33v-1.18c-.4,1.18-1.38,2.57-2.96,4.14v-1.18c-2.37,2.37-5.33,3.56-8.88,3.56h-2.96v1.18c-.39,0-.79-.2-1.18-.59l-4.74-1.78v15.39s-2.96-1.18-2.96-1.18v11.25s2.96,0,2.96,0v5.33c1.97,0,3.95,.59,5.92,1.78,5.13,1.97,9.08,4.93,11.84,8.87,1.18,1.98,2.17,3.94,2.96,5.92v-9.47c.39,1.18,.79,2.37,1.18,3.55v98.87c.01,1.97-.38,3.74-1.17,5.33v10.06c-.39,1.18-1.38,2.57-2.96,4.14-2.37,2.37-5.33,3.56-8.88,3.56h-2.96c-.39,0-.79-.2-1.18-.59l-4.74-1.78v-4.74s-2.96-1.18-2.96-1.18v45.59s-2.95-1.18-2.95-1.18v-21.9s-2.96-1.18-2.96-1.18v29.01s-5.92-2.36-5.92-2.36v-26.64s-2.96-1.18-2.96-1.18v3.55l-2.96-.59v-27.23s-2.96-1.18-2.96-1.18v3.55l-8.88-2.95v-8.88s-8.88-3.54-8.88-3.54v-2.96l-5.92-1.78v-26.64s-5.92-1.77-5.92-1.77v55.65s-2.95-1.18-2.95-1.18v-3.55s-11.84-4.73-11.84-4.73v-23.68s-11.84-4.73-11.84-4.73v-23.09s-11.84-4.74-11.84-4.74v7.7s-5.92-2.36-5.92-2.36v20.72s-5.92-2.37-5.92-2.37v4.14s-8.88-3.54-8.88-3.54v-11.25s-8.88-3.54-8.88-3.54v8.29s-14.8-5.91-14.8-5.91v8.29s-2.37-1.18-2.37-1.18c-1.58-.79-3.16-1.38-4.74-1.78-1.58-.78-3.16-1.97-4.74-3.54v-6.51c-2.76-1.98-4.93-4.54-6.51-7.7-1.97-3.55-2.96-7.7-2.96-12.43v-59.79c0-6.7,3.15-11.05,9.46-13.02v7.1c.79-.4,2.37-.59,4.74-.6l7.11,1.18v-8.29s8.88,1.77,8.88,1.77v-.59l5.92,1.18v-7.7s8.88,1.18,8.88,1.18v11.25s8.88,1.18,8.88,1.18v-4.14s5.92,1.18,5.92,1.18v-21.31s5.92,1.18,5.92,1.18v-7.1s11.84,1.78,11.84,1.78v23.09s11.84,1.77,11.84,1.77v23.68s11.84,1.77,11.84,1.77v3.55l2.96,.59v-56.24s5.91,1.18,5.91,1.18v26.05s5.92,1.18,5.92,1.18v2.37s8.88,1.18,8.88,1.18v8.88s8.88,1.18,8.88,1.18v-3.55l2.96,.59v26.64s2.96,.59,2.96,.59v-4.14l2.96,.59v-13.02s-2.96-1.18-2.96-1.18v-36.11s-2.96-1.18-2.96-1.18v-5.92s-11.84-4.73-11.84-4.73v-14.21s-8.88-3.54-8.88-3.54v-.59l-5.92-2.37v-36.11s-5.92-2.36-5.92-2.36v39.67s-2.96-1.18-2.96-1.18v8.88s-11.84-4.73-11.84-4.73v-56.83s-11.85-4.14-11.85-4.14v43.81s-11.84-4.74-11.84-4.74v7.7s-5.92-2.36-5.92-2.36v5.33s-5.92-1.78-5.92-1.78v1.78l-8.88-3.54v-11.84s-8.88-3.54-8.88-3.54v13.02s-5.92-2.37-5.92-2.37v-6.51s-8.88-3.54-8.88-3.54l-2.37-.59c-1.58-.79-3.16-1.58-4.74-2.37-1.58-.78-3.16-1.97-4.74-3.54v4.14c-2.76-1.98-4.93-4.54-6.51-7.7-1.97-3.55-2.96-7.7-2.96-12.43v-59.79c0-2.76,.78-5.33,2.36-7.7,1.58-2.76,3.95-4.34,7.1-4.74v-4.14c1.18-.79,2.76-.79,4.74,0l7.1,.59,8.88,1.77v5.92s5.92,1.18,5.92,1.18v-12.43s8.88,1.18,8.88,1.18v11.84s8.88,1.18,8.88,1.18v-1.78l5.92,.59v-5.33l5.92,.58v-7.7s11.84,1.78,11.84,1.78v-43.81s11.84,1.77,11.84,1.77Zm53.31,276.44l5.92,1.18v-18.35s-5.92-2.36-5.92-2.36v19.54Zm8.88-46.19l-2.96-1.18v19.54s2.96,.59,2.96,.59v21.9h2.96v-38.48s-2.97-1.18-2.97-1.18v-1.18Z"/><path class="cls-1" d="M127.96,351.39v56.83s11.85,1.78,11.85,1.78v-8.88s2.96,.58,2.96,.58v-39.67s5.92,.59,5.92,.59v36.71s5.92,.58,5.92,.58v.59l8.88,1.18v14.8s8.88,1.18,8.88,1.18h2.96v6.51h2.96v36.71s2.96,.58,2.96,.58v20.13s5.92,.59,5.92,.59v-30.19s2.96,.59,2.96,.59v1.18l2.96,.59v-17.76s1.77,0,1.77,0c.39,0,.59,.2,.59,.59h.59v-15.39c1.97,0,3.94,.59,5.92,1.78v-1.18c5.13,1.97,9.08,5.12,11.84,9.46v.59c1.18,1.98,2.17,3.94,2.96,5.92v1.78c.39,1.18,.79,2.37,1.18,3.55,0,1.18,0,2.56,0,4.14v94.72c.01,1.18-.38,2.96-1.17,5.33v-1.18c-.4,1.18-1.38,2.56-2.96,4.14v-1.18c-2.37,2.37-5.33,3.55-8.88,3.56h-2.96v1.18c-.39,0-.79-.2-1.18-.59l-4.74-1.78v15.39s-2.96-1.18-2.96-1.18v11.25s2.96,0,2.96,0v5.33c1.97,0,3.95,.59,5.92,1.78,5.13,1.97,9.08,4.93,11.84,8.87,1.18,1.98,2.17,3.94,2.96,5.92v-9.47c.39,1.18,.79,2.37,1.18,3.55v98.87c.01,1.97-.38,3.74-1.17,5.33v10.06c-.39,1.18-1.38,2.56-2.96,4.14-2.37,2.37-5.33,3.55-8.88,3.56h-2.96c-.39,0-.79-.2-1.18-.59l-4.74-1.78v-4.74s-2.96-1.18-2.96-1.18v45.59s-2.95-1.18-2.95-1.18v-21.9s-2.96-1.18-2.96-1.18v29.01s-5.92-2.37-5.92-2.37v-26.64s-2.96-1.18-2.96-1.18v3.55l-2.96-.59v-27.23s-2.96-1.18-2.96-1.18v3.55s-8.88-2.95-8.88-2.95v-8.88s-8.88-3.55-8.88-3.55v-2.96s-5.92-1.77-5.92-1.77v-26.64s-5.92-1.78-5.92-1.78v55.65s-2.95-1.18-2.95-1.18v-3.55s-11.84-4.74-11.84-4.74v-23.68s-11.84-4.73-11.84-4.73v-23.09s-11.84-4.73-11.84-4.73v7.7s-5.92-2.36-5.92-2.36v20.72s-5.92-2.37-5.92-2.37v4.14s-8.88-3.54-8.88-3.54v-11.25s-8.88-3.54-8.88-3.54v8.29s-14.8-5.91-14.8-5.91v8.29s-2.37-1.18-2.37-1.18c-1.58-.79-3.16-1.38-4.74-1.78-1.58-.78-3.16-1.97-4.74-3.54v-6.51c-2.76-1.98-4.93-4.54-6.51-7.7-1.97-3.55-2.96-7.7-2.96-12.43v-59.79c0-6.7,3.15-11.05,9.46-13.02v7.1c.79-.4,2.37-.6,4.74-.6l7.1,1.18v-8.29s8.88,1.77,8.88,1.77v-.59s5.92,1.18,5.92,1.18v-7.7s8.88,1.18,8.88,1.18v11.25s8.88,1.18,8.88,1.18v-4.14l5.92,1.18v-21.31s5.92,1.18,5.92,1.18v-7.1s11.84,1.77,11.84,1.77v23.09s11.84,1.77,11.84,1.77v23.68s11.84,1.78,11.84,1.78v3.55s2.96,.58,2.96,.58v-56.24s5.91,1.18,5.91,1.18v26.05s5.92,1.18,5.92,1.18v2.37l8.88,1.18v8.88s8.88,1.18,8.88,1.18v-3.55s2.96,.59,2.96,.59v26.64s2.96,.59,2.96,.59v-4.14l2.96,.58v-13.02s-2.96-1.18-2.96-1.18v-36.11s-2.96-1.18-2.96-1.18v-5.92s-11.84-4.73-11.84-4.73v-14.21s-8.88-3.55-8.88-3.55v-.59l-5.92-2.36v-36.11s-5.93-2.37-5.93-2.37v39.67s-2.95-1.18-2.95-1.18v8.88s-11.84-4.74-11.84-4.74v-56.83s-11.85-4.14-11.85-4.14v43.81s-11.84-4.73-11.84-4.73v7.7s-5.92-2.36-5.92-2.36v5.33s-5.92-1.78-5.92-1.78v1.78s-8.88-3.54-8.88-3.54v-11.84s-8.88-3.54-8.88-3.54v13.02s-5.92-2.37-5.92-2.37v-6.51s-8.88-3.54-8.88-3.54l-2.37-.59c-1.58-.79-3.16-1.58-4.74-2.37-1.58-.78-3.16-1.97-4.74-3.54v4.14c-2.76-1.98-4.93-4.54-6.51-7.7-1.97-3.55-2.96-7.7-2.96-12.43v-59.79c0-2.76,.78-5.33,2.36-7.7,1.58-2.76,3.95-4.34,7.1-4.74v-4.14c1.18-.79,2.76-.79,4.74,0l7.1,.59,8.88,1.77v5.92s5.92,1.18,5.92,1.18v-12.43s8.88,1.18,8.88,1.18v11.84s8.88,1.18,8.88,1.18v-1.78l5.92,.59v-5.33s5.92,.58,5.92,.58v-7.7s11.84,1.77,11.84,1.77v-43.81s11.84,1.77,11.84,1.77Zm53.31,276.44l5.92,1.18v-18.35s-5.92-2.37-5.92-2.37v19.54Zm8.88-46.18l-2.96-1.18v19.54s2.96,.59,2.96,.59v21.9h2.96v-38.48s-2.97-1.18-2.97-1.18v-1.18Z"/><path class="cls-1" d="M68.77,92.83v56.83s11.85,1.77,11.85,1.77v-8.88s2.96,.59,2.96,.59v-39.67s5.91,.59,5.91,.59v36.71s5.92,.59,5.92,.59v.59s8.88,1.18,8.88,1.18v14.8s8.88,1.18,8.88,1.18h2.96s0,6.51,0,6.51h2.96s0,36.7,0,36.7l2.96,.59v20.13s5.92,.59,5.92,.59v-30.19s2.96,.59,2.96,.59v1.18l2.96,.59v-17.76s1.77,0,1.77,0c.4,0,.59,.2,.59,.59h.59v-15.39c1.97,0,3.95,.59,5.92,1.77v-1.18c5.13,1.97,9.08,5.13,11.84,9.46v.59c1.18,1.97,2.17,3.95,2.96,5.92v1.78c.39,1.18,.79,2.37,1.18,3.55,0,1.18,0,2.57,0,4.14v94.73c.01,1.18-.38,2.96-1.17,5.33v-1.18c-.39,1.18-1.38,2.56-2.96,4.14v-1.18c-2.37,2.37-5.33,3.55-8.88,3.56h-2.96v1.18c-.39,0-.79-.2-1.18-.59l-4.74-1.78v15.39s-2.96-1.18-2.96-1.18v11.25s2.96,0,2.96,0v5.33c1.97,0,3.95,.59,5.92,1.78,5.13,1.97,9.08,4.93,11.84,8.87,1.18,1.97,2.17,3.94,2.96,5.92v-9.47c.39,1.18,.79,2.37,1.18,3.55v98.87c.01,1.97-.38,3.74-1.17,5.33v10.06c-.39,1.18-1.38,2.56-2.96,4.14-2.37,2.37-5.33,3.55-8.88,3.56h-2.96c-.39,0-.79-.2-1.18-.59l-4.74-1.78v-4.74s-2.96-1.18-2.96-1.18v45.59s-2.95-1.18-2.95-1.18v-21.9s-2.96-1.18-2.96-1.18v29.01s-5.92-2.37-5.92-2.37v-26.64s-2.96-1.18-2.96-1.18v3.55l-2.96-.59v-27.23s-2.96-1.18-2.96-1.18v3.55s-8.88-2.95-8.88-2.95v-8.88s-8.88-3.55-8.88-3.55v-2.96s-5.92-1.77-5.92-1.77v-26.64s-5.92-1.78-5.92-1.78v55.65s-2.95-1.18-2.95-1.18v-3.55s-11.84-4.74-11.84-4.74v-23.68s-11.84-4.73-11.84-4.73v-23.09s-11.84-4.73-11.84-4.73v7.7s-5.92-2.36-5.92-2.36v20.72s-5.92-2.37-5.92-2.37v4.14s-8.88-3.54-8.88-3.54v-11.25s-8.88-3.54-8.88-3.54v8.29s-14.8-5.91-14.8-5.91v8.29s-2.37-1.18-2.37-1.18c-1.58-.79-3.16-1.38-4.74-1.78-1.58-.78-3.16-1.97-4.74-3.54v-6.51c-2.76-1.98-4.93-4.54-6.51-7.7-1.97-3.55-2.96-7.7-2.96-12.43v-59.79c0-6.7,3.15-11.05,9.46-13.02v7.1c.79-.4,2.37-.6,4.74-.6l7.1,1.18v-8.29s8.88,1.77,8.88,1.77v-.59s5.92,1.18,5.92,1.18v-7.7s8.88,1.18,8.88,1.18v11.25s8.88,1.18,8.88,1.18v-4.14s5.92,1.18,5.92,1.18v-21.31s5.92,1.18,5.92,1.18v-7.1s11.84,1.77,11.84,1.77v23.09s11.84,1.77,11.84,1.77v23.68s11.84,1.78,11.84,1.78v3.55s2.96,.58,2.96,.58v-56.24s5.91,1.18,5.91,1.18v26.05s5.92,1.18,5.92,1.18v2.37l8.88,1.18v8.88s8.88,1.18,8.88,1.18v-3.55s2.96,.59,2.96,.59v26.64s2.96,.59,2.96,.59v-4.14l2.96,.58v-13.02s-2.96-1.18-2.96-1.18v-36.11s-2.96-1.18-2.96-1.18v-5.92s-11.84-4.73-11.84-4.73v-14.21s-8.88-3.55-8.88-3.55v-.59l-5.92-2.36v-36.11s-5.92-2.37-5.92-2.37v39.66s-2.96-1.18-2.96-1.18v8.88s-11.84-4.74-11.84-4.74v-56.83s-11.85-4.14-11.85-4.14v43.81s-11.84-4.73-11.84-4.73v7.7s-5.92-2.36-5.92-2.36v5.33s-5.92-1.78-5.92-1.78v1.78s-8.88-3.54-8.88-3.54v-11.84s-8.88-3.54-8.88-3.54v13.02s-5.92-2.37-5.92-2.37v-6.51s-8.88-3.54-8.88-3.54l-2.37-.59c-1.58-.79-3.16-1.58-4.74-2.37-1.58-.78-3.16-1.97-4.74-3.54v4.14c-2.76-1.98-4.93-4.54-6.51-7.7-1.97-3.55-2.96-7.69-2.96-12.43v-59.79c0-2.76,.78-5.33,2.36-7.7,1.58-2.76,3.95-4.34,7.1-4.74v-4.14c1.18-.79,2.76-.79,4.74,0l7.1,.59,8.88,1.77v5.92s5.92,1.18,5.92,1.18v-12.43s8.88,1.18,8.88,1.18v11.84s8.88,1.18,8.88,1.18v-1.78s5.92,.59,5.92,.59v-5.33s5.92,.59,5.92,.59v-7.7s11.84,1.77,11.84,1.77v-43.81s11.84,1.77,11.84,1.77Zm53.31,276.43l5.92,1.18v-18.35s-5.92-2.37-5.92-2.37v19.54Zm8.88-46.18l-2.96-1.18v19.54s2.96,.59,2.96,.59v21.9h2.96v-38.48s-2.97-1.18-2.97-1.18v-1.18Z"/></g></svg>