<svg width="206" height="180" viewBox="0 0 206 180" fill="none" xmlns="http://www.w3.org/2000/svg">
<path d="M178.798 101.057L177.731 101.202L181.179 107.294L180.112 107.438L176.368 100.824L174.234 101.113L175.219 102.854L173.084 103.143L172.296 101.75L169.094 102.184L168.7 101.487L165.498 101.921L164.218 99.6581L159.948 100.236L163.593 106.676L161.459 106.965L159.193 102.962L155.991 103.395L155.302 102.177L150.934 102.581L151.525 103.625L148.224 103.884L149.013 105.277L147.945 105.421L146.271 102.462L145.203 102.607L148.848 109.047L146.714 109.336L144.349 105.158L140.08 105.736L140.967 107.303L136.698 107.881L137.19 108.751L133.988 109.184L130.639 103.266L128.406 103.381L130.179 106.514L126.977 106.948L123.43 100.682L119.161 101.26L123.989 109.788L120.787 110.222L119.407 107.785L115.04 108.189L115.335 108.711L112.133 109.144L112.035 108.97L109.802 109.085L109.9 109.259L106.698 109.693L105.533 109.663L105.927 110.359L103.792 110.648L105.565 113.781L101.296 114.359L97.9465 108.441L93.6773 109.019L94.3669 110.238L89.9992 110.641L96.4028 121.955L94.1696 122.07L95.1548 123.81L90.8856 124.388L84.7776 113.597L82.643 113.886L80.4757 110.057L78.3411 110.346L79.5233 112.434L75.2541 113.012L75.7467 113.882L73.6121 114.171L73.3165 113.649L70.1146 114.083L70.5087 114.779L66.141 115.183L66.338 115.531L65.2707 115.675L62.3152 110.454L60.1806 110.743L60.0821 110.568L55.8129 111.146L59.852 118.283L56.5516 118.542L55.665 116.975L54.5977 117.12L54.0066 116.076L49.7374 116.653L49.6389 116.479L47.5043 116.768L47.7013 117.116L43.3336 117.52L44.4173 119.435L43.35 119.579L43.2515 119.405L40.0496 119.839L38.8674 117.75L37.8001 117.895L35.7312 114.239L33.5966 114.528L32.907 113.31L30.7724 113.599L31.8561 115.514L30.6903 115.484L34.2369 121.75L32.1023 122.039L29.8364 118.036L26.6345 118.469L27.1271 119.339L26.5064 119.461L23.8267 119.599L23.7282 119.425C22.7692 119.354 21.8607 119.103 21.0025 118.669L24.6475 125.109C23.7893 124.676 23.1709 124.26 22.7921 123.861L19.8366 118.64C19.0288 118.024 18.2636 117.079 17.5412 115.802L4.63564 93.0012C4.24158 92.3049 4.05441 91.5682 4.07413 90.791L7.0296 96.0126C7.01428 95.7149 7.10734 95.2026 7.30877 94.4757L3.66369 88.0357C4.0972 87.1775 4.54602 86.6171 5.01016 86.3544L5.70638 85.9603C6.17052 85.6976 6.75836 85.5181 7.46989 85.4218L7.91651 85.3988L7.32542 84.3545L10.5273 83.9211L12.7932 87.9243L15.0263 87.8094L11.4797 81.5435L12.547 81.399L11.5619 79.6585L13.6965 79.3695L14.2876 80.4138L16.4222 80.1249L18.5895 83.9541L19.6568 83.8096L20.7405 85.7242L23.9424 85.2908L24.0409 85.4648L25.1082 85.3204L24.123 83.5798L28.3922 83.0019L28.1952 82.6538L30.3298 82.3649L30.4283 82.5389L34.6975 81.9611L35.2886 83.0054L36.3559 82.8609L37.3411 84.6014L40.543 84.168L36.5038 77.0318L40.773 76.4539L40.8715 76.628L43.0061 76.3391L45.9616 81.5607L47.0289 81.4162L46.8319 81.0681L51.1996 80.6643L50.8055 79.968L54.0074 79.5346L54.303 80.0568L56.4376 79.7678L55.8465 78.7235L60.2142 78.3197L59.032 76.231L61.1666 75.9421L63.3339 79.7713L65.4685 79.4823L71.478 90.0996L75.7472 89.5217L74.8606 87.9552L76.9952 87.6663L70.6902 76.5269L74.9593 75.949L74.2697 74.7306L78.6375 74.3268L81.8885 80.0705L86.1577 79.4927L84.3844 76.3597L86.519 76.0708L86.2234 75.5486L92.6272 74.6818L92.7257 74.8558L95.9276 74.4224L95.6321 73.9002L99.9998 73.4964L101.379 75.9332L104.581 75.4997L99.7537 66.9711L104.023 66.3932L107.471 72.4851L110.771 72.2257L108.998 69.0928L111.133 68.8038L114.581 74.8957L117.783 74.4623L117.191 73.418L121.559 73.0141L120.574 71.2736L124.942 70.8698L127.306 75.0471L129.441 74.7581L125.796 68.3181L126.863 68.1737L128.439 70.9585L129.507 70.8141L128.817 69.5957L132.019 69.1623L131.526 68.292L135.795 67.7141L136.485 68.9325L139.687 68.4991L141.953 72.5023L144.186 72.3874L140.442 65.7734L144.712 65.1955L145.992 67.4582L149.194 67.0248L149.588 67.721L152.79 67.2876L153.578 68.68L155.713 68.3911L154.728 66.6505L156.862 66.3616L160.606 72.9756L161.673 72.8311L158.225 66.7393L159.292 66.5948L155.155 59.2845L157.289 58.9956L160.048 63.8691L164.415 63.4653L167.075 68.1647L168.143 68.0202L165.778 63.843L170.048 63.2651L167.683 59.0878L168.75 58.9433L171.903 64.513L174.038 64.2241L172.56 61.6133L174.694 61.3243L173.02 58.3654L176.222 57.932L178.684 62.2834L180.198 62.1159C180.678 62.1509 181.124 62.128 181.538 62.047C182.134 62.0163 182.704 62.0766 183.249 62.2276L181.771 59.6168C182.912 59.7373 184.068 60.1555 185.239 60.8714C186.411 61.5873 187.423 62.6995 188.277 64.208L201.478 87.5312C202.595 89.5038 202.331 91.3384 200.686 93.0351L202.066 95.4719C201.899 95.7193 201.642 95.9415 201.294 96.1385C200.83 96.4012 200.242 96.5807 199.53 96.677L198.191 96.746L195.826 92.5687L192.526 92.828L194.299 95.961L192.066 96.0759L193.544 98.6867L191.409 98.9756L188.257 93.4059L187.189 93.5504L189.554 97.7277L185.284 98.3056L187.649 102.483L186.582 102.627L183.922 97.9279L179.554 98.3317L176.795 93.4582L174.661 93.7472L178.798 101.057Z" fill="#F2D852" fill-opacity="0.6"/>
</svg>
