<svg width="148" height="75" viewBox="0 0 148 75" fill="none" xmlns="http://www.w3.org/2000/svg">
<path d="M96.2 50.74H82.76L82.34 53.54H84.44L84.3 54.24H93.68L93.54 55.64H84.86L84.72 57.04H84.58L84.3 59.14H80.8L80.52 61.24V61.94H78.98V62.64H70.3L70.16 63.34H65.4L65.26 64.74H72.4L72.26 65.44H71.98L71.84 66.14H76.04V66.56C76.04 66.6533 75.9933 66.7 75.9 66.7C75.9 66.7 75.9 66.7467 75.9 66.84H79.54C79.54 67.3067 79.4 67.7733 79.12 68.24H79.4C78.9333 69.4533 78.1867 70.3867 77.16 71.04H77.02C76.5533 71.32 76.0867 71.5533 75.62 71.74H75.2C74.92 71.8333 74.64 71.9267 74.36 72.02C74.08 72.02 73.7533 72.02 73.38 72.02H50.98C50.7 72.02 50.28 71.9267 49.72 71.74H50C49.72 71.6467 49.3933 71.4133 49.02 71.04H49.3C48.74 70.48 48.46 69.78 48.46 68.94V68.24H48.18C48.18 68.1467 48.2267 68.0533 48.32 67.96L48.74 66.84H45.1L45.38 66.14H42.72V66.84H41.46C41.46 67.3067 41.32 67.7733 41.04 68.24C40.5733 69.4533 39.8733 70.3867 38.94 71.04C38.4733 71.32 38.0067 71.5533 37.54 71.74H39.78C39.5 71.8333 39.22 71.9267 38.94 72.02C38.66 72.02 38.3333 72.02 37.96 72.02H15.56C15.0933 72.02 14.6733 71.9267 14.3 71.74H11.92C11.64 71.6467 11.3133 71.4133 10.94 71.04C10.38 70.48 10.1 69.78 10.1 68.94V68.24C10.1 68.1467 10.1467 68.0533 10.24 67.96L10.66 66.84H11.78L12.06 66.14H1.28L1.56 65.44H6.74L7.02 64.74H0.16L0.72 63.34H7.02L7.3 62.64H6.46L6.6 61.94H13.04L13.32 61.24H12.48L13.18 59.14H15.28L16.12 57.04H16.82L17.24 55.64H23.54L23.96 54.24H10.8L11.08 53.54H11.92L13.04 50.74H18.64L19.76 47.94H25.22L26.34 45.14H24.52L25.08 43.74H20.18L20.74 42.34H19.76L20.6 40.24H23.26L24.1 38.14H22.14L23.54 34.64H21.58L21.86 34.08C22.0467 33.7067 22.1867 33.3333 22.28 32.96C22.4667 32.5867 22.7467 32.2133 23.12 31.84H24.66C25.1267 31.1867 25.7333 30.6733 26.48 30.3C27.32 29.8333 28.3 29.6 29.42 29.6H43.56C45.1467 29.6 46.1733 30.3467 46.64 31.84H44.96C45.0533 32.0267 45.1 32.4 45.1 32.96L44.82 34.64H46.78L46.36 36.74H46.5L46.22 38.14H48.04L47.76 40.24H45.1L44.82 42.34H45.8L45.52 43.74H50.56L50.28 45.14H51.96L51.54 47.94H46.08L45.66 50.74H40.06L39.64 53.54H38.8L38.66 54.24H51.96L51.68 55.64H45.52L45.24 57.04H44.68L44.4 59.14H42.3L42.02 61.24H42.86L42.72 61.94H36.42L36.28 62.64H37.26L37.12 63.34H40.2L40.48 62.64H49.02L49.3 61.94H50.7L51.82 59.14H55.18L56.02 57.04H56.16L56.72 55.64H65.26L65.82 54.24H56.44L56.72 53.54H54.62L55.74 50.74H69.18L70.16 47.94H59.8L60.92 45.14H59.1L59.66 43.74H58.4L58.82 42.34H58.4L59.24 40.24H62.04L62.88 38.14H59.8L60.36 36.74H61.9L62.74 34.64L62.88 34.08C63.0667 33.7067 63.2533 33.3333 63.44 32.96C63.6267 32.5867 63.9067 32.2133 64.28 31.84H63.3C63.7667 31.1867 64.3733 30.6733 65.12 30.3C65.96 29.8333 66.94 29.6 68.06 29.6H82.2C82.8533 29.6 83.46 29.7867 84.02 30.16C84.6733 30.5333 85.0467 31.0933 85.14 31.84H86.12C86.3067 32.12 86.3067 32.4933 86.12 32.96L85.98 34.64L85.56 36.74H84.16L83.88 38.14H86.82L86.54 40.24H83.74L83.46 42.34H83.88L83.74 43.74H85L84.86 45.14H86.68L86.26 47.94H96.62L96.2 50.74ZM30.82 63.34L30.54 64.74H34.88L35.44 63.34H30.82ZM41.74 65.44L42.02 64.74H37.4L37.26 65.44H32.08V66.14H41.18L41.46 65.44H41.74Z" fill="#F2A71B"/>
<path d="M104.9 54.33H92.42L92.03 56.93H93.98L93.85 57.58H102.56L102.43 58.88H94.37L94.24 60.18H94.11L93.85 62.13H90.6L90.34 64.08V64.73H88.91V65.38H80.85L80.72 66.03H76.3L76.17 67.33H82.8L82.67 67.98H82.41L82.28 68.63H86.18V69.02C86.18 69.1067 86.1367 69.15 86.05 69.15C86.05 69.15 86.05 69.1933 86.05 69.28H89.43C89.43 69.7133 89.3 70.1467 89.04 70.58H89.3C88.8667 71.7067 88.1733 72.5733 87.22 73.18H87.09C86.6567 73.44 86.2233 73.6567 85.79 73.83H85.4C85.14 73.9167 84.88 74.0033 84.62 74.09C84.36 74.09 84.0567 74.09 83.71 74.09H62.91C62.65 74.09 62.26 74.0033 61.74 73.83H62C61.74 73.7433 61.4367 73.5267 61.09 73.18H61.35C60.83 72.66 60.57 72.01 60.57 71.23V70.58H60.31C60.31 70.4933 60.3533 70.4067 60.44 70.32L60.83 69.28H57.45L57.71 68.63H55.24V69.28H54.07C54.07 69.7133 53.94 70.1467 53.68 70.58C53.2467 71.7067 52.5967 72.5733 51.73 73.18C51.2967 73.44 50.8633 73.6567 50.43 73.83H52.51C52.25 73.9167 51.99 74.0033 51.73 74.09C51.47 74.09 51.1667 74.09 50.82 74.09H30.02C29.5867 74.09 29.1967 74.0033 28.85 73.83H26.64C26.38 73.7433 26.0767 73.5267 25.73 73.18C25.21 72.66 24.95 72.01 24.95 71.23V70.58C24.95 70.4933 24.9933 70.4067 25.08 70.32L25.47 69.28H26.51L26.77 68.63H16.76L17.02 67.98H21.83L22.09 67.33H15.72L16.24 66.03H22.09L22.35 65.38H21.57L21.7 64.73H27.68L27.94 64.08H27.16L27.81 62.13H29.76L30.54 60.18H31.19L31.58 58.88H37.43L37.82 57.58H25.6L25.86 56.93H26.64L27.68 54.33H32.88L33.92 51.73H38.99L40.03 49.13H38.34L38.86 47.83H34.31L34.83 46.53H33.92L34.7 44.58H37.17L37.95 42.63H36.13L37.43 39.38H35.61L35.87 38.86C36.0433 38.5133 36.1733 38.1667 36.26 37.82C36.4333 37.4733 36.6933 37.1267 37.04 36.78H38.47C38.9033 36.1733 39.4667 35.6967 40.16 35.35C40.94 34.9167 41.85 34.7 42.89 34.7H56.02C57.4933 34.7 58.4467 35.3933 58.88 36.78H57.32C57.4067 36.9533 57.45 37.3 57.45 37.82L57.19 39.38H59.01L58.62 41.33H58.75L58.49 42.63H60.18L59.92 44.58H57.45L57.19 46.53H58.1L57.84 47.83H62.52L62.26 49.13H63.82L63.43 51.73H58.36L57.97 54.33H52.77L52.38 56.93H51.6L51.47 57.58H63.82L63.56 58.88H57.84L57.58 60.18H57.06L56.8 62.13H54.85L54.59 64.08H55.37L55.24 64.73H49.39L49.26 65.38H50.17L50.04 66.03H52.9L53.16 65.38H61.09L61.35 64.73H62.65L63.69 62.13H66.81L67.59 60.18H67.72L68.24 58.88H76.17L76.69 57.58H67.98L68.24 56.93H66.29L67.33 54.33H79.81L80.72 51.73H71.1L72.14 49.13H70.45L70.97 47.83H69.8L70.19 46.53H69.8L70.58 44.58H73.18L73.96 42.63H71.1L71.62 41.33H73.05L73.83 39.38L73.96 38.86C74.1333 38.5133 74.3067 38.1667 74.48 37.82C74.6533 37.4733 74.9133 37.1267 75.26 36.78H74.35C74.7833 36.1733 75.3467 35.6967 76.04 35.35C76.82 34.9167 77.73 34.7 78.77 34.7H91.9C92.5067 34.7 93.07 34.8733 93.59 35.22C94.1967 35.5667 94.5433 36.0867 94.63 36.78H95.54C95.7133 37.04 95.7133 37.3867 95.54 37.82L95.41 39.38L95.02 41.33H93.72L93.46 42.63H96.19L95.93 44.58H93.33L93.07 46.53H93.46L93.33 47.83H94.5L94.37 49.13H96.06L95.67 51.73H105.29L104.9 54.33ZM44.19 66.03L43.93 67.33H47.96L48.48 66.03H44.19ZM54.33 67.98L54.59 67.33H50.3L50.17 67.98H45.36V68.63H53.81L54.07 67.98H54.33Z" fill="#F4B744"/>
</svg>
