<svg width="102" height="47" viewBox="0 0 102 47" fill="none" xmlns="http://www.w3.org/2000/svg">
<path d="M89.8997 20.3302H77.4197L77.0297 22.9302H78.9797L78.8497 23.5802H87.5597L87.4297 24.8802H79.3697L79.2397 26.1802H79.1097L78.8497 28.1302H75.5997L75.3397 30.0802V30.7302H73.9097V31.3802H65.8497L65.7197 32.0302H61.2997L61.1697 33.3302H67.7997L67.6697 33.9802H67.4097L67.2797 34.6302H71.1797V35.0202C71.1797 35.1069 71.1364 35.1502 71.0497 35.1502C71.0497 35.1502 71.0497 35.1935 71.0497 35.2802H74.4297C74.4297 35.7135 74.2997 36.1469 74.0397 36.5802H74.2997C73.8664 37.7069 73.1731 38.5735 72.2197 39.1802H72.0897C71.6564 39.4402 71.2231 39.6569 70.7897 39.8302H70.3997C70.1397 39.9169 69.8797 40.0035 69.6197 40.0902C69.3597 40.0902 69.0564 40.0902 68.7097 40.0902H47.9097C47.6497 40.0902 47.2597 40.0035 46.7397 39.8302H46.9997C46.7397 39.7435 46.4364 39.5269 46.0897 39.1802H46.3497C45.8297 38.6602 45.5697 38.0102 45.5697 37.2302V36.5802H45.3097C45.3097 36.4935 45.3531 36.4069 45.4397 36.3202L45.8297 35.2802H42.4497L42.7097 34.6302H40.2397V35.2802H39.0697C39.0697 35.7135 38.9397 36.1469 38.6797 36.5802C38.2464 37.7069 37.5964 38.5735 36.7297 39.1802C36.2964 39.4402 35.8631 39.6569 35.4297 39.8302H37.5097C37.2497 39.9169 36.9897 40.0035 36.7297 40.0902C36.4697 40.0902 36.1664 40.0902 35.8197 40.0902H15.0197C14.5864 40.0902 14.1964 40.0035 13.8497 39.8302H11.6397C11.3797 39.7435 11.0764 39.5269 10.7297 39.1802C10.2097 38.6602 9.94973 38.0102 9.94973 37.2302V36.5802C9.94973 36.4935 9.99306 36.4069 10.0797 36.3202L10.4697 35.2802H11.5097L11.7697 34.6302H1.75973L2.01973 33.9802H6.82973L7.08973 33.3302H0.719727L1.23973 32.0302H7.08973L7.34973 31.3802H6.56973L6.69973 30.7302H12.6797L12.9397 30.0802H12.1597L12.8097 28.1302H14.7597L15.5397 26.1802H16.1897L16.5797 24.8802H22.4297L22.8197 23.5802H10.5997L10.8597 22.9302H11.6397L12.6797 20.3302H17.8797L18.9197 17.7302H23.9897L25.0297 15.1302H23.3397L23.8597 13.8302H19.3097L19.8297 12.5302H18.9197L19.6997 10.5802H22.1697L22.9497 8.63019H21.1297L22.4297 5.3802H20.6097L20.8697 4.8602C21.0431 4.51353 21.1731 4.16686 21.2597 3.82019C21.4331 3.47353 21.6931 3.12686 22.0397 2.7802H23.4697C23.9031 2.17353 24.4664 1.69686 25.1597 1.35019C25.9397 0.916862 26.8497 0.700195 27.8897 0.700195H41.0197C42.4931 0.700195 43.4464 1.39353 43.8797 2.7802H42.3197C42.4064 2.95353 42.4497 3.3002 42.4497 3.82019L42.1897 5.3802H44.0097L43.6197 7.33019H43.7497L43.4897 8.63019H45.1797L44.9197 10.5802H42.4497L42.1897 12.5302H43.0997L42.8397 13.8302H47.5197L47.2597 15.1302H48.8197L48.4297 17.7302H43.3597L42.9697 20.3302H37.7697L37.3797 22.9302H36.5997L36.4697 23.5802H48.8197L48.5597 24.8802H42.8397L42.5797 26.1802H42.0597L41.7997 28.1302H39.8497L39.5897 30.0802H40.3697L40.2397 30.7302H34.3897L34.2597 31.3802H35.1697L35.0397 32.0302H37.8997L38.1597 31.3802H46.0897L46.3497 30.7302H47.6497L48.6897 28.1302H51.8097L52.5897 26.1802H52.7197L53.2397 24.8802H61.1697L61.6897 23.5802H52.9797L53.2397 22.9302H51.2897L52.3297 20.3302H64.8097L65.7197 17.7302H56.0997L57.1397 15.1302H55.4497L55.9697 13.8302H54.7997L55.1897 12.5302H54.7997L55.5797 10.5802H58.1797L58.9597 8.63019H56.0997L56.6197 7.33019H58.0497L58.8297 5.3802L58.9597 4.8602C59.1331 4.51353 59.3064 4.16686 59.4797 3.82019C59.6531 3.47353 59.9131 3.12686 60.2597 2.7802H59.3497C59.7831 2.17353 60.3464 1.69686 61.0397 1.35019C61.8197 0.916862 62.7297 0.700195 63.7697 0.700195H76.8997C77.5064 0.700195 78.0697 0.873528 78.5897 1.2202C79.1964 1.56686 79.5431 2.08686 79.6297 2.7802H80.5397C80.7131 3.0402 80.7131 3.38686 80.5397 3.82019L80.4097 5.3802L80.0197 7.33019H78.7197L78.4597 8.63019H81.1897L80.9297 10.5802H78.3297L78.0697 12.5302H78.4597L78.3297 13.8302H79.4997L79.3697 15.1302H81.0597L80.6697 17.7302H90.2897L89.8997 20.3302ZM29.1897 32.0302L28.9297 33.3302H32.9597L33.4797 32.0302H29.1897ZM39.3297 33.9802L39.5897 33.3302H35.2997L35.1697 33.9802H30.3597V34.6302H38.8097L39.0697 33.9802H39.3297Z" fill="#D9C3B0"/>
<path d="M100.9 26.3302H88.4197L88.0297 28.9302H89.9797L89.8497 29.5802H98.5597L98.4297 30.8802H90.3697L90.2397 32.1802H90.1097L89.8497 34.1302H86.5997L86.3397 36.0802V36.7302H84.9097V37.3802H76.8497L76.7197 38.0302H72.2997L72.1697 39.3302H78.7997L78.6697 39.9802H78.4097L78.2797 40.6302H82.1797V41.0202C82.1797 41.1069 82.1364 41.1502 82.0497 41.1502C82.0497 41.1502 82.0497 41.1935 82.0497 41.2802H85.4297C85.4297 41.7135 85.2997 42.1469 85.0397 42.5802H85.2997C84.8664 43.7069 84.1731 44.5735 83.2197 45.1802H83.0897C82.6564 45.4402 82.2231 45.6569 81.7897 45.8302H81.3997C81.1397 45.9169 80.8797 46.0035 80.6197 46.0902C80.3597 46.0902 80.0564 46.0902 79.7097 46.0902H58.9097C58.6497 46.0902 58.2597 46.0035 57.7397 45.8302H57.9997C57.7397 45.7435 57.4364 45.5269 57.0897 45.1802H57.3497C56.8297 44.6602 56.5697 44.0102 56.5697 43.2302V42.5802H56.3097C56.3097 42.4935 56.3531 42.4069 56.4397 42.3202L56.8297 41.2802H53.4497L53.7097 40.6302H51.2397V41.2802H50.0697C50.0697 41.7135 49.9397 42.1469 49.6797 42.5802C49.2464 43.7069 48.5964 44.5735 47.7297 45.1802C47.2964 45.4402 46.8631 45.6569 46.4297 45.8302H48.5097C48.2497 45.9169 47.9897 46.0035 47.7297 46.0902C47.4697 46.0902 47.1664 46.0902 46.8197 46.0902H26.0197C25.5864 46.0902 25.1964 46.0035 24.8497 45.8302H22.6397C22.3797 45.7435 22.0764 45.5269 21.7297 45.1802C21.2097 44.6602 20.9497 44.0102 20.9497 43.2302V42.5802C20.9497 42.4935 20.9931 42.4069 21.0797 42.3202L21.4697 41.2802H22.5097L22.7697 40.6302H12.7597L13.0197 39.9802H17.8297L18.0897 39.3302H11.7197L12.2397 38.0302H18.0897L18.3497 37.3802H17.5697L17.6997 36.7302H23.6797L23.9397 36.0802H23.1597L23.8097 34.1302H25.7597L26.5397 32.1802H27.1897L27.5797 30.8802H33.4297L33.8197 29.5802H21.5997L21.8597 28.9302H22.6397L23.6797 26.3302H28.8797L29.9197 23.7302H34.9897L36.0297 21.1302H34.3397L34.8597 19.8302H30.3097L30.8297 18.5302H29.9197L30.6997 16.5802H33.1697L33.9497 14.6302H32.1297L33.4297 11.3802H31.6097L31.8697 10.8602C32.0431 10.5135 32.1731 10.1669 32.2597 9.82019C32.4331 9.47353 32.6931 9.12686 33.0397 8.7802H34.4697C34.9031 8.17353 35.4664 7.69686 36.1597 7.35019C36.9397 6.91686 37.8497 6.7002 38.8897 6.7002H52.0197C53.4931 6.7002 54.4464 7.39353 54.8797 8.7802H53.3197C53.4064 8.95353 53.4497 9.3002 53.4497 9.82019L53.1897 11.3802H55.0097L54.6197 13.3302H54.7497L54.4897 14.6302H56.1797L55.9197 16.5802H53.4497L53.1897 18.5302H54.0997L53.8397 19.8302H58.5197L58.2597 21.1302H59.8197L59.4297 23.7302H54.3597L53.9697 26.3302H48.7697L48.3797 28.9302H47.5997L47.4697 29.5802H59.8197L59.5597 30.8802H53.8397L53.5797 32.1802H53.0597L52.7997 34.1302H50.8497L50.5897 36.0802H51.3697L51.2397 36.7302H45.3897L45.2597 37.3802H46.1697L46.0397 38.0302H48.8997L49.1597 37.3802H57.0897L57.3497 36.7302H58.6497L59.6897 34.1302H62.8097L63.5897 32.1802H63.7197L64.2397 30.8802H72.1697L72.6897 29.5802H63.9797L64.2397 28.9302H62.2897L63.3297 26.3302H75.8097L76.7197 23.7302H67.0997L68.1397 21.1302H66.4497L66.9697 19.8302H65.7997L66.1897 18.5302H65.7997L66.5797 16.5802H69.1797L69.9597 14.6302H67.0997L67.6197 13.3302H69.0497L69.8297 11.3802L69.9597 10.8602C70.1331 10.5135 70.3064 10.1669 70.4797 9.82019C70.6531 9.47353 70.9131 9.12686 71.2597 8.7802H70.3497C70.7831 8.17353 71.3464 7.69686 72.0397 7.35019C72.8197 6.91686 73.7297 6.7002 74.7697 6.7002H87.8997C88.5064 6.7002 89.0697 6.87353 89.5897 7.2202C90.1964 7.56686 90.5431 8.08686 90.6297 8.7802H91.5397C91.7131 9.0402 91.7131 9.38686 91.5397 9.82019L91.4097 11.3802L91.0197 13.3302H89.7197L89.4597 14.6302H92.1897L91.9297 16.5802H89.3297L89.0697 18.5302H89.4597L89.3297 19.8302H90.4997L90.3697 21.1302H92.0597L91.6697 23.7302H101.29L100.9 26.3302ZM40.1897 38.0302L39.9297 39.3302H43.9597L44.4797 38.0302H40.1897ZM50.3297 39.9802L50.5897 39.3302H46.2997L46.1697 39.9802H41.3597V40.6302H49.8097L50.0697 39.9802H50.3297Z" fill="#DED0C4"/>
</svg>
