<svg width="355" height="429" viewBox="0 0 355 429" fill="none" xmlns="http://www.w3.org/2000/svg">
<path d="M22.55 3.38C22.6367 3.11999 22.68 2.90333 22.68 2.73C22.7667 2.47 22.8533 2.25333 22.94 2.08H8.64C8.81333 1.82 8.98667 1.60333 9.16 1.43C9.33333 1.17 9.50667 0.95333 9.68 0.779999H24.76C25.4533 0.259996 26.19 -6.19888e-06 26.97 -6.19888e-06H52.97C53.9233 -6.19888e-06 54.66 0.259996 55.18 0.779999H40.1C40.2733 0.95333 40.4467 1.17 40.62 1.43C40.88 1.60333 41.0533 1.82 41.14 2.08H55.31C55.4833 2.6 55.57 3.03333 55.57 3.38H62.85C62.9367 3.38 62.98 3.42333 62.98 3.51V4.68H45.43V7.27999H52.71V9.23H51.93V11.83H47.25V14.43H57.78V15.08H58.56V17.68H59.08V20.28H58.17V22.88H57.52V26.13H59.73V28.73H57.26V31.33H57.78V31.98H67.01V34.58H71.82V35.88H51.8V37.18H58.43V39.78H52.97V42.38H57.65V43.68H58.56V45.63H75.98V46.93H88.07V49.53H55.05V46.93H42.96V45.63H25.54V43.68H24.63V42.38H19.95V39.78H25.41V37.18H18.78V35.88H38.8V34.58H33.99V31.98H24.76V31.33H24.24V28.73H26.71V26.13H24.5V22.88H25.15V20.28H26.06V17.68H25.54V15.08H24.76V14.43H14.23V11.83H18.91V9.23H19.69V7.27999H12.41V4.68H29.96V3.38H22.55ZM109 73.58H73.51V74.23H76.11V76.18H94.57V76.83H88.85V79.43H97.95V81.38H99.25V82.03H98.34V82.68H97.95V85.28H98.21V87.23H97.69V87.88H97.04C96.9533 88.0533 96.91 88.27 96.91 88.53H98.34C98.08 89.3967 97.6033 90.0467 96.91 90.48H95.48C95.0467 90.8267 94.44 91 93.66 91H28.14C27.36 91 26.7533 90.8267 26.32 90.48H27.62C26.84 90.0467 26.32 89.3967 26.06 88.53H24.63C24.63 88.3567 24.5867 88.2267 24.5 88.14C24.5 88.0533 24.5 87.9667 24.5 87.88H25.15V87.23H25.67V85.28H25.41V82.68H25.8V82.03H26.71V81.38H25.41V79.43H16.31V76.83H22.03V76.18H3.57V74.23H0.969998V73.58H36.46V71.63H22.03V69.68H36.07V69.03H5.39V67.08H9.81V66.43H26.71V65.78H20.73V63.83H30.87V61.23H20.6V59.93H29.05V59.28H25.15V57.33H28.92V56.03H24.11V54.73H35.42V52.78H38.67V51.48H20.86V49.53H53.88V51.48H71.69V52.78H68.44V54.73H57.13V56.03H61.94V57.33H58.17V59.28H62.07V59.93H53.62V61.23H63.89V63.83H53.75V64.35H89.76C90.9733 64.35 91.9267 64.8267 92.62 65.78H98.6L98.99 66.43H82.09L82.35 67.08H77.8C77.8867 67.2533 77.93 67.5133 77.93 67.86V69.03H108.61V69.68H94.57V71.63H109V73.58ZM162.687 22.23H141.497V24.83H149.947V27.43H161.127V29.38H148.517V30.03H150.077V32.63H146.827V33.28H146.567V33.93H143.317V36.53H149.427V37.18H149.687V37.83H148.257V39.78H147.347V40.43H151.637V43.03H141.237V45.63H145.007V47.58H147.087V50.18H147.347V52.78H146.307V56.03H147.477V57.33H146.697V59.28H146.567V59.93H145.527V62.53H146.697V63.83H146.567V71.63H146.697V74.23H148.907V76.83H147.087V78.13H146.567V79.43H148.127V82.03H145.917V82.68H149.167V83.98H150.337V84.63H149.297V86.58H148.777V87.49C148.777 87.6633 148.734 87.8367 148.647 88.01C148.647 88.1833 148.604 88.3567 148.517 88.53H145.267C145.18 88.9633 144.92 89.3967 144.487 89.83H148.127C147.78 90.1767 147.52 90.3933 147.347 90.48H139.937C139.504 90.8267 138.897 91 138.117 91H111.597C110.817 91 110.21 90.8267 109.777 90.48H117.187C116.84 90.3933 116.58 90.1767 116.407 89.83H112.767C112.334 89.3967 112.074 88.9633 111.987 88.53H115.367C115.28 88.27 115.237 87.9233 115.237 87.49V86.58H115.757V84.63H116.797V83.98H115.627V82.68H112.377V82.03H114.587V79.43H113.027V78.13H113.547V76.83H115.367V74.23H113.157V71.63H113.027V63.83H113.157V62.53H111.987V59.93H113.027V59.28H113.157V57.33H113.937V56.03H112.767V52.78H113.807V50.18H113.547V47.58H111.467V45.63H107.697V43.03H118.097V40.43H113.807V39.78H114.717V37.83H116.147V37.18H115.887V36.53H109.777V33.93H113.027V33.28H113.287V32.63H116.537V30.03H114.977V29.38H127.587V27.43H116.407V24.83H107.957V22.23H129.147V21.58H115.887V19.63H115.757V17.68H113.417V17.03H121.347V15.73H115.367V13.13H115.887V11.18H112.247V8.58H112.897V7.27999H112.507V5.97999H113.547V5.32999H112.377V3.51C112.377 3.07666 112.464 2.6 112.637 2.08H113.287C113.894 0.693329 114.977 -6.19888e-06 116.537 -6.19888e-06H143.057C144.617 -6.19888e-06 145.7 0.693329 146.307 2.08H145.657C145.83 2.6 145.917 3.07666 145.917 3.51V5.32999H147.087V5.97999H146.047V7.27999H146.437V8.58H145.787V11.18H149.427V13.13H148.907V15.73H154.887V17.03H146.957V17.68H149.297V19.63H149.427V21.58H162.687V22.23ZM266.448 20.28C266.622 20.6267 266.795 20.9733 266.968 21.32C267.142 21.58 267.272 21.8833 267.358 22.23H262.548C262.722 22.5767 262.895 23.01 263.068 23.53C263.242 23.9633 263.415 24.3967 263.588 24.83H243.178L243.958 27.43H254.488L254.878 29.38H253.448C253.535 29.5533 253.578 29.77 253.578 30.03C253.578 30.29 253.622 30.5067 253.708 30.68H250.198L250.328 31.98H253.058C253.058 32.3267 253.058 32.6733 253.058 33.02C253.145 33.28 253.188 33.5833 253.188 33.93H257.998C258.085 34.2767 258.128 34.58 258.128 34.84C258.128 35.1 258.128 35.4033 258.128 35.75V35.88H245.908C245.908 36.3133 245.908 36.7467 245.908 37.18C245.995 37.6133 246.038 38.0467 246.038 38.48H248.768C248.768 38.9133 248.768 39.3467 248.768 39.78C248.855 40.2133 248.898 40.6467 248.898 41.08H253.578V41.73H251.758V44.33H252.278V46.28H259.948V48.88H252.668V50.18H251.888C251.888 50.3533 251.888 50.57 251.888 50.83C251.888 51.09 251.845 51.3067 251.758 51.48H249.418V54.08H249.678C249.592 54.34 249.548 54.6867 249.548 55.12V55.38H254.358C254.358 55.7267 254.315 56.0733 254.228 56.42C254.228 56.68 254.228 56.9833 254.228 57.33H256.178C256.178 57.7633 256.135 58.1967 256.048 58.63C256.048 59.0633 256.005 59.4967 255.918 59.93H253.058C252.972 60.1033 252.928 60.32 252.928 60.58C252.928 60.84 252.885 61.0567 252.798 61.23H237.198C237.198 61.5767 237.112 62.01 236.938 62.53H250.588C250.415 63.05 250.328 63.4833 250.328 63.83H252.278C252.192 64.1767 252.105 64.5233 252.018 64.87C252.018 65.13 251.932 65.4333 251.758 65.78L251.368 67.08H247.598L247.338 67.73H253.448C253.275 68.0767 253.188 68.2933 253.188 68.38H249.288L249.028 69.03H248.898C248.725 69.4633 248.552 69.8967 248.378 70.33C248.205 70.7633 247.988 71.1967 247.728 71.63H245.778L244.348 74.23H246.558L245.778 75.53H245.908C245.735 75.7033 245.562 75.92 245.388 76.18C245.215 76.44 245.042 76.6567 244.868 76.83H243.958C243.698 77.09 243.525 77.3067 243.438 77.48C243.178 77.8267 242.918 78.1733 242.658 78.52C242.398 78.78 242.095 79.0833 241.748 79.43H241.358C240.925 79.8633 240.448 80.2967 239.928 80.73C239.495 81.1633 239.018 81.5967 238.498 82.03H239.668L236.938 83.98H237.068C236.375 84.4133 235.638 84.8467 234.858 85.28C234.078 85.7133 233.255 86.1467 232.388 86.58H232.258C231.392 87.0133 230.308 87.4467 229.008 87.88H229.138C227.405 88.4867 225.585 89.0067 223.678 89.44C221.772 89.8733 219.822 90.22 217.828 90.48H220.558C219.172 90.6533 217.742 90.7833 216.268 90.87C214.795 90.9567 213.278 91 211.718 91H173.628C172.848 91 172.242 90.8267 171.808 90.48H169.078C168.212 89.96 167.692 89.0933 167.518 87.88H167.388V86.58H167.648V83.98H167.388V82.03H166.348V79.43H166.738V77.48H166.608V76.83H167.648V75.53H167.518V74.23H165.178V71.63H167.258V69.03H167.388V68.38H171.288V67.73H165.308V67.08H169.078V63.83H167.258V62.53H167.128V61.23H170.508V59.93H155.558V57.33H155.038V55.38H156.728V54.08H162.058V51.48H165.438V50.18H167.388V48.88H169.468V46.28H172.458V44.33H175.318V41.73H166.608V41.08H163.748V38.48H158.028V35.88H172.848V33.93H161.408V31.98H167.648V30.68H167.388V29.38H166.348V27.43H160.758V24.83H181.038V22.23H185.848V20.28H162.448V17.68H177.788V17.03H165.698V16.38H190.268V13.78H187.148V13.13H156.208V10.53H159.978V8.58H168.038V7.92999H172.328V6.62999H169.988V5.97999H167.258V4.68H167.518V3.51C167.518 3.33666 167.518 3.20666 167.518 3.11999C167.605 2.94666 167.648 2.81666 167.648 2.73H168.168C168.602 0.909995 169.772 -6.19888e-06 171.678 -6.19888e-06H209.118C215.792 -6.19888e-06 221.858 0.909995 227.318 2.73H226.798C228.358 3.25 229.962 3.9 231.608 4.68H231.348C231.782 4.85333 232.215 5.06999 232.648 5.32999C233.168 5.50333 233.602 5.72 233.948 5.97999H236.678L237.848 6.62999H240.058C240.492 6.80333 240.838 7.02 241.098 7.27999C241.445 7.53999 241.792 7.75666 242.138 7.92999H237.848C238.022 8.01666 238.195 8.10333 238.368 8.19C238.542 8.27666 238.672 8.40666 238.758 8.58H230.698L233.168 10.53H229.268C230.222 11.31 231.088 12.1767 231.868 13.13H262.808C262.895 13.2167 262.982 13.3033 263.068 13.39C263.155 13.4767 263.242 13.6067 263.328 13.78H266.578C266.925 14.1267 267.272 14.56 267.618 15.08C267.965 15.5133 268.268 15.9467 268.528 16.38H243.958C244.045 16.4667 244.132 16.5533 244.218 16.64C244.305 16.7267 244.392 16.8567 244.478 17.03H256.568L256.958 17.68H241.618C242.225 18.5467 242.702 19.4133 243.048 20.28H266.448ZM220.558 29.38C220.038 28.6 219.388 27.95 218.608 27.43H208.078C206.172 26.0433 203.832 25.35 201.058 25.35H193.258V27.43H198.848V29.38H199.888V30.68H200.148V31.98H193.908V33.93H205.348V35.88H190.528V38.48H196.248V41.08H199.108V41.73H207.818V44.33H204.958V46.28H201.968V48.88H199.888V50.18H197.938V51.48H194.558V54.08H189.228V55.38H187.538V57.33H188.058V59.93H203.008V61.23H199.628V62.53H199.758V63.83H201.578V65.65H210.028C212.542 65.65 214.665 65.0433 216.398 63.83H214.318C214.578 63.6567 214.838 63.4833 215.098 63.31C215.358 63.05 215.575 62.79 215.748 62.53H202.228C202.402 62.3567 202.575 62.1833 202.748 62.01C202.922 61.75 203.052 61.49 203.138 61.23H218.738C218.912 61.0567 219.042 60.8833 219.128 60.71C219.215 60.45 219.302 60.19 219.388 59.93H222.378C222.552 59.4967 222.682 59.0633 222.768 58.63C222.855 58.1967 222.942 57.7633 223.028 57.33H221.078C221.165 56.9833 221.208 56.68 221.208 56.42C221.208 56.0733 221.252 55.7267 221.338 55.38H216.528V55.12C216.528 54.9467 216.528 54.7733 216.528 54.6C216.615 54.4267 216.658 54.2533 216.658 54.08H216.398C216.398 53.6467 216.398 53.2133 216.398 52.78C216.398 52.26 216.442 51.8267 216.528 51.48H218.868V50.18H219.648L219.778 48.88H227.058V46.28H219.388V44.33H218.868V41.73H220.688V41.08H215.878V38.48H213.018C213.018 38.0467 213.018 37.6133 213.018 37.18C213.018 36.7467 212.975 36.3133 212.888 35.88H225.108V35.75C225.108 35.4033 225.065 35.1 224.978 34.84C224.978 34.4933 224.978 34.19 224.978 33.93H220.168C220.082 33.5833 219.995 33.28 219.908 33.02C219.822 32.6733 219.735 32.3267 219.648 31.98H216.918C216.832 31.72 216.745 31.5033 216.658 31.33C216.572 31.07 216.485 30.8533 216.398 30.68H219.908C219.822 30.42 219.692 30.2033 219.518 30.03C219.432 29.77 219.302 29.5533 219.128 29.38H220.558ZM354.903 11.83H330.723V14.43H339.953V16.38H349.963V18.33H349.703V20.28H353.473V22.88H339.303V23.53H336.573V24.44C336.573 25.0467 336.443 25.61 336.183 26.13H345.413C344.806 27.3433 343.81 27.95 342.423 27.95H320.843V28.08H322.143V30.68H322.403V33.28H321.753V35.88H320.063V37.83H326.563V39.13H321.103V41.08H318.243V43.68H323.183V44.98H322.273V47.58H321.363V50.18H319.803V52.78H318.373V54.73H323.183V56.68H321.233V59.28H322.013V59.93H322.923V61.23H329.423V63.18H325.003V65.78H326.953V68.38H321.493V70.98H323.703V72.28H324.613V74.23H326.693V76.83H325.913V78.78H322.533V80.73H322.143V82.03H322.013V83.98H323.443V85.93H322.273V87.49C322.273 87.9233 322.23 88.27 322.143 88.53H320.843C320.583 89.3967 320.106 90.0467 319.413 90.48H319.673C319.24 90.8267 318.633 91 317.853 91H291.853C291.16 91 290.51 90.8267 289.903 90.48H289.643C289.036 90.0467 288.56 89.3967 288.213 88.53H289.383C289.296 88.27 289.253 87.9233 289.253 87.49V85.93H290.423V83.98H288.993V82.03H289.123V80.73H289.513V78.78H292.893V76.83H293.673V74.23H291.593V72.28H290.683V70.98H288.473V68.38H293.933V65.78H291.983V63.18H296.403V61.23H289.903V59.93H288.993V59.28H288.213V56.68H290.163V54.73H285.353V52.78H286.783V50.18H288.343V47.58H289.253V44.98H290.163V43.68H285.223V41.08H288.083V39.13H293.543V37.83H287.043V35.88H288.733V33.28H289.383V30.68H289.123V28.08H287.823V27.95H266.243C264.943 27.95 263.903 27.3433 263.123 26.13H253.893C253.806 25.87 253.72 25.61 253.633 25.35C253.46 25.09 253.373 24.7867 253.373 24.44V23.53H256.103V22.88H270.273V20.28H266.503V18.33H266.763V16.38H256.753V14.43H247.523V11.83H271.703V9.88H258.183V7.27999H260.783V4.68H264.163V4.03H266.113V3.51C266.113 2.64333 266.373 1.95 266.893 1.43H264.033C264.726 0.476662 265.68 -6.19888e-06 266.893 -6.19888e-06H343.073C344.286 -6.19888e-06 345.24 0.476662 345.933 1.43H348.663C349.096 2.03666 349.313 2.72999 349.313 3.51V4.03H347.363V4.68H343.983V7.27999H341.383V9.88H354.903V11.83ZM74.81 191.23H53.62V193.83H62.07V196.43H73.25V198.38H60.64V199.03H62.2V201.63H58.95V202.28H58.69V202.93H55.44V205.53H61.55V206.18H61.81V206.83H60.38V208.78H59.47V209.43H63.76V212.03H53.36V214.63H57.13V216.58H59.21V219.18H59.47V221.78H58.43V225.03H59.6V226.33H58.82V228.28H58.69V228.93H57.65V231.53H58.82V232.83H58.69V240.63H58.82V243.23H61.03V245.83H59.21V247.13H58.69V248.43H60.25V251.03H58.04V251.68H61.29V252.98H62.46V253.63H61.42V255.58H60.9V256.49C60.9 256.663 60.8567 256.837 60.77 257.01C60.77 257.183 60.7267 257.357 60.64 257.53H57.39C57.3033 257.963 57.0433 258.397 56.61 258.83H60.25C59.9033 259.177 59.6433 259.393 59.47 259.48H52.06C51.6267 259.827 51.02 260 50.24 260H23.72C22.94 260 22.3333 259.827 21.9 259.48H29.31C28.9633 259.393 28.7033 259.177 28.53 258.83H24.89C24.4567 258.397 24.1967 257.963 24.11 257.53H27.49C27.4033 257.27 27.36 256.923 27.36 256.49V255.58H27.88V253.63H28.92V252.98H27.75V251.68H24.5V251.03H26.71V248.43H25.15V247.13H25.67V245.83H27.49V243.23H25.28V240.63H25.15V232.83H25.28V231.53H24.11V228.93H25.15V228.28H25.28V226.33H26.06V225.03H24.89V221.78H25.93V219.18H25.67V216.58H23.59V214.63H19.82V212.03H30.22V209.43H25.93V208.78H26.84V206.83H28.27V206.18H28.01V205.53H21.9V202.93H25.15V202.28H25.41V201.63H28.66V199.03H27.1V198.38H39.71V196.43H28.53V193.83H20.08V191.23H41.27V190.58H28.01V188.63H27.88V186.68H25.54V186.03H33.47V184.73H27.49V182.13H28.01V180.18H24.37V177.58H25.02V176.28H24.63V174.98H25.67V174.33H24.5V172.51C24.5 172.077 24.5867 171.6 24.76 171.08H25.41C26.0167 169.693 27.1 169 28.66 169H55.18C56.74 169 57.8233 169.693 58.43 171.08H57.78C57.9533 171.6 58.04 172.077 58.04 172.51V174.33H59.21V174.98H58.17V176.28H58.56V177.58H57.91V180.18H61.55V182.13H61.03V184.73H67.01V186.03H59.08V186.68H61.42V188.63H61.55V190.58H74.81V191.23ZM91.06 360.88V361.27C91.06 362.05 90.8 362.787 90.28 363.48H108.22C107.613 364.347 106.703 364.78 105.49 364.78H68.31V365.43H58.43V367.38H54.01V369.98H58.43V371.93H57.26V373.88H56.74V374.4H91.32C92.1867 374.4 92.9233 374.66 93.53 375.18H93.79C94.2233 375.527 94.57 375.96 94.83 376.48H94.05C94.31 376.827 94.44 377.303 94.44 377.91V379.08H93.92V379.73H97.3V382.33H94.31V383.63H95.09V385.58H95.48V386.23H96.65V388.18H94.7V388.83H88.07V391.43H86.51V393.38H96.39V395.98H92.75V397.54C92.75 397.973 92.7067 398.32 92.62 398.58H92.36C92.0133 399.533 91.4933 400.183 90.8 400.53H88.2C87.7667 400.877 87.16 401.05 86.38 401.05H51.8V402.48H55.7V403.78H61.55V405.73H49.33V407.03H60.51V408.98H52.06V409.63H58.56V412.23H54.92V414.83H56.61V415.48H55.83V418.08H57.91V418.73H57V419.38H55.18V420.68H57V421.98H55.18V423.93H61.29V424.58H65.32V425.49C65.32 425.577 65.2767 425.663 65.19 425.75C65.19 425.75 65.19 425.793 65.19 425.88H76.11C76.11 426.14 76.0667 426.357 75.98 426.53H57.78C57.6067 427.31 57.13 427.96 56.35 428.48H65.71C65.2767 428.827 64.67 429 63.89 429H39.06C38.28 429 37.6733 428.827 37.24 428.48H27.75C27.1433 428.047 26.6667 427.397 26.32 426.53H44.39C44.39 426.27 44.3467 426.053 44.26 425.88H33.47V424.58H29.44V423.93H23.33V421.98H25.15V420.68H23.33V419.38H25.15V418.73H26.06V418.08H23.98V415.48H24.76V414.83H23.07V412.23H26.71V409.63H20.21V408.98H28.66V407.03H17.48V405.73H29.7V403.78H23.85V402.48H19.95V400.53H22.55V398.58H22.81V395.98H26.45V393.38H16.57V391.43H18.13V388.83H24.76V388.18H26.71V386.23H25.54V385.58H25.15V383.63H24.37V382.33H27.36V379.73H23.98V379.08H24.5V376.48H25.15V375.18H24.89V373.88H25.41V371.93H26.58V369.98H22.16V367.38H26.58V365.43H36.46V363.48H18.52V360.88H38.28V358.93H19.17V357.63H19.69V356.33H30.74V353.73H25.93V351.13H28.14V348.53H24.76V345.93H25.15V343.98H23.98V342.03H24.63V341.51C24.63 341.163 24.6733 340.903 24.76 340.73H19.56C19.6467 340.297 19.7767 339.95 19.95 339.69C20.21 339.343 20.47 339.04 20.73 338.78H19.69C20.3833 338.26 21.12 338 21.9 338H87.42C88.2867 338 89.0233 338.26 89.63 338.78H90.67C91.2767 339.213 91.71 339.863 91.97 340.73H97.04C97.1267 340.903 97.17 341.163 97.17 341.51V342.03H96.52V343.98H97.69V345.93H97.3V348.53H100.68V351.13H98.47V353.73H103.28V356.33H92.23V357.63H91.71V358.93H110.82V360.88H91.06ZM197.853 406.38H208.123V408.33H188.363V410.93H201.103V413.53H189.923V416.13H191.353V418.08H190.443V419.38H187.713V420.68H187.583V421.98H190.313V424.58H194.083V425.49C194.083 425.663 194.04 425.793 193.953 425.88H170.813C170.726 426.053 170.683 426.27 170.683 426.53H179.653C179.393 427.397 178.916 428.047 178.223 428.48H175.753C175.32 428.827 174.713 429 173.933 429H106.203C105.51 429 104.86 428.827 104.253 428.48H106.723C106.116 428.047 105.64 427.397 105.293 426.53H96.193C96.1063 426.357 96.063 426.14 96.063 425.88H119.333V424.58H115.563V421.98H112.833V420.68H112.963V419.38H115.693V418.08H116.603V416.13H115.173V413.53H126.353V410.93H113.613V408.33H133.373V406.38H123.103V405.08H126.093V403.78H127.393V402.48H112.963V401.18H109.583V399.23H121.673V398.58H112.053V397.28H114.913V395.98H116.993V394.03H116.733V391.43H115.433V388.83H113.483V387.53H115.043V384.93H113.613V383.63H115.693V381.68H116.213V379.73H118.553V379.08H116.343V376.48H114.393V374.53H114.913V372.58H115.173V369.98H117.123V367.38H114.263V364.78H114.653V362.18H118.293V360.23H116.343V358.28H115.303V357.63H120.763V355.68H130.383V354.38H126.483V353.08H113.873V352.43H115.303V350.48H115.433V348.53H115.823V345.93H115.693V342.68H115.433V341.51C115.433 341.163 115.476 340.903 115.563 340.73H114.263C114.61 338.91 115.736 338 117.643 338H184.333C186.326 338 187.453 338.91 187.713 340.73H189.013C189.1 340.903 189.143 341.163 189.143 341.51V342.68H189.403V345.93H189.533V348.53H189.143V350.48H189.013V352.43H187.583V353.08H200.193V354.38H204.093V355.68H194.473V357.63H189.013V358.28H190.053V360.23H192.003C191.83 361.097 191.526 361.747 191.093 362.18H187.453C186.846 362.96 185.98 363.35 184.853 363.35H145.853V364.78H145.463V367.38H148.323V369.98H146.373V371.54H182.513C183.466 371.54 184.29 371.887 184.983 372.58H184.723C185.156 373.013 185.46 373.663 185.633 374.53H185.243V376.48H187.193V379.08H189.403V379.73H187.063V381.68H186.543V383.63H184.463V384.93H185.893V387.53H184.333V388.83H186.283V391.43H187.583V391.95C187.583 392.903 187.366 393.597 186.933 394.03H187.193C186.5 394.983 185.546 395.46 184.333 395.46H148.193V395.98H146.113V397.28H143.253V398.58H152.873V399.23H140.783V401.18H144.163V402.48H158.593V403.65H198.633C199.066 403.65 199.413 403.693 199.673 403.78H198.243C199.11 404.04 199.76 404.473 200.193 405.08H197.203C197.55 405.6 197.766 406.033 197.853 406.38ZM328.242 397.93H299.772V399.23H322.782V401.83H312.642V402.48H302.502V404.43H295.872V406.38H293.012V408.33H279.362V410.93H299.772V413.53H289.372V414.83H298.472V416.13H303.932V418.08H305.882V420.03H307.702V421.33H307.832V423.93H310.562V424.58H309.132V425.23H305.882V425.88H298.342L297.952 427.18H293.922C293.575 427.787 293.185 428.22 292.752 428.48H297.562C297.129 428.827 296.522 429 295.742 429H272.212C271.432 429 270.825 428.827 270.392 428.48H265.452C265.019 428.22 264.629 427.787 264.282 427.18H268.182C267.922 426.747 267.792 426.313 267.792 425.88H275.332V425.23H278.582V424.58H280.012V423.93H277.282V421.33H277.152V420.03H275.332V418.08H273.382V416.13H267.922V414.83H258.822V413.53H269.222V410.93H223.202V413.53H241.792V414.83H239.062V418.08H239.582V420.03H237.112V421.33H236.202V423.93H236.592V424.58H246.212V425.23H238.152V425.88H242.832C242.832 426.313 242.702 426.747 242.442 427.18H235.292C235.032 427.787 234.599 428.22 233.992 428.48H233.212C232.779 428.827 232.129 429 231.262 429H207.732C206.952 429 206.345 428.827 205.912 428.48H206.822C206.562 428.307 206.302 428.133 206.042 427.96C205.869 427.7 205.695 427.44 205.522 427.18H212.802C212.542 426.747 212.412 426.313 212.412 425.88H207.602V425.23H215.662V424.58H206.042V423.93H205.652V421.33H206.562V420.03H209.032V418.08H208.512V414.83H211.242V413.53H192.652V410.93H220.732V408.33H195.122V406.38H194.472V404.43H205.132V402.48H208.902V401.83H200.582V399.23H218.782V397.93H231.522L231.132 397.28H207.992V396.63H212.282V395.98H209.032V393.38H209.162V392.08H212.152V390.13H211.502V387.53H207.992V386.88H196.292V385.58H206.432V384.93H206.042V383.63H211.762V382.33H214.882V380.38H194.342V377.78H210.722V376.48H196.162V374.53H211.242V373.23H209.422V371.93H204.482V371.28H206.952V369.33H221.902V367.38H219.692V366.08H207.342V365.43H206.692V363.48H212.802V360.88H199.282V359.58H203.962V358.93H205.262V357.63H202.272V355.68H213.972V353.73H207.992V351.13H217.872V350.48H214.752V347.88H226.322V345.93H199.152V343.98H228.012V342.03H215.272V340.73H205.522C205.609 340.297 205.739 339.95 205.912 339.69C206.172 339.343 206.432 339.04 206.692 338.78H207.342C207.862 338.26 208.599 338 209.552 338H230.092C231.305 338 232.302 338.26 233.082 338.78H232.432C232.952 339.04 233.385 339.343 233.732 339.69C234.079 340.037 234.339 340.383 234.512 340.73H244.392L244.912 341.51L245.172 342.03H258.042L259.212 343.98H230.352L231.522 345.93H258.562L259.732 347.88H248.292L249.852 350.48H252.972L253.362 351.13H243.482L245.042 353.73H250.892L252.062 355.68H240.492L241.662 357.63H244.652L245.432 358.93H244.132L244.522 359.58H239.842L240.622 360.88H254.142L255.702 363.48H249.592L250.762 365.43H251.412L251.802 366.08H261.422L261.812 365.43H258.302L259.472 363.48H263.762L265.322 360.88H262.982L263.762 359.58H253.232L253.622 358.93H266.752L267.532 357.63H266.492L267.662 355.68H275.462L276.632 353.73H277.022L278.582 351.13H272.602L272.992 350.48H286.642L288.202 347.88H287.422L288.592 345.93H268.572L269.742 343.98H288.982L290.152 342.03H275.982L276.242 341.51C276.415 341.163 276.589 340.903 276.762 340.73H277.022C277.282 340.383 277.585 340.037 277.932 339.69C278.279 339.343 278.669 339.04 279.102 338.78H278.842C279.622 338.26 280.619 338 281.832 338H302.372C303.239 338 303.975 338.26 304.582 338.78H304.972C305.232 339.04 305.449 339.343 305.622 339.69C305.882 339.95 306.055 340.297 306.142 340.73H305.882V342.03H320.182V343.98H300.942V345.93H320.962V347.88H321.742V350.48H308.092V351.13H314.072V353.73H313.682V355.68H305.882V357.63H306.922V358.93H293.792V359.58H304.322V360.88H306.662V363.48H302.502V365.43H305.882V366.08H311.992V367.38H298.602V369.33H308.222V371.28H305.882V371.93H306.402V373.23H308.222V374.53H293.142V376.48H307.702V377.78H291.322V380.38H311.862V382.33H308.742V383.63H303.022V384.93H303.412V385.58H293.272V386.88H304.972V387.53H308.482V390.13H305.492V392.08H303.282V393.38H305.882V395.98H307.052V396.63H312.642V397.28H328.242V397.93ZM267.402 366.08H264.152L264.932 367.38H266.622L267.402 366.08ZM252.062 371.28L252.452 371.93H257.522L257.912 372.71L258.432 371.93H257.912L258.302 371.28H260.512L261.682 369.33H253.492L254.662 371.28H252.062ZM271.302 392.08H274.942V390.13H272.472L271.302 392.08ZM239.582 395.98H242.832V396.63H238.542V397.28H247.382L246.992 396.63H244.912L244.392 395.98H243.222L241.662 393.38H241.922L241.142 392.08H239.712V393.38H239.582V395.98ZM297.692 397.93V397.28H282.092V396.63H276.502V395.98H275.332V393.38H273.252L271.562 395.98H272.862L272.472 396.63H274.552L274.162 397.28H263.502V397.93H249.332V399.23H231.132V401.83H239.452V402.48H235.682V404.43H225.022V406.38H225.672V408.33H262.462V406.38H265.322V404.43H254.402C254.142 404.777 253.882 405.123 253.622 405.47C253.362 405.817 253.015 406.12 252.582 406.38H252.192C251.412 406.9 250.545 407.16 249.592 407.16H240.492C239.452 407.16 238.542 406.9 237.762 406.38H238.152C237.805 406.12 237.459 405.817 237.112 405.47C236.852 405.123 236.592 404.777 236.332 404.43H249.722L249.332 403.91L248.422 402.48H243.742L243.352 401.83H252.452L250.762 399.23H265.972L265.192 397.93H297.692ZM292.232 401.83V399.23H275.202L273.642 401.83H264.672L264.282 402.48H268.962L268.052 403.91L267.662 404.43H271.952V402.48H282.092V401.83H292.232Z" fill="#EDE6E0" fill-opacity="0.59"/>
</svg>
