<svg width="338" height="196" viewBox="0 0 338 196" fill="none" xmlns="http://www.w3.org/2000/svg">
<path d="M169.489 167.628C167.459 167.36 163.339 166.356 161.304 165.635C159.246 164.905 158.123 164.871 140.13 164.996C134.49 165.036 129.732 164.846 129.559 164.574C129.379 164.291 134.534 164.015 141.634 163.929C148.448 163.846 154.021 163.567 154.018 163.309C154.009 162.547 151.297 161.579 149.055 161.536C147.91 161.514 147.438 161.371 148.006 161.218C148.691 161.033 148.941 160.589 148.749 159.893C148.523 159.074 149.178 159.32 151.77 161.026C153.59 162.225 155.457 163.201 155.919 163.196C156.381 163.19 156.9 163.407 157.073 163.678C157.334 164.088 159.87 164.795 162.186 165.104C162.495 165.145 163.129 165.332 163.595 165.519C165.497 166.284 169.701 166.918 172.707 166.894C174.465 166.88 176.038 167.08 176.203 167.338C176.479 167.771 172.025 167.963 169.489 167.628ZM177.662 167.407C177.658 167.099 178.287 166.84 179.059 166.831C179.832 166.821 180.467 167.065 180.47 167.373C180.474 167.681 179.845 167.94 179.073 167.949C178.301 167.959 177.666 167.715 177.662 167.407ZM181.319 167.372C181.121 167.061 181.353 166.803 181.835 166.797C182.821 166.785 182.971 167.119 182.197 167.608C181.912 167.788 181.517 167.682 181.319 167.372ZM185.516 166.538C185.514 166.42 186.136 166.197 186.897 166.042C187.658 165.888 188.15 165.978 187.99 166.243C187.708 166.71 185.521 166.97 185.516 166.538ZM189.156 165.589C189.343 165.279 189.875 165.021 190.339 165.015C190.802 165.009 191.028 165.258 190.841 165.568C190.654 165.878 190.121 166.137 189.658 166.142C189.195 166.148 188.969 165.899 189.156 165.589ZM172.582 165.421C167.388 164.701 167.403 164.706 168.138 163.803C168.693 163.12 169.556 163.004 172.245 163.254C174.117 163.428 176.023 163.931 176.481 164.372C177.212 165.075 177.201 165.175 176.397 165.185C175.892 165.191 175.144 165.29 174.734 165.406C174.324 165.522 173.356 165.528 172.582 165.421ZM191.835 164.793C191.921 164.527 193.115 163.919 194.487 163.442C195.86 162.966 197.296 162.317 197.679 162C198.188 161.578 198.377 161.703 198.387 162.471C198.398 163.434 198.953 163.517 205.281 163.499C216.075 163.467 217.716 163.534 217.271 163.988C216.682 164.59 191.644 165.383 191.835 164.793ZM67.3761 166.062C64.4207 165.945 64.0659 165.794 63.539 164.43C63.2196 163.604 62.5384 162.618 62.0252 162.239C61.2071 161.636 61.2001 161.55 61.9684 161.541C63.2192 161.526 63.3958 159.543 63.3396 146.14C63.3125 139.678 63.3435 130.867 63.4091 126.558C63.5798 115.298 63.1892 81.9486 62.883 81.6511C62.7407 81.5128 61.7968 81.8937 60.7856 82.4976L58.9469 83.5955L58.8483 88.8765C58.7116 96.1976 57.8573 96.4192 57.836 89.139C57.8195 83.5115 57.8902 83.1479 59.2091 82.077C59.9739 81.4561 61.177 80.7025 61.8825 80.4024C62.5881 80.1023 63.12 79.5408 63.0646 79.1546C62.7876 77.2237 63.1097 77.0853 65.3058 78.1915C67.123 79.1068 67.7539 79.1907 68.7424 78.6483C69.842 78.0449 69.9287 77.6292 69.6866 74.123C69.54 71.9994 69.5968 70.2599 69.8129 70.2573C70.5213 70.2486 70.7235 71.5959 70.488 74.7565C70.1245 79.6376 70.3996 79.7644 80.9854 79.5956C99.2686 79.3039 98.2216 79.2256 99.0816 80.9503C99.501 81.7914 99.7935 83.0313 99.7316 83.7058C99.6697 84.3802 99.9762 85.5912 100.413 86.3969C101.151 87.7601 101.2 87.5776 101.118 83.7648L101.03 79.6679L102.715 79.6474C104.042 79.6313 104.442 79.8978 104.598 80.9006C104.782 82.0857 104.888 82.034 106.134 80.1578C106.87 79.0488 107.465 77.5622 107.456 76.8545C107.43 74.7057 109.347 73.453 112.725 73.4119C115.913 73.3731 117.535 74.1987 117.556 75.8704C117.563 76.4321 118.184 77.5374 118.937 78.3266C119.997 79.4391 120.631 79.6757 121.757 79.3797C122.556 79.1697 123.589 79.1377 124.053 79.3086C125.607 79.8811 119.328 87.9002 116.618 88.8031C116.025 89.0008 115.987 89.1818 116.479 89.4763C117.285 89.9587 121.906 85.6963 124.123 82.4253C125.177 80.871 125.796 80.3763 126.097 80.848C126.338 81.226 126.305 81.9757 126.024 82.5139C125.386 83.7373 125.384 86.5336 126.022 86.1303C126.282 85.9661 126.522 85.1301 126.557 84.2726C126.664 81.6337 126.984 79.6125 127.356 79.2328C127.552 79.0334 129.581 78.8864 131.865 78.9062C135.327 78.9361 136.084 78.78 136.407 77.9687C137.168 76.0553 138.856 67.3977 139.134 63.9773L139.417 60.4947L123.48 60.7224C92.0045 61.172 83.0458 61.1391 83.3863 60.5753C83.5691 60.2724 84.653 60.0503 85.7948 60.0818C89.1213 60.1733 90.4855 59.9721 90.1462 59.4401C89.7991 58.8957 85.5397 58.7882 82.6638 59.2512C81.5677 59.4277 80.8457 59.8688 80.8517 60.3583C80.8595 61.0029 79.9226 61.1834 76.3436 61.2269C72.495 61.2737 71.8484 61.148 71.9796 60.3785C72.0906 59.7274 71.6402 59.44 70.3666 59.349C68.3174 59.2027 66.5764 59.9825 67.9479 60.4323C68.4045 60.582 69.4113 60.8008 70.1851 60.9184C70.959 61.0361 69.8865 61.1873 67.8018 61.2546C65.7002 61.3223 64.0145 61.626 64.0183 61.9362C64.0223 62.2438 63.7724 62.4986 63.4635 62.5024C62.4461 62.5147 62.8636 61.2921 63.9811 60.9865C64.7902 60.7653 65.1653 60.009 65.4207 58.0843C65.6107 56.6527 65.9897 55.1937 66.263 54.8421C66.5362 54.4905 68.7685 53.5982 71.2236 52.8593C75.1009 51.6923 75.6854 51.3501 75.672 50.2547C75.6635 49.5612 75.9074 48.835 76.214 48.6412C76.5206 48.4473 76.7641 47.6891 76.7551 46.9563C76.7461 46.2235 77.0267 45.4418 77.3787 45.2192C77.8583 44.9159 91.4387 44.5379 94.2829 44.7488C94.5148 44.766 94.7121 45.3945 94.7213 46.1454C94.7306 46.8964 94.9507 47.6381 95.2105 47.7937C95.4704 47.9493 99.7765 48.0918 104.78 48.1104C113.434 48.1424 113.936 48.2056 115.098 49.4076C115.77 50.1025 116.659 50.6669 117.075 50.6619C117.61 50.6554 117.727 51.0828 117.477 52.1285C117.21 53.2464 117.313 53.5388 117.903 53.3339C118.331 53.1852 118.675 52.5818 118.668 51.993C118.656 51.0184 119.171 50.9018 124.41 50.693C129.662 50.4836 131.127 50.0337 129.577 49.1057C129.261 48.9163 129.152 48.5129 129.335 48.2093C129.764 47.4989 131.266 48.6651 131.279 49.7185C131.286 50.2572 132.092 50.4959 133.957 50.5118C139.375 50.5578 139.435 50.5744 139.453 52.0187C139.462 52.7607 139.723 53.4383 140.033 53.5245C140.852 53.7521 143.079 49.9443 143.059 48.3508C143.046 47.2656 145.132 44.2247 147.484 41.9007C147.641 41.7449 149.759 39.217 152.19 36.2831C154.62 33.3493 157.108 30.4154 157.718 29.7635C158.782 28.6259 159.429 28.5653 173.796 28.2559C190.96 27.8862 188.685 27.2602 194.866 34.052C202.456 42.3916 205.386 46.0131 205.399 47.0722C205.403 47.4499 205.919 48.391 206.545 49.1636C207.17 49.9362 208.056 52.2393 208.512 54.2816C208.968 56.3239 209.488 58.1376 209.667 58.3122C210.036 58.6706 229.608 58.7104 230.648 58.3549C231.018 58.2285 231.607 57.1999 231.957 56.069C232.308 54.9381 232.853 53.6804 233.17 53.2742C233.876 52.3665 237.237 50.8795 238.619 50.8627C239.849 50.8477 240.35 49.4197 240.143 46.5214C240.058 45.3317 240.146 44.0959 240.34 43.7752C240.541 43.4428 242.695 43.1877 245.351 43.1819C249.428 43.173 250.002 43.2943 249.944 44.1516C249.891 44.9459 250.339 45.1258 252.31 45.1019C253.648 45.0856 254.895 44.8187 255.083 44.5087C255.27 44.1987 255.044 43.9497 254.58 43.9554C254.117 43.961 253.587 43.7291 253.403 43.44C253.048 42.8838 264.403 42.9085 265.334 43.4659C265.617 43.6353 265.909 45.1048 265.983 46.7315C266.134 50.0514 266.743 50.7541 270.244 51.6474C272.709 52.2763 275.396 54.5602 274.982 55.6744C274.833 56.0769 275.319 57.1297 276.064 58.014C277.198 59.3613 277.428 60.2612 277.485 63.5699C277.53 66.1482 277.845 67.8913 278.392 68.5938C279.475 69.9845 279.548 73.8435 278.519 75.345C277.407 76.967 278.202 79.6907 279.85 79.9106C281.017 80.0663 281.082 80.348 281.146 85.5919L281.214 91.1094L279.672 91.3297L278.129 91.5501L279.683 92.2957C281.167 93.0077 281.24 93.2263 281.288 97.1467C281.333 100.838 281.228 101.253 280.248 101.265C278.666 101.285 278.296 102.296 279.8 102.49L281.074 102.654L281.301 118.595C281.426 127.363 281.427 134.852 281.304 135.238C281.182 135.624 280.666 135.953 280.159 135.969C279.381 135.994 279.411 136.127 280.352 136.817C281.315 137.524 281.449 138.187 281.334 141.682C281.261 143.908 281.219 146.106 281.242 146.568C281.265 147.029 281.397 149.545 281.535 152.158C281.83 157.713 281.711 158.31 280.303 158.327C279.227 158.34 278.283 160.592 278.929 161.605C279.113 161.893 278.89 162.445 278.435 162.83C277.98 163.216 277.575 163.313 277.536 163.045C277.498 162.777 277.427 162.18 277.38 161.719C277.305 160.986 273.356 160.92 245.839 161.191C209.872 161.546 211.841 161.567 212.972 160.836C213.598 160.431 213.802 159.162 213.784 155.8C213.77 153.327 213.554 151.307 213.303 151.31C213.051 151.312 211.411 152.655 209.657 154.293C207.903 155.931 205.592 157.97 204.521 158.825C203.45 159.679 202.891 160.409 203.277 160.446C203.664 160.483 204.234 160.574 204.544 160.647C204.854 160.72 205.739 160.804 206.512 160.833C207.285 160.862 207.919 161.074 207.922 161.305C207.925 161.536 205.926 161.749 203.481 161.779C201.035 161.808 199.076 161.794 199.127 161.746C199.178 161.699 201.4 160.021 204.066 158.017C206.732 156.014 209.682 153.373 210.623 152.149C211.564 150.924 212.655 149.667 213.047 149.355C215.555 147.36 220.816 136.41 222.495 129.692C223.422 125.982 223.632 116.298 222.887 111.65C222.264 107.766 219.846 100.799 218.232 98.2385C217.512 97.0959 216.412 95.1879 215.788 93.9984C213.251 89.1586 199.079 77.0774 195.984 77.1151C195.578 77.1201 194.637 76.6745 193.893 76.1251C192.425 75.0401 183.647 72.7895 181.009 72.8216C180.112 72.8325 179.219 72.5916 179.024 72.2863C178.562 71.561 186.024 71.4524 187.954 72.1564C188.868 72.4897 189.499 72.4821 189.709 72.1351C189.898 71.8216 194.167 71.5428 199.832 71.4739C207.574 71.3798 209.627 71.1999 209.619 70.6162C209.614 70.2099 209.057 67.5104 208.382 64.6173C207.706 61.7242 207 58.4186 206.814 57.2716C206.628 56.1246 206.163 54.9339 205.781 54.6256C205.333 54.265 194.121 54.1426 174.345 54.2823C147.198 54.4741 143.554 54.6003 143.174 55.3618C142.608 56.4937 141.638 61.1822 141.314 64.3532C141.173 65.7395 140.908 68.0714 140.727 69.5351C140.472 71.5884 140.574 72.2055 141.172 72.2358C141.599 72.2575 147.951 72.216 155.288 72.1435C162.625 72.0711 168.627 72.165 168.625 72.3522C168.623 72.5394 166.312 73.2936 163.489 74.0284C160.666 74.7631 156.126 76.4998 153.402 77.8876C149.173 80.0418 148.217 80.3339 146.868 79.8842C146 79.5944 143.421 79.4548 141.137 79.5738L136.984 79.7904L136.93 84.2473C136.901 86.6986 137.145 89.0183 137.473 89.4022C137.908 89.9117 137.63 90.6757 136.443 92.2311C133.847 95.6312 129.4 104.986 128.816 108.272C128.637 109.279 128.278 110.382 128.018 110.722C127.205 111.789 127.555 125.472 128.489 129.124C130.038 135.179 131.231 138.573 132.5 140.544C133.189 141.612 133.808 142.773 133.876 143.124C133.944 143.474 135.081 145.34 136.403 147.27C137.757 149.247 138.539 150.873 138.193 150.992C137.805 151.126 137.603 153.145 137.644 156.472L137.708 161.739L127.458 161.862C86.1974 162.36 65.4554 162.851 64.833 163.344C64.3594 163.719 64.3143 164.115 64.6944 164.561C65.081 165.013 67.4681 165.175 72.2914 165.076C76.1597 164.996 79.327 165.128 79.33 165.368C79.3328 165.609 78.8932 165.826 78.3528 165.851C72.2713 166.131 70.1602 166.172 67.3763 166.062L67.3761 166.062ZM239.109 148.834C239.269 148.333 238.968 148.339 237.859 148.859C236.741 149.383 236.24 149.392 235.73 148.896C235.363 148.539 234.798 148.259 234.474 148.274C234.15 148.288 234.471 148.775 235.189 149.356C236.551 150.459 238.678 150.176 239.109 148.834V148.834ZM229.686 149.487C229.682 149.21 228.798 149.019 227.721 149.063C226.537 149.11 226.039 149.312 226.463 149.573C227.426 150.166 229.693 150.105 229.686 149.487ZM280.207 146.514C280.203 146.206 279.95 146.113 279.643 146.307C279.336 146.501 279.089 146.911 279.092 147.219C279.096 147.527 279.35 147.62 279.657 147.426C279.963 147.232 280.211 146.822 280.207 146.514ZM228.824 144.997C229.346 145.418 229.636 145.442 229.631 145.063C229.618 143.942 227.289 143.703 226.335 144.725C225.483 145.638 225.507 145.656 226.718 145.019C227.715 144.495 228.195 144.49 228.824 144.997V144.997ZM238.617 144.868C238.607 144.055 236.87 143.737 235.761 144.345C235.17 144.67 234.687 144.989 234.69 145.055C234.702 145.434 238.622 145.247 238.617 144.868ZM120.236 109.893C121.07 108.294 120.491 108.56 119.388 110.283C118.867 111.096 118.716 111.587 119.053 111.374C119.39 111.161 119.922 110.495 120.236 109.893ZM122.945 103.116C122.933 102.138 122.393 102.654 121.544 104.453L120.682 106.282L121.817 104.947C122.441 104.213 122.949 103.389 122.945 103.116ZM123.169 100.889C122.985 100.6 122.596 100.514 122.306 100.697C122.016 100.881 121.929 101.268 122.113 101.557C122.298 101.846 122.686 101.933 122.977 101.749C123.267 101.565 123.354 101.179 123.169 100.889ZM124.184 95.0216C124.37 94.5215 124.273 94.2981 123.957 94.4979C123.654 94.6896 123.409 95.0833 123.412 95.3728C123.422 96.1774 123.823 95.9952 124.184 95.0216ZM115.476 89.5291C115.474 89.3935 115.22 89.2856 114.911 89.2893C114.602 89.2932 114.353 89.5627 114.357 89.8885C114.361 90.2143 114.615 90.3222 114.922 90.1283C115.228 89.9344 115.478 89.6648 115.476 89.5291ZM111.822 89.3269C110.268 88.6841 109.718 88.6907 110.137 89.3473C110.332 89.6527 111.045 89.878 111.721 89.8482C112.907 89.7959 112.911 89.7772 111.822 89.3269ZM212.986 83.202L212.81 78.8685L207.893 78.7666C205.189 78.7106 202.996 78.8631 203.02 79.1056C203.044 79.348 204.962 81.1578 207.282 83.1274C209.603 85.0969 211.504 86.8989 211.507 87.1319C211.51 87.3649 211.883 87.551 212.337 87.5455C213.001 87.5374 213.127 86.6943 212.986 83.202ZM111.774 85.4114C111.579 85.1061 111.309 84.8576 111.172 84.8593C111.036 84.861 110.928 85.114 110.932 85.4216C110.936 85.7293 111.206 85.9777 111.533 85.9738C111.86 85.9698 111.969 85.7167 111.774 85.4114ZM103.617 84.4602C103.614 84.1902 103.248 83.6768 102.805 83.3192C102.143 82.7858 102.055 82.875 102.314 83.8161C102.623 84.9368 103.629 85.434 103.617 84.4602ZM269.08 72.3232C269.144 69.7141 269.297 67.4763 269.42 67.3504C269.544 67.2244 271.171 67.1372 273.035 67.1565L276.426 67.1916L276.385 63.8704C276.341 60.2594 276.284 60.199 272.395 59.6916C271.316 59.5508 256.845 59.4483 240.239 59.464L210.045 59.4924L210.061 60.8278C210.07 61.5623 210.447 63.5333 210.899 65.2078C211.35 66.8823 211.909 69.3829 212.141 70.7647C212.372 72.1465 212.831 74.3312 213.161 75.6196L213.761 77.9622L241.362 77.5145L268.963 77.0669L269.08 72.3231L269.08 72.3232ZM273.197 76.1598C276.178 74.5239 276.319 69.7925 273.427 68.4369C271.045 67.3203 270.261 68.3554 270.313 72.5503C270.366 76.8868 270.825 77.4613 273.197 76.1598ZM272.256 73.774C271.694 72.3676 272.19 70.3145 273.094 70.3035C274.251 70.2895 274.522 73.0013 273.454 73.9065C272.75 74.5029 272.538 74.4794 272.256 73.774ZM277.854 74.2629C278.396 72.1474 278.178 70.124 277.334 69.4436C276.653 68.8951 276.538 69.0911 276.628 70.6424C276.687 71.6624 276.544 73.3172 276.31 74.3198C275.962 75.812 276.035 76.0831 276.713 75.8146C277.168 75.6343 277.682 74.936 277.854 74.2629ZM113.336 75.3225C113.141 75.0172 112.744 74.7703 112.453 74.7738C112.163 74.7772 111.928 75.032 111.932 75.3396C111.936 75.6473 112.332 75.8942 112.814 75.8883C113.296 75.8824 113.53 75.6279 113.336 75.3225ZM272.683 57.2105C272.209 56.4684 270.115 56.4312 270.124 57.1651C270.134 57.9693 272.043 58.8449 272.589 58.2957C272.852 58.0307 272.894 57.5424 272.683 57.2105V57.2105ZM260.886 57.8274C261.086 57.4968 261.134 57.1147 260.994 56.9783C260.508 56.5061 246.653 56.4922 245.908 56.9632C244.755 57.6926 246.148 57.995 251.317 58.1371C253.79 58.205 256.872 58.2983 258.168 58.3445C259.463 58.3907 260.687 58.158 260.886 57.8274V57.8274ZM115.522 58.6527C115.668 58.1931 115.146 57.958 114.013 57.9718C112.815 57.9863 112.284 58.2631 112.291 58.869C112.305 59.935 115.178 59.7426 115.522 58.6527ZM130.154 57.5316C130.27 56.4333 130.099 56.048 129.576 56.2263C129.168 56.3655 128.76 57.1805 128.669 58.0376C128.553 59.1359 128.724 59.5212 129.247 59.3429C129.655 59.2037 130.064 58.3886 130.154 57.5316ZM131.983 57.0226C131.533 56.5851 131.365 56.7324 131.375 57.5556C131.393 59.0344 132.188 59.8098 132.423 58.5779C132.523 58.0549 132.325 57.355 131.983 57.0226ZM110.024 57.1811C110.014 56.412 109.754 55.7858 109.445 55.7896C109.136 55.7935 108.891 56.4257 108.9 57.1948C108.91 57.9639 109.17 58.5901 109.479 58.5863C109.788 58.5824 110.033 57.9502 110.024 57.1811ZM91.4851 57.1268C91.4812 56.8191 91.2255 56.5705 90.9166 56.5742C90.6077 56.5782 90.358 56.8328 90.3618 57.1404C90.3657 57.4481 90.6214 57.6967 90.9303 57.6929C91.2392 57.689 91.4889 57.4344 91.4851 57.1268ZM260.971 55.1373C261.356 55.0936 261.667 54.6803 261.661 54.2188C261.656 53.7574 261.335 53.374 260.949 53.3669C255.73 53.2708 245.146 53.6106 244.879 53.8828C244.687 54.0786 244.938 54.528 245.437 54.8814C246.179 55.4072 257.013 55.5857 260.971 55.1373ZM271.99 54.674C271.639 53.7961 269.629 52.9785 269.114 53.5042C268.584 54.0448 270.177 55.5139 271.278 55.5005C271.957 55.4922 272.203 55.2069 271.99 54.674ZM72.3435 55.3453C73.0481 54.658 72.9221 54.5553 71.3969 54.5738C69.0459 54.6023 67.8668 55.1204 67.879 56.1194C67.8915 57.1338 71.0761 56.5815 72.3435 55.3453ZM92.4948 54.9422C93.4327 54.3341 91.4055 53.8443 88.9199 54.0784C87.994 54.1656 85.6423 54.2888 83.6938 54.3522C81.4914 54.4238 80.285 54.6774 80.5051 55.0225C80.9356 55.6977 91.438 55.6273 92.4948 54.9422ZM105.219 54.7221C105.024 54.4167 104.753 54.1683 104.617 54.1699C104.481 54.1716 104.372 54.4247 104.376 54.7323C104.38 55.04 104.651 55.2884 104.978 55.2844C105.305 55.2805 105.413 55.0274 105.219 54.7221ZM122.325 52.5231C122.32 52.0798 122.063 51.7201 121.754 51.7239C121.445 51.7278 121.198 52.249 121.206 52.8824C121.214 53.5159 121.471 53.8755 121.778 53.6816C122.084 53.4877 122.331 52.9664 122.325 52.5231ZM129.125 52.5874C128.396 51.8783 127.671 52.442 128.216 53.2955C128.427 53.6261 128.854 53.7352 129.167 53.5378C129.547 53.297 129.534 52.9842 129.125 52.5874H129.125ZM133.283 52.7958C133.269 51.7009 132.176 51.8069 131.974 52.9228C131.851 53.6038 132.048 53.8778 132.538 53.7085C132.952 53.5654 133.287 53.1547 133.283 52.7958ZM267.528 51.63C267.334 51.3247 266.921 51.078 266.613 51.0817C266.304 51.0857 266.21 51.3384 266.405 51.6437C266.6 51.949 267.012 52.1958 267.321 52.192C267.629 52.1881 267.723 51.9354 267.528 51.63ZM125.697 52.6549C125.689 51.9999 124.873 52.1728 124.647 52.8775C124.535 53.225 124.727 53.4115 125.073 53.2919C125.419 53.1723 125.7 52.8857 125.697 52.6549ZM136.931 52.5184C136.923 51.8633 136.107 52.0362 135.88 52.7409C135.769 53.0885 135.961 53.2749 136.307 53.1553C136.653 53.0357 136.934 52.7491 136.931 52.5184ZM255.037 49.5997C255.287 49.5662 255.332 49.2888 255.137 48.9835C254.705 48.3056 249.976 48.2968 249.568 48.9731C248.927 50.0352 250.48 50.2132 255.037 49.5996V49.5997ZM203.624 48.318C203.711 47.5046 203.572 46.4883 203.315 46.0594C202.229 44.2448 189.804 30.8273 188.472 30.0302C188.054 29.7806 181.261 29.7373 173.375 29.934L159.037 30.2918L157.843 31.9846C157.186 32.9156 155.488 34.9503 154.07 36.5059C146.114 45.2354 143.533 49.242 145.216 50.2498C145.53 50.4383 158.765 50.4135 174.627 50.1947L203.466 49.7968L203.624 48.318V48.318ZM92.1621 50.6405C92.8396 50.3721 92.9477 50.0673 92.5362 49.5856C92.1325 49.113 89.9262 48.9539 85.2404 49.0593C78.6094 49.2085 77.4766 49.435 78.1419 50.4783C78.5258 51.0804 90.6962 51.2213 92.1621 50.6405ZM179.31 164.335C179.299 163.5 182.01 162.696 185.176 162.594C187.832 162.508 187.768 164.243 185.099 164.716C181.431 165.365 179.321 165.226 179.31 164.335ZM250.554 163.64C249.391 163.333 249.368 163.278 250.358 163.173C251.424 163.06 256.771 162.969 259.484 163.018C260.179 163.03 260.751 163.285 260.755 163.584C260.762 164.175 252.75 164.219 250.554 163.64V163.64ZM267.455 163.497L266.087 163.182L267.488 162.909C268.258 162.758 269.775 162.768 270.859 162.931L272.828 163.227L270.826 163.52C269.725 163.681 268.208 163.671 267.455 163.497ZM80.453 165.344C80.4502 165.098 81.7113 164.881 83.2559 164.862C84.8005 164.844 86.0667 165.03 86.0697 165.276C86.0725 165.522 84.8114 165.739 83.2668 165.757C81.7222 165.776 80.456 165.59 80.453 165.344ZM86.9109 165.154C86.7162 164.848 86.8245 164.595 87.1517 164.591C87.4788 164.587 87.7496 164.836 87.7534 165.143C87.7573 165.451 87.6488 165.704 87.5125 165.706C87.3763 165.707 87.1056 165.459 86.9109 165.154ZM90.7962 165.183C90.9578 164.915 92.101 164.684 93.3367 164.669C94.5724 164.654 95.4512 164.86 95.2895 165.128C95.1279 165.396 93.9847 165.627 92.749 165.642C91.5133 165.657 90.6345 165.45 90.7962 165.183ZM97.3025 165.083C97.2991 164.805 98.1655 164.593 99.2278 164.61C100.29 164.627 101.036 164.845 100.886 165.094C100.51 165.717 97.3101 165.707 97.3025 165.083V165.083ZM102.357 164.966C102.353 164.658 102.744 164.402 103.226 164.396C103.707 164.39 103.948 164.639 103.761 164.949C103.574 165.259 103.183 165.515 102.892 165.519C102.602 165.522 102.361 165.273 102.357 164.966ZM104.912 164.978C104.72 164.677 109.526 164.391 116.701 164.277C124.298 164.157 128.693 164.286 128.489 164.625C128.067 165.323 105.349 165.663 104.912 164.978ZM245.738 163.444C245.922 163.256 246.407 163.23 246.814 163.387C247.264 163.56 247.133 163.694 246.479 163.729C245.887 163.761 245.554 163.632 245.738 163.444V163.444ZM262.027 163.246C262.211 163.058 262.695 163.032 263.103 163.189C263.553 163.362 263.421 163.496 262.767 163.531C262.176 163.563 261.842 163.434 262.027 163.246V163.246ZM160.788 163.12C157.185 161.879 156.188 161.118 157.268 160.435C158.381 159.731 164.214 161.638 165.156 163.014C165.882 164.075 165.858 164.192 164.911 164.185C164.333 164.181 162.478 163.702 160.788 163.12ZM189.652 162.737C189.103 161.875 189.931 161.212 193.066 160.004C197.987 158.107 198.918 159.754 194.151 161.923C190.673 163.505 190.197 163.591 189.652 162.737ZM177.457 162.055C177.378 161.983 175.417 161.87 173.099 161.805C158.463 161.392 143.279 151.255 136.98 137.692C133.671 130.566 132.16 120.772 133.318 113.96C133.528 112.727 133.813 110.961 133.951 110.037C134.752 104.698 142.121 92.1841 146.329 89.0148C147.421 88.1929 149.078 86.8616 150.012 86.0565C152.637 83.7935 160.69 79.9995 165.283 78.8625C170.049 77.6822 179.934 77.415 183.006 78.3834C184.093 78.7261 185.218 78.8581 185.505 78.6765C186.196 78.2392 194.016 81.1509 196.393 82.7307C205.307 88.6558 209.63 92.998 213.151 99.5635C218.987 110.446 219.982 121.818 216.109 133.373C213.832 140.166 208.125 148.108 202.255 152.655C198.304 155.714 191.204 159.399 187.127 160.506C184.573 161.199 177.718 162.298 177.457 162.056V162.055ZM159.223 152.526C159.028 152.221 158.568 151.979 158.2 151.988C157.798 151.998 157.87 152.217 158.38 152.537C159.468 153.218 159.662 153.216 159.223 152.526V152.526ZM199.624 147.668C199.449 147.498 198.998 147.675 198.622 148.062C198.078 148.621 198.143 148.685 198.94 148.371C199.491 148.154 199.799 147.838 199.624 147.668ZM204.334 143.465L205.609 141.703L203.575 143.288C202.457 144.159 201.544 145.086 201.547 145.347C201.558 146.241 203.059 145.228 204.334 143.465ZM148.809 144.954C148.511 144.416 147.686 143.482 146.975 142.879C145.916 141.981 145.972 142.158 147.282 143.86C148.976 146.06 149.713 146.588 148.809 144.954ZM184.121 144.359C184.117 144.033 183.862 143.925 183.556 144.119C183.249 144.313 183 144.582 183.001 144.718C183.003 144.854 183.257 144.962 183.566 144.958C183.875 144.954 184.125 144.684 184.121 144.359ZM184.829 137.091C187.957 135.51 188.833 134.697 191.236 131.142C194.151 126.831 194.368 126.365 193.45 126.376C193.141 126.38 192.892 126.674 192.896 127.029C192.901 127.385 192.27 128.525 191.494 129.564C189.799 131.835 188.469 131.964 183.345 130.358C179.518 129.158 177.433 127.972 174.547 125.355C172.955 123.911 172.815 123.538 173.195 121.757C173.999 117.994 177.016 112.86 180.819 108.783L184.631 104.695L186.855 106.259C190.094 108.536 192.572 112.612 193.497 117.183C193.928 119.311 194.111 121.683 193.906 122.455C193.7 123.226 193.52 124.361 193.506 124.977C193.482 126.045 193.508 126.048 194.074 125.05C195.041 123.346 195.026 117.603 194.047 114.453C192.716 110.171 190.583 106.998 187.387 104.544C182.555 100.836 181.652 100.537 175.439 100.596C170.115 100.647 169.647 100.749 166.475 102.548C162.495 104.805 158.992 108.444 157.255 112.129C156.306 114.141 155.953 116.055 155.832 119.855C155.679 124.673 155.756 125.059 157.512 128.226C159.736 132.237 161.462 134.081 165.123 136.359C171.087 140.069 178.4 140.34 184.829 137.091ZM138.72 124.955C138.531 124.772 138.402 125.104 138.434 125.693C138.469 126.344 138.604 126.475 138.777 126.027C138.935 125.621 138.909 125.139 138.72 124.955H138.72ZM138.796 122.006C138.714 121.084 138.421 120.332 138.144 120.335C137.868 120.339 137.8 120.738 137.994 121.222C138.187 121.706 138.35 122.46 138.355 122.896C138.361 123.332 138.495 123.688 138.655 123.686C138.814 123.684 138.877 122.928 138.796 122.006ZM208.388 101.99C207.827 101.448 207.763 101.513 208.078 102.307C208.295 102.856 208.613 103.162 208.784 102.988C208.955 102.814 208.777 102.364 208.388 101.99ZM145.864 98.0039C147.221 95.9761 147.303 95.7371 146.201 97.0208C144.735 98.7278 143.485 100.69 143.866 100.685C143.979 100.684 144.878 99.4774 145.864 98.0039ZM206.882 99.36C206.687 99.0547 206.416 98.8062 206.28 98.8079C206.144 98.8095 206.036 99.0626 206.039 99.3702C206.043 99.6779 206.314 99.9263 206.641 99.9223C206.968 99.9184 207.077 99.6653 206.882 99.36ZM200.899 92.507C200.897 92.259 195.344 88.1804 194.097 87.5099C192.538 86.672 194.26 88.1652 197.504 90.4641C200.746 92.7617 200.904 92.8568 200.899 92.507ZM156.475 88.784C156.471 88.4764 156.23 88.2276 155.94 88.2311C155.649 88.2345 155.258 88.4911 155.071 88.8011C154.884 89.1111 155.125 89.3599 155.606 89.354C156.088 89.3481 156.479 89.0917 156.475 88.784ZM150.869 158.465C147.758 156.379 147.295 155.761 148.493 155.286C149.915 154.723 155.443 158.818 154.768 159.936C154.327 160.667 153.93 160.518 150.869 158.465ZM58.0452 160.05C57.7779 159.515 57.6019 157.818 57.654 156.279C57.9306 148.108 57.4793 130.061 56.9756 129.151C56.0528 127.483 56.1465 117.257 57.1115 114.309C57.5769 112.887 57.9071 111.175 57.8453 110.504C57.4864 106.609 57.7678 95.5784 58.2262 95.5728C58.5626 95.5689 58.7565 103.139 58.7454 115.846C58.7231 141.423 58.8045 152.755 59.0158 153.465C59.3784 154.684 59.3086 161.009 58.9325 161.016C58.7117 161.02 58.3124 160.585 58.0452 160.05ZM198.891 157.812C198.88 156.877 203.166 153.671 204.448 153.655C205.806 153.638 205.39 154.83 203.51 156.34C200.697 158.6 198.908 159.17 198.891 157.812ZM143.976 156.2C142.037 154.767 140.44 153.401 140.428 153.165C140.416 152.929 142.065 154.002 144.092 155.549C147.29 157.99 148.214 158.838 147.643 158.813C147.566 158.81 145.916 157.634 143.976 156.2ZM143.754 153.131C141.327 151.055 140.324 149.605 140.67 148.672C140.852 148.184 141.342 147.909 141.76 148.063C142.868 148.471 146.619 153.304 146.272 153.878C145.821 154.625 145.329 154.479 143.754 153.131ZM206.704 151.85C206.71 151.443 207.516 150.162 208.495 149.003C209.814 147.441 210.488 147.027 211.105 147.402C211.797 147.823 211.651 148.268 210.234 150.057C208.492 152.256 206.682 153.176 206.704 151.85ZM136.375 144.329C134.646 142.012 134.264 140.821 135.084 140.302C135.815 139.841 136.677 140.643 137.969 142.986C140.238 147.101 139.136 148.029 136.375 144.329ZM212.439 144.939C211.957 143.733 214.783 139.543 216.089 139.527C217.588 139.509 217.511 139.986 215.51 143.075C213.74 145.808 212.972 146.274 212.439 144.939ZM216.907 137.296C216.405 136.51 217.065 133.421 218.069 131.853C219.146 130.173 219.58 124.924 219.322 116.712C219.14 110.913 219.232 109.929 219.934 110.187C221.511 110.768 222.636 117.424 221.475 119.304C221.15 119.829 221.188 120.393 221.579 120.851C222.435 121.852 221.869 128.339 220.859 129.096C220.425 129.422 220.056 130.444 220.039 131.368C219.97 135.119 217.953 138.937 216.907 137.296ZM132.071 135.232C130.956 132.094 131.148 130.767 132.51 132.185C133.322 133.03 134.587 136.258 134.602 137.525C134.626 139.423 133.053 138 132.071 135.232ZM130.372 128.961C130.227 128.732 129.909 127.289 129.666 125.753C129.423 124.218 129.139 122.522 129.035 121.985C128.744 120.475 130.847 120.721 131.197 122.238C132.105 126.163 131.537 130.795 130.372 128.961ZM129.119 117.788C128.607 116.958 130.015 111.483 130.743 111.474C131.694 111.463 131.805 116.565 130.874 117.515C130.112 118.292 129.49 118.389 129.119 117.788ZM218.282 107.733C217.827 106.882 217.262 105.228 217.026 104.057C216.659 102.228 216.734 101.955 217.561 102.112C218.567 102.303 220.971 107.89 220.432 108.783C219.893 109.675 219.118 109.296 218.282 107.733ZM131.107 106.665C131.602 103.844 132.529 101.942 133.414 101.931C134.437 101.919 134.377 103.4 133.236 106.261C132.026 109.298 130.596 109.569 131.107 106.665ZM213.929 97.8537C212.961 96.4621 212.165 95.0046 212.16 94.6148C212.156 94.225 210.642 92.5939 208.796 90.9901C205.274 87.9296 204.24 86.1269 205.679 85.5567C206.915 85.0669 211.659 90.2304 211.238 91.6081C210.996 92.4015 211.318 92.8042 212.553 93.2512C214.17 93.8365 216.687 97.2589 216.707 98.8988C216.729 100.692 215.611 100.271 213.929 97.8537ZM134.528 99.6444C134.326 98.9122 134.807 97.5892 135.852 96.0066C137.738 93.148 138.433 92.5834 139.175 93.3047C139.501 93.6218 138.86 95.1541 137.502 97.3042C136.291 99.2212 135.198 100.791 135.072 100.792C134.947 100.794 134.702 100.277 134.528 99.6444ZM140.205 90.4939C140.2 90.0949 141.195 88.7734 142.415 87.5572C144.022 85.9562 144.806 85.5127 145.256 85.9505C146.481 87.1403 143.384 91.1408 141.197 91.1951C140.656 91.2084 140.21 90.893 140.205 90.4939ZM138.502 89.0279C138.49 88.064 143.395 83.0727 143.885 83.5495C144.094 83.7524 142.97 85.2327 141.388 86.8391C139.806 88.4455 138.507 89.4304 138.502 89.0279ZM201.32 84.2351C197.433 81.9809 195.965 79.9124 198.234 79.8848C199.375 79.871 204.157 83.2546 204.167 84.0831C204.182 85.334 203.297 85.3812 201.32 84.2351ZM147.2 84.4961C146.603 83.5592 152.254 79.4865 153.062 80.2716C154.002 81.1848 153.015 82.5789 150.569 83.7952C147.914 85.1154 147.632 85.1739 147.2 84.4961ZM145.718 81.9218C146.097 81.4557 146.533 81.0728 146.687 81.0709C146.842 81.0692 146.658 81.4489 146.279 81.915C145.9 82.3812 145.464 82.7641 145.31 82.766C145.155 82.7677 145.339 82.388 145.718 81.9218ZM194.566 79.9657C194.1 79.7199 192.259 79.0868 190.476 78.5589C187.973 77.8177 187.231 77.349 187.221 76.5013C187.21 75.6018 187.487 75.4559 188.756 75.6933C191.883 76.2784 195.507 78.1262 195.83 79.3007C196.174 80.5464 195.921 80.6796 194.566 79.9657ZM156.214 79.5031C155.533 78.8412 155.72 78.316 156.764 77.9568C157.302 77.7716 158.749 77.2249 159.979 76.7421C162.767 75.6475 163.055 75.6395 163.068 76.6563C163.077 77.3891 161.513 78.6139 160.007 79.0539C157.742 79.7158 156.575 79.8539 156.214 79.5031V79.5031ZM165.873 76.354C165.118 75.8732 165.116 75.7507 165.859 75.252C166.319 74.9435 167.327 74.6767 168.099 74.6592C168.871 74.6417 170.449 74.4599 171.605 74.2551C173.33 73.9495 173.709 74.0494 173.718 74.8126C173.732 75.8949 173.303 76.0719 169.526 76.5441C167.984 76.737 166.34 76.6514 165.873 76.354H165.873ZM178.934 76.3708C177.86 76.2438 176.854 75.6982 176.494 75.0469C175.903 73.9797 176.011 73.95 179.432 74.24C184.49 74.6689 185.627 74.9527 185.382 75.7261C185.158 76.4354 182.083 76.7428 178.934 76.3708ZM61.203 76.7022C60.2986 75.8233 60.8479 72.6998 62.1818 71.1364C62.9525 70.233 63.4674 69.055 63.3259 68.5185C63.1845 67.9821 63.3348 67.3749 63.66 67.1693C64.0007 66.9538 64.09 67.0623 63.8708 67.4255C63.3409 68.3031 65.5911 70.3558 66.6314 69.9437C67.0995 69.7582 67.486 69.8851 67.4902 70.2257C67.4941 70.5662 66.9794 70.8512 66.3458 70.8589C65.0132 70.8751 63.4225 74.1298 63.9545 75.7517C64.2612 76.6869 64.2368 76.6855 63.6087 75.7318C63.237 75.1673 63.0706 73.9735 63.2389 73.0789C63.4072 72.1843 63.3073 71.4552 63.017 71.4588C62.055 71.4704 61.2738 73.7579 61.6627 75.4241C62.0445 77.0598 61.9219 77.4008 61.203 76.7022V76.7022ZM66.0972 76.2172C65.5524 74.8533 66.0763 72.8395 67.0259 72.6474C68.1557 72.4189 68.8223 74.5284 68.0737 75.9632C67.4283 77.2001 66.5356 77.3148 66.0972 76.2172ZM170.318 72.4027C170.314 72.0892 171.112 71.823 172.09 71.8111C174.135 71.7862 174.064 72.0313 171.865 72.585C170.951 72.8152 170.322 72.7411 170.318 72.4027ZM175.654 72.3272C175.459 72.0219 175.568 71.7688 175.895 71.7649C176.222 71.7609 176.493 72.0093 176.496 72.317C176.5 72.6246 176.392 72.8777 176.256 72.8793C176.119 72.881 175.849 72.6326 175.654 72.3272ZM145.993 69.9998C144.524 69.9239 143.318 69.6868 143.312 69.473C143.307 69.2591 143.7 66.3731 144.185 63.0595L145.069 57.0348L150.436 56.9504C177.801 56.5202 203.6 56.4318 203.945 56.7671C204.551 57.3567 207.042 68.5189 206.655 68.9138C206.477 69.0954 202.388 69.3559 197.568 69.4928C190.816 69.6846 188.66 69.5725 188.174 69.0042C187.362 68.0531 185.994 68.0679 186.006 69.0277C186.013 69.6305 182.505 69.8046 167.339 69.954C157.067 70.0551 147.461 70.0758 145.993 69.9998V69.9998ZM203.292 65.9565C203.395 65.8897 203.289 64.7675 203.055 63.4627C202.238 58.895 204.799 59.2516 175.006 59.5572C153.183 59.7811 148.248 59.9696 147.737 60.5988C147.393 61.0213 146.978 62.6303 146.813 64.1744L146.514 66.9819L154.282 66.9592C158.555 66.9468 162.105 66.9902 162.172 67.0558C162.328 67.2077 203.039 66.1194 203.292 65.9565V65.9565ZM174.548 65.2648C174.453 65.1726 168.506 65.1218 161.332 65.1519C152.219 65.1902 148.348 65.0224 148.486 64.5952C148.769 63.718 177.617 63.39 177.92 64.2606C178.11 64.8043 175.02 65.7241 174.548 65.2648ZM181.885 65.0815C180.547 64.9446 179.582 63.9103 180.746 63.8611C197.006 63.1746 202.122 63.3459 200.954 64.5378C200.643 64.8553 184.245 65.3229 181.885 65.0815ZM149.832 62.6701C148.711 62.4772 148.478 61.4862 149.539 61.4221C149.925 61.3987 161.615 61.2497 175.516 61.091C195.639 60.8613 200.793 60.9481 200.8 61.5169C200.807 62.0858 195.719 62.2931 175.812 62.5351C162.063 62.7023 150.372 62.763 149.832 62.6701V62.6701ZM123.963 48.68C123.957 48.1493 125.635 47.8615 125.941 48.3408C126.127 48.6328 125.759 48.878 125.123 48.8857C124.487 48.8935 123.965 48.8009 123.963 48.68Z" fill="#1A1A1A"/>
</svg>
