<?xml version="1.0" encoding="UTF-8"?><svg id="Layer_1" xmlns="http://www.w3.org/2000/svg" width="790" height="528" viewBox="0 0 790 528"><defs><style>.cls-1{fill:#fff;}</style></defs><path class="cls-1" d="M394.88,506.41c-6.87-.91-20.82-4.32-27.7-6.77-6.97-2.48-10.77-2.6-71.66-2.17-19.09,.13-35.19-.51-35.78-1.44-.61-.96,16.84-1.9,40.87-2.19,23.06-.28,41.93-1.23,41.92-2.11-.03-2.59-9.21-5.88-16.8-6.02-3.87-.07-5.47-.56-3.55-1.08,2.32-.63,3.16-2.14,2.52-4.5-.76-2.78,1.45-1.95,10.22,3.85,6.16,4.07,12.48,7.39,14.04,7.37,1.56-.02,3.32,.72,3.91,1.64,.89,1.39,9.47,3.8,17.3,4.85,1.05,.14,3.19,.77,4.77,1.41,6.44,2.6,20.66,4.75,30.84,4.67,5.95-.05,11.27,.63,11.83,1.51,.93,1.47-14.14,2.12-22.72,.99Zm27.66-.75c-.01-1.04,2.12-1.93,4.73-1.96,2.61-.03,4.76,.8,4.78,1.84,.01,1.05-2.11,1.93-4.73,1.96-2.61,.03-4.76-.8-4.78-1.84Zm12.38-.12c-.67-1.05,.12-1.93,1.75-1.95,3.34-.04,3.84,1.09,1.23,2.76-.97,.61-2.3,.25-2.97-.8Zm14.21-2.83c0-.4,2.1-1.16,4.68-1.68,2.58-.53,4.24-.22,3.7,.68-.96,1.59-8.36,2.47-8.37,1Zm12.32-3.22c.63-1.05,2.43-1.93,4-1.95,1.57-.02,2.33,.83,1.7,1.88-.63,1.05-2.43,1.93-4,1.95-1.57,.02-2.33-.83-1.7-1.88Zm-56.1-.57c-17.58-2.45-17.53-2.43-15.04-5.5,1.88-2.32,4.8-2.71,13.9-1.87,6.34,.59,12.79,2.3,14.34,3.8,2.47,2.39,2.44,2.73-.29,2.76-1.71,.02-4.24,.36-5.63,.75-1.39,.39-4.67,.42-7.28,.05Zm65.16-2.13c.29-.91,4.33-2.97,8.98-4.59,4.65-1.62,9.51-3.82,10.8-4.9,1.72-1.43,2.36-1.01,2.4,1.6,.04,3.27,1.92,3.55,23.33,3.49,36.54-.11,42.09,.12,40.58,1.66-1.99,2.05-86.74,4.74-86.09,2.74Zm-421.24,4.31c-10-.4-11.2-.91-12.99-5.54-1.08-2.81-3.39-6.16-5.12-7.44-2.77-2.05-2.79-2.34-.19-2.37,4.23-.05,4.83-6.79,4.64-52.33-.09-21.95,.01-51.9,.24-66.54,.58-38.26-.75-151.58-1.78-152.59-.48-.47-3.68,.83-7.1,2.88l-6.22,3.73-.33,17.95c-.46,24.88-3.35,25.63-3.43,.89-.06-19.12,.18-20.36,4.65-24,2.59-2.11,6.66-4.67,9.05-5.69,2.39-1.02,4.19-2.93,4-4.24-.94-6.56,.15-7.03,7.59-3.27,6.15,3.11,8.29,3.4,11.63,1.55,3.72-2.05,4.01-3.46,3.2-15.38-.5-7.22-.3-13.13,.43-13.14,2.4-.03,3.08,4.55,2.29,15.29-1.23,16.59-.3,17.02,35.53,16.44,61.88-.99,58.34-1.26,61.25,4.6,1.42,2.86,2.41,7.07,2.2,9.36-.21,2.29,.83,6.41,2.31,9.14,2.5,4.63,2.67,4.01,2.39-8.94l-.3-13.92,5.7-.07c4.49-.05,5.85,.85,6.37,4.26,.62,4.03,.98,3.85,5.2-2.52,2.49-3.77,4.51-8.82,4.48-11.22-.09-7.3,6.4-11.56,17.83-11.7,10.79-.13,16.28,2.67,16.35,8.35,.02,1.91,2.13,5.66,4.67,8.35,3.59,3.78,5.73,4.58,9.55,3.58,2.7-.71,6.2-.82,7.77-.24,5.26,1.95-15.99,29.19-25.16,32.26-2.01,.67-2.14,1.29-.47,2.29,2.73,1.64,18.37-12.84,25.87-23.96,3.57-5.28,5.66-6.96,6.68-5.36,.82,1.29,.7,3.83-.24,5.66-2.16,4.16-2.17,13.66,0,12.29,.88-.56,1.69-3.4,1.81-6.31,.36-8.97,1.45-15.84,2.71-17.12,.66-.68,7.53-1.18,15.26-1.11,11.72,.1,14.28-.43,15.37-3.18,2.58-6.5,8.29-35.92,9.23-47.54l.96-11.83-53.94,.77c-106.53,1.53-136.85,1.42-135.7-.5,.62-1.03,4.29-1.78,8.15-1.68,11.26,.31,15.88-.37,14.73-2.18-1.17-1.85-15.59-2.22-25.33-.64-3.71,.6-6.15,2.1-6.13,3.76,.03,2.19-3.14,2.8-15.26,2.95-13.03,.16-15.21-.27-14.77-2.88,.38-2.21-1.15-3.19-5.46-3.5-6.93-.5-12.83,2.15-8.19,3.68,1.54,.51,4.95,1.25,7.57,1.65,2.62,.4-1.01,.91-8.07,1.14-7.11,.23-12.82,1.26-12.8,2.32,.01,1.04-.83,1.91-1.88,1.92-3.44,.04-2.03-4.11,1.75-5.15,2.74-.75,4.01-3.32,4.87-9.86,.64-4.86,1.93-9.82,2.85-11.02,.93-1.2,8.48-4.23,16.79-6.74,13.12-3.96,15.1-5.13,15.06-8.85-.03-2.36,.8-4.82,1.83-5.48,1.04-.66,1.86-3.24,1.83-5.73s.92-5.15,2.11-5.9c1.62-1.03,47.59-2.32,57.21-1.6,.79,.06,1.45,2.19,1.48,4.75,.03,2.55,.78,5.07,1.66,5.6,.88,.53,15.45,1.01,32.39,1.08,29.29,.11,30.99,.32,34.92,4.41,2.27,2.36,5.28,4.28,6.69,4.26,1.81-.02,2.21,1.43,1.36,4.98-.9,3.8-.56,4.79,1.44,4.1,1.45-.51,2.61-2.56,2.59-4.56-.04-3.31,1.7-3.71,19.43-4.42,17.78-.71,22.74-2.24,17.49-5.39-1.07-.64-1.44-2.01-.82-3.05,1.45-2.41,6.53,1.55,6.58,5.13,.02,1.83,2.75,2.64,9.06,2.69,18.34,.16,18.54,.21,18.6,5.12,.03,2.52,.91,4.82,1.96,5.12,2.77,.77,10.31-12.16,10.24-17.58-.04-3.69,7.02-14.02,14.97-21.92,.53-.53,7.7-9.12,15.93-19.09,8.23-9.97,16.65-19.94,18.71-22.15,3.6-3.87,5.79-4.07,54.42-5.12,58.09-1.26,50.39-3.38,71.31,19.69,25.69,28.34,35.61,40.64,35.65,44.24,.01,1.28,1.76,4.48,3.88,7.11s5.11,10.45,6.66,17.39c1.54,6.94,3.3,13.1,3.91,13.7,1.25,1.22,67.49,1.35,71.01,.14,1.25-.43,3.24-3.92,4.43-7.77,1.19-3.84,3.03-8.12,4.1-9.5,2.39-3.09,13.77-8.14,18.45-8.2,4.16-.05,5.86-4.9,5.16-14.75-.29-4.04,.01-8.24,.67-9.33,.68-1.13,7.97-2,16.96-2.02,13.8-.03,15.74,.38,15.55,3.29-.18,2.7,1.34,3.31,8.01,3.23,4.53-.05,8.75-.96,9.38-2.01,.63-1.05-.13-1.9-1.7-1.88-1.57,.02-3.36-.77-3.99-1.75-1.2-1.89,37.23-1.8,40.38,.09,.96,.57,1.95,5.57,2.2,11.1,.51,11.28,2.57,13.67,14.42,16.7,8.34,2.14,17.44,9.9,16.04,13.68-.51,1.37,1.14,4.95,3.66,7.95,3.84,4.58,4.62,7.64,4.81,18.88,.15,8.76,1.22,14.68,3.07,17.07,3.67,4.73,3.91,17.84,.43,22.94-3.76,5.51-1.07,14.77,4.51,15.51,3.95,.53,4.17,1.49,4.39,19.31l.23,18.75-5.22,.75-5.22,.75,5.26,2.53c5.02,2.42,5.27,3.16,5.43,16.48,.15,12.54-.2,13.95-3.52,13.99-5.35,.07-6.6,3.5-1.51,4.16l4.31,.56,.77,54.17c.42,29.79,.43,55.24,.01,56.55-.41,1.31-2.16,2.43-3.88,2.48-2.63,.08-2.53,.54,.65,2.88,3.26,2.4,3.72,4.65,3.33,16.53-.25,7.56-.39,15.03-.31,16.6,.08,1.57,.52,10.12,.99,19,1,18.87,.59,20.9-4.17,20.96-3.64,.04-6.84,7.7-4.65,11.14,.62,.98-.13,2.85-1.67,4.16-1.54,1.31-2.91,1.64-3.04,.73-.13-.91-.37-2.94-.53-4.5-.25-2.49-13.62-2.72-106.75-1.79-121.73,1.21-115.07,1.28-111.24-1.21,2.12-1.37,2.81-5.69,2.75-17.11-.05-8.4-.78-15.27-1.63-15.26-.85,0-6.4,4.57-12.34,10.14-5.94,5.57-13.76,12.49-17.38,15.4-3.62,2.9-5.52,5.38-4.21,5.51,1.31,.13,3.24,.43,4.29,.68,1.05,.25,4.05,.53,6.66,.63,2.62,.1,4.76,.82,4.77,1.6,.01,.78-6.76,1.51-15.03,1.61-8.28,.1-14.91,.05-14.74-.11s7.7-5.86,16.72-12.67c9.02-6.81,19.01-15.78,22.19-19.94,3.18-4.16,6.88-8.43,8.21-9.49,8.49-6.78,26.29-43.99,31.97-66.81,3.14-12.61,3.85-45.51,1.33-61.31-2.11-13.2-10.29-36.87-15.76-45.57-2.44-3.88-6.16-10.37-8.27-14.41-8.59-16.45-56.55-57.5-67.03-57.37-1.38,.02-4.56-1.5-7.08-3.36-4.97-3.69-34.68-11.33-43.61-11.23-3.04,.04-6.06-.78-6.72-1.82-1.57-2.47,23.69-2.83,30.22-.44,3.09,1.13,5.23,1.11,5.94-.07,.64-1.07,15.09-2.01,34.26-2.25,26.2-.32,33.15-.93,33.12-2.91-.02-1.38-1.9-10.55-4.19-20.38-2.29-9.83-4.68-21.06-5.31-24.96-.63-3.9-2.2-7.94-3.5-8.99-1.51-1.22-39.46-1.64-106.4-1.17-91.88,.65-104.21,1.08-105.5,3.67-1.92,3.85-5.2,19.78-6.29,30.55-.48,4.71-1.37,12.63-1.99,17.61-.86,6.98-.52,9.07,1.51,9.18,1.44,.07,22.94-.07,47.78-.31,24.83-.25,45.15,.07,45.14,.71,0,.64-7.83,3.2-17.38,5.7-9.55,2.5-24.92,8.4-34.14,13.11-14.31,7.32-17.55,8.31-22.11,6.78-2.94-.98-11.67-1.46-19.4-1.05l-14.05,.74-.18,15.14c-.1,8.33,.73,16.21,1.84,17.52,1.47,1.73,.53,4.33-3.49,9.61-8.78,11.55-23.84,43.34-25.81,54.51-.61,3.42-1.82,7.17-2.7,8.33-2.75,3.62-1.57,50.12,1.59,62.53,5.24,20.58,9.28,32.11,13.58,38.8,2.33,3.63,4.43,7.58,4.66,8.77,.23,1.19,4.08,7.53,8.55,14.09,4.58,6.72,7.23,12.24,6.06,12.65-1.31,.46-2,7.32-1.86,18.62l.22,17.9-34.69,.42c-139.65,1.69-209.85,3.36-211.96,5.03-1.6,1.28-1.76,2.62-.47,4.13,1.31,1.54,9.39,2.09,25.71,1.75,13.09-.27,23.81,.18,23.82,.99,0,.82-1.48,1.55-3.31,1.64-20.58,.95-27.73,1.09-37.15,.72h0Zm581.25-58.54c.54-1.7-.47-1.68-4.23,.09-3.79,1.78-5.48,1.81-7.21,.12-1.24-1.21-3.15-2.16-4.25-2.11-1.1,.05,0,1.7,2.42,3.68,4.61,3.75,11.81,2.79,13.27-1.77h0Zm-31.89,2.22c-.01-.94-3-1.59-6.65-1.44-4.01,.16-5.69,.85-4.26,1.73,3.26,2.01,10.93,1.81,10.91-.29Zm171-10.1c-.01-1.05-.87-1.36-1.91-.7-1.04,.66-1.88,2.05-1.86,3.1,.01,1.05,.87,1.36,1.91,.7,1.04-.66,1.88-2.05,1.86-3.1Zm-173.91-5.16c1.77,1.43,2.75,1.51,2.73,.23-.05-3.81-7.93-4.62-11.16-1.15-2.88,3.1-2.8,3.16,1.3,1,3.38-1.78,5-1.8,7.13-.08h0Zm33.15-.44c-.03-2.76-5.91-3.85-9.67-1.78-2,1.1-3.64,2.19-3.63,2.41,.04,1.29,13.31,.65,13.29-.64Zm-400.67-118.85c2.82-5.43,.86-4.53-2.87,1.32-1.76,2.76-2.27,4.43-1.13,3.71,1.14-.72,2.94-2.99,4.01-5.04Zm9.17-23.03c-.04-3.32-1.87-1.57-4.74,4.55l-2.92,6.21,3.84-4.54c2.11-2.49,3.83-5.29,3.82-6.22Zm.76-7.57c-.62-.98-1.94-1.28-2.92-.65-.98,.62-1.28,1.94-.65,2.92,.62,.98,1.94,1.28,2.92,.65,.98-.62,1.28-1.94,.65-2.92Zm3.43-19.94c.63-1.7,.3-2.46-.77-1.78-1.03,.65-1.86,1.99-1.84,2.97,.03,2.73,1.39,2.11,2.61-1.19Zm-29.47-18.66c0-.46-.86-.83-1.91-.82-1.05,.01-1.89,.93-1.88,2.04,.01,1.11,.87,1.47,1.91,.82,1.04-.66,1.88-1.57,1.88-2.04Zm-12.37-.69c-5.26-2.18-7.12-2.16-5.7,.07,.66,1.04,3.07,1.8,5.36,1.7,4.01-.18,4.03-.24,.34-1.77Zm342.4-20.81l-.59-14.73-16.64-.35c-9.15-.19-16.58,.33-16.49,1.15s6.57,6.97,14.43,13.67c7.85,6.69,14.29,12.82,14.3,13.61,0,.79,1.27,1.42,2.81,1.4,2.25-.03,2.67-2.89,2.2-14.76Zm-342.56,7.51c-.66-1.04-1.57-1.88-2.04-1.88-.46,0-.83,.86-.82,1.91,.01,1.05,.93,1.89,2.04,1.88,1.11-.01,1.47-.87,.82-1.91Zm-27.61-3.23c-.01-.92-1.25-2.66-2.75-3.88-2.24-1.81-2.54-1.51-1.66,1.69,1.05,3.81,4.45,5.5,4.41,2.19Zm560.03-41.24c.22-8.87,.74-16.47,1.15-16.9,.42-.43,5.92-.72,12.23-.66l11.48,.12-.14-11.28c-.15-12.27-.35-12.48-13.51-14.2-3.65-.48-52.63-.83-108.84-.77l-102.2,.1,.05,4.54c.03,2.5,1.31,9.19,2.84,14.88s3.42,14.19,4.2,18.88c.78,4.7,2.34,12.12,3.45,16.5l2.03,7.96,93.42-1.52,93.42-1.52,.39-16.12h0Zm13.93,13.04c10.09-5.56,10.57-21.64,.78-26.24-8.06-3.79-10.71-.28-10.54,13.98,.18,14.74,1.73,16.69,9.76,12.26Zm-3.18-8.11c-1.9-4.78-.22-11.76,2.84-11.79,3.92-.05,4.84,9.17,1.22,12.24-2.38,2.03-3.1,1.95-4.06-.45Zm18.95,1.66c1.83-7.19,1.09-14.06-1.76-16.38-2.3-1.86-2.69-1.2-2.39,4.07,.2,3.47-.28,9.09-1.08,12.5-1.18,5.07-.93,5.99,1.36,5.08,1.54-.61,3.28-2.98,3.86-5.27Zm-556.83,3.6c-.66-1.04-2-1.88-2.99-1.86-.98,.01-1.78,.88-1.77,1.92,.01,1.05,1.36,1.88,2.99,1.86,1.63-.02,2.42-.89,1.76-1.92Zm539.33-61.54c-1.6-2.52-8.69-2.65-8.66-.15,.03,2.73,6.49,5.71,8.34,3.84,.89-.9,1.03-2.56,.32-3.69h0Zm-39.93,2.1c.68-1.12,.84-2.42,.36-2.88-1.64-1.6-48.54-1.65-51.06-.05-3.9,2.48,.81,3.51,18.31,3.99,8.37,.23,18.8,.55,23.19,.71,4.38,.16,8.52-.63,9.2-1.76h0Zm-492,2.81c.49-1.56-1.27-2.36-5.11-2.31-4.05,.05-5.85,.99-5.83,3.05,.04,3.62,9.77,2.97,10.93-.74Zm49.52-3.81c.39-3.73-.18-5.04-1.96-4.44-1.38,.47-2.76,3.24-3.07,6.16-.39,3.73,.19,5.04,1.96,4.43,1.38-.47,2.76-3.24,3.07-6.15Zm6.19-1.73c-1.52-1.49-2.09-.99-2.06,1.81,.06,5.02,2.75,7.66,3.55,3.47,.34-1.78-.33-4.16-1.49-5.29Zm-74.32,.54c-.03-2.61-.91-4.74-1.96-4.73-1.04,.01-1.88,2.16-1.84,4.77,.03,2.61,.91,4.74,1.96,4.73,1.05-.01,1.88-2.16,1.84-4.78Zm-62.75-.18c-.01-1.05-.88-1.89-1.92-1.88-1.04,.01-1.89,.88-1.88,1.92,.01,1.04,.88,1.89,1.92,1.88,1.05-.01,1.89-.88,1.88-1.92Zm573.64-6.76c1.31-.15,2.36-1.55,2.34-3.12-.02-1.57-1.1-2.87-2.41-2.89-17.66-.33-53.49,.83-54.39,1.75-.65,.67,.2,2.19,1.89,3.39,2.51,1.79,39.18,2.39,52.58,.87Zm37.3-1.57c-1.19-2.98-7.99-5.76-9.73-3.98-1.79,1.84,3.6,6.83,7.33,6.78,2.3-.03,3.13-1,2.41-2.81Zm-675.73,2.28c2.38-2.34,1.96-2.68-3.2-2.62-7.96,.1-11.95,1.86-11.91,5.25,.04,3.45,10.82,1.57,15.11-2.63Zm68.21-1.37c3.17-2.07-3.69-3.73-12.1-2.93-3.13,.3-11.09,.71-17.69,.93-7.45,.24-11.54,1.11-10.79,2.28,1.46,2.29,37,2.06,40.58-.27Zm43.07-.75c-.66-1.04-1.58-1.88-2.04-1.88-.46,0-.83,.87-.82,1.91,.01,1.05,.93,1.89,2.04,1.88,1.11-.01,1.47-.87,.82-1.91Zm57.9-7.47c-.02-1.51-.89-2.73-1.93-2.71-1.05,.01-1.88,1.78-1.85,3.94,.03,2.15,.9,3.37,1.93,2.72,1.04-.66,1.87-2.43,1.85-3.94Zm23.02,.22c-2.47-2.41-4.92-.49-3.08,2.41,.71,1.12,2.16,1.49,3.22,.82,1.29-.82,1.24-1.88-.14-3.23h0Zm14.07,.71c-.05-3.72-3.75-3.36-4.43,.43-.42,2.31,.25,3.24,1.91,2.67,1.4-.49,2.54-1.88,2.52-3.1Zm454.37-3.96c-.66-1.04-2.05-1.88-3.1-1.86-1.05,.01-1.36,.87-.7,1.91,.66,1.04,2.05,1.88,3.1,1.86,1.04-.01,1.36-.87,.7-1.91Zm-480.04,3.48c-.03-2.23-2.79-1.64-3.56,.76-.38,1.18,.27,1.81,1.44,1.41,1.17-.41,2.12-1.38,2.11-2.16Zm38.02-.46c-.03-2.23-2.79-1.64-3.56,.76-.38,1.18,.27,1.81,1.44,1.41,1.17-.41,2.12-1.38,2.11-2.16Zm399.75-9.92c.84-.11,1-1.06,.34-2.09-1.46-2.3-17.47-2.33-18.85-.04-2.17,3.61,3.09,4.21,18.51,2.13h0Zm-174.02-4.35c.29-2.76-.18-6.22-1.04-7.68-3.68-6.17-45.73-51.76-50.24-54.47-1.41-.85-24.41-1-51.1-.33l-48.53,1.22-4.04,5.75c-2.22,3.16-7.97,10.08-12.77,15.36-26.93,29.66-35.66,43.28-29.97,46.7,1.07,.64,45.86,.56,99.55-.19l97.61-1.35,.54-5.02h0Zm-377.26,7.89c2.29-.91,2.66-1.95,1.27-3.58-1.37-1.61-8.83-2.15-24.69-1.79-22.44,.51-26.28,1.28-24.02,4.82,1.3,2.05,42.49,2.53,47.45,.55ZM428.12,495.22c-.03-2.84,9.14-5.57,19.86-5.92,8.99-.29,8.77,5.6-.26,7.21-12.41,2.21-19.56,1.74-19.59-1.29Zm241.13-2.36c-3.94-1.04-4.02-1.23-.67-1.59,3.61-.38,21.71-.69,30.89-.53,2.35,.04,4.29,.91,4.3,1.92,.02,2.01-27.09,2.16-34.53,.19h0Zm57.2-.48l-4.63-1.07,4.74-.93c2.61-.51,7.74-.48,11.41,.08l6.67,1.01-6.78,1c-3.73,.55-8.86,.51-11.41-.08Zm-632.93,6.27c0-.84,4.26-1.57,9.49-1.64,5.23-.06,9.51,.57,9.52,1.4,.01,.84-4.26,1.57-9.49,1.64s-9.51-.57-9.52-1.41Zm21.86-.65c-.66-1.04-.29-1.9,.82-1.91,1.11-.01,2.02,.83,2.04,1.88,.01,1.04-.35,1.91-.82,1.91-.46,0-1.38-.84-2.04-1.88Zm13.15,.1c.55-.91,4.42-1.7,8.6-1.75,4.18-.05,7.16,.65,6.61,1.56-.55,.91-4.42,1.7-8.6,1.75-4.18,.05-7.16-.65-6.61-1.56Zm22.02-.34c-.01-.94,2.92-1.66,6.52-1.61,3.6,.06,6.12,.8,5.61,1.65-1.27,2.12-12.1,2.08-12.13-.04h0Zm17.11-.4c-.01-1.04,1.31-1.92,2.94-1.94,1.63-.02,2.44,.82,1.81,1.88-.63,1.05-1.96,1.92-2.94,1.94-.98,.01-1.8-.83-1.81-1.88Zm8.65,.04c-.65-1.02,15.62-1.99,39.9-2.38,25.71-.41,40.59,.03,39.9,1.18-1.43,2.37-78.32,3.53-79.8,1.2Zm476.64-5.21c.62-.64,2.26-.73,3.64-.19,1.52,.59,1.08,1.04-1.13,1.16-2,.11-3.13-.33-2.51-.97h0Zm55.13-.67c.62-.64,2.26-.73,3.64-.19,1.52,.59,1.08,1.04-1.13,1.16-2,.11-3.13-.33-2.51-.97h0Zm-342.65-.43c-12.2-4.22-15.57-6.8-11.92-9.12,3.77-2.39,23.51,4.09,26.7,8.76,2.46,3.61,2.38,4-.83,3.98-1.96-.01-8.24-1.64-13.95-3.62Zm97.69-1.3c-1.86-2.93,.94-5.18,11.55-9.29,16.66-6.44,19.81-.85,3.67,6.52-11.77,5.38-13.38,5.67-15.22,2.77Zm-41.28-2.32c-.27-.25-6.9-.63-14.75-.85-49.54-1.4-100.93-35.85-122.25-81.93-11.2-24.21-16.32-57.49-12.4-80.64,.71-4.19,1.68-10.19,2.14-13.33,2.71-18.14,27.65-60.66,41.89-71.43,3.7-2.79,9.3-7.32,12.46-10.05,8.88-7.69,36.14-20.58,51.68-24.45,16.13-4.01,49.59-4.92,59.99-1.63,3.68,1.16,7.49,1.61,8.46,1,2.34-1.49,28.81,8.41,36.85,13.78,30.17,20.13,44.8,34.89,56.72,57.2,19.76,36.98,23.12,75.62,10.01,114.89-7.71,23.08-27.02,50.07-46.89,65.52-13.37,10.4-37.4,22.92-51.2,26.68-8.64,2.35-31.85,6.09-32.73,5.27h0Zm-61.72-32.38c-.66-1.04-2.22-1.86-3.46-1.83-1.36,.03-1.12,.78,.61,1.86,3.68,2.32,4.34,2.31,2.85-.03h0Zm136.74-16.51c-.59-.58-2.12,.02-3.39,1.34-1.84,1.9-1.62,2.11,1.08,1.05,1.87-.74,2.91-1.81,2.32-2.39Zm15.94-14.28l4.31-5.98-6.88,5.38c-3.79,2.96-6.88,6.11-6.86,7,.04,3.04,5.12-.41,9.43-6.4Zm-187.93,5.06c-1.01-1.83-3.8-5-6.21-7.05-3.58-3.05-3.4-2.45,1.04,3.33,5.73,7.47,8.23,9.27,5.17,3.72Zm119.52-2.02c-.01-1.11-.87-1.47-1.91-.82-1.04,.66-1.88,1.58-1.88,2.04s.87,.83,1.91,.82c1.05-.01,1.89-.93,1.88-2.04Zm2.4-24.7c10.59-5.37,13.55-8.14,21.68-20.21,9.87-14.65,10.6-16.23,7.49-16.2-1.04,.01-1.89,1.01-1.87,2.22,.02,1.21-2.12,5.08-4.74,8.61-5.74,7.72-10.24,8.16-27.58,2.7-12.96-4.08-20.01-8.11-29.78-17-5.39-4.91-5.86-6.17-4.58-12.23,2.72-12.79,12.93-30.23,25.8-44.09l12.9-13.89,7.53,5.31c10.96,7.74,19.35,21.59,22.48,37.12,1.46,7.23,2.08,15.29,1.38,17.91-.7,2.62-1.31,6.48-1.35,8.57-.08,3.63,0,3.64,1.92,.25,3.27-5.79,3.22-25.31-.09-36.01-4.51-14.55-11.72-25.33-22.54-33.67-16.35-12.6-19.41-13.61-40.44-13.42-18.02,.17-19.6,.52-30.34,6.63-13.47,7.67-25.32,20.04-31.21,32.56-3.21,6.84-4.4,13.34-4.81,26.25-.52,16.37-.26,17.68,5.68,28.45,7.53,13.63,13.37,19.9,25.76,27.64,20.19,12.61,44.94,13.53,66.7,2.49Zm-156.06-41.24c-.64-.62-1.08,.51-.97,2.51,.12,2.21,.57,2.66,1.16,1.13,.53-1.38,.44-3.02-.19-3.64h0Zm.26-10.02c-.28-3.13-1.27-5.69-2.2-5.68-.93,.01-1.16,1.37-.51,3.01s1.21,4.21,1.22,5.69c.02,1.48,.47,2.69,1.01,2.68,.54,0,.75-2.57,.48-5.71Zm235.54-68.01c-1.9-1.84-2.12-1.62-1.05,1.08,.74,1.87,1.81,2.91,2.39,2.32,.58-.59-.03-2.12-1.34-3.39Zm-211.62-13.54c4.59-6.89,4.87-7.7,1.14-3.34-4.96,5.8-9.19,12.47-7.9,12.45,.38,0,3.43-4.11,6.76-9.11Zm206.52,4.61c-.66-1.04-1.57-1.88-2.04-1.88-.46,0-.83,.87-.82,1.91,.01,1.05,.93,1.89,2.04,1.88,1.11-.01,1.47-.87,.82-1.91Zm-20.25-23.29c-.01-.84-18.8-14.7-23.02-16.98-5.28-2.85,.55,2.23,11.53,10.04,10.97,7.81,11.51,8.13,11.49,6.94Zm-150.36-12.65c-.01-1.05-.83-1.89-1.81-1.88-.98,.01-2.31,.88-2.94,1.94-.63,1.05,.18,1.9,1.81,1.88,1.63-.02,2.95-.89,2.94-1.94Zm-18.97,236.77c-10.53-7.09-12.1-9.19-8.04-10.8,4.82-1.92,23.52,12,21.24,15.8-1.49,2.49-2.83,1.98-13.2-5Zm-314.17,5.39c-.9-1.82-1.5-7.59-1.32-12.82,.94-27.76-.59-89.09-2.3-92.18-3.12-5.67-2.81-40.41,.46-50.43,1.57-4.83,2.69-10.65,2.48-12.93-1.21-13.24-.26-50.72,1.29-50.74,1.14-.01,1.79,25.71,1.76,68.89-.08,86.91,.2,125.41,.91,127.83,1.23,4.14,.99,25.63-.28,25.66-.75,.01-2.1-1.46-3-3.28Zm476.71-7.6c-.04-3.18,14.47-14.07,18.81-14.13,4.6-.06,3.19,3.99-3.17,9.12-9.52,7.68-15.58,9.62-15.63,5Zm-185.87-5.48c-6.56-4.87-11.97-9.51-12.01-10.31-.04-.8,5.54,2.84,12.4,8.1,10.82,8.29,13.95,11.18,12.02,11.09-.26-.01-5.85-4.01-12.41-8.88Zm-.75-10.43c-8.21-7.05-11.61-11.98-10.44-15.15,.61-1.66,2.27-2.59,3.69-2.07,3.75,1.39,16.45,17.81,15.27,19.76-1.53,2.54-3.19,2.04-8.52-2.54Zm213.06-4.35c.02-1.38,2.75-5.74,6.06-9.67,4.47-5.31,6.75-6.71,8.84-5.44,2.34,1.43,1.85,2.94-2.95,9.02-5.9,7.47-12.02,10.6-11.95,6.09Zm-238.04-25.56c-5.85-7.87-7.14-11.92-4.37-13.68,2.47-1.57,5.39,1.16,9.77,9.12,7.68,13.98,3.95,17.14-5.4,4.56Zm257.45,2.07c-1.63-4.1,7.94-18.33,12.35-18.39,5.08-.06,4.81,1.56-1.96,12.05-5.99,9.29-8.59,10.87-10.4,6.33Zm15.12-25.97c-1.7-2.67,.54-13.17,3.93-18.49,3.64-5.71,5.11-23.55,4.24-51.45-.62-19.71-.3-23.05,2.07-22.17,5.34,1.97,9.15,24.59,5.22,30.98-1.1,1.79-.97,3.7,.35,5.26,2.9,3.4,.98,25.45-2.44,28.02-1.47,1.11-2.72,4.58-2.78,7.72-.23,12.75-7.06,25.72-10.6,20.14Zm-287.14-7.01c-3.77-10.67-3.12-15.17,1.49-10.35,2.75,2.87,7.03,13.84,7.08,18.14,.08,6.45-5.24,1.61-8.57-7.79Zm-5.75-21.31c-.49-.78-1.57-5.68-2.39-10.9-.82-5.22-1.78-10.98-2.13-12.8-.99-5.13,6.13-4.29,7.32,.86,3.07,13.34,1.15,29.08-2.79,22.85Zm-4.24-37.97c-1.73-2.82,3.03-21.42,5.5-21.45,3.22-.04,3.6,17.3,.44,20.52-2.58,2.64-4.68,2.97-5.94,.93Zm301.78-34.16c-1.54-2.89-3.45-8.51-4.25-12.49-1.24-6.21-.99-7.15,1.81-6.61,3.4,.65,11.54,19.63,9.72,22.67-1.82,3.03-4.45,1.74-7.28-3.57Zm-295.06-3.63c1.68-9.58,4.82-16.05,7.81-16.08,3.46-.04,3.26,4.99-.6,14.71-4.1,10.32-8.93,11.24-7.21,1.37Zm280.32-29.94c-3.28-4.73-5.97-9.68-5.99-11.01-.02-1.32-5.14-6.87-11.39-12.32-11.92-10.4-15.42-16.52-10.55-18.46,4.18-1.66,20.24,15.88,18.82,20.56-.82,2.7,.27,4.06,4.45,5.58,5.47,1.99,13.99,13.62,14.06,19.19,.07,6.09-3.71,4.66-9.4-3.55Zm-268.74,6.09c-.68-2.49,.95-6.98,4.48-12.36,6.39-9.71,8.74-11.63,11.25-9.18,1.11,1.08-1.07,6.28-5.66,13.59-4.1,6.51-7.8,11.85-8.22,11.85-.42,0-1.25-1.75-1.84-3.9Zm19.22-31.09c-.02-1.36,3.35-5.85,7.48-9.98,5.44-5.44,8.09-6.95,9.62-5.46,4.14,4.04-6.34,17.64-13.74,17.82-1.83,.05-3.34-1.03-3.36-2.38Zm-5.76-4.98c-.04-3.27,16.56-20.23,18.22-18.61,.71,.69-3.1,5.72-8.45,11.18-5.36,5.46-9.75,8.81-9.77,7.44Zm212.62-16.29c-13.16-7.66-18.13-14.69-10.45-14.78,3.86-.05,20.05,11.45,20.08,14.26,.05,4.25-2.94,4.41-9.63,.52Zm-183.18,.89c-2.02-3.18,17.11-17.02,19.84-14.35,3.18,3.1-.16,7.84-8.44,11.97-8.99,4.49-9.94,4.68-11.4,2.38Zm-5.02-8.75c1.28-1.58,2.76-2.89,3.28-2.89,.52,0-.1,1.28-1.38,2.87-1.28,1.58-2.76,2.89-3.28,2.89-.52,0,.1-1.29,1.38-2.87Zm165.33-6.65c-1.58-.84-7.81-2.99-13.84-4.78-8.47-2.52-10.98-4.11-11.02-6.99-.04-3.06,.9-3.55,5.2-2.75,10.58,1.99,22.85,8.27,23.94,12.26,1.16,4.23,.31,4.68-4.28,2.26Zm-129.81-1.57c-2.3-2.25-1.67-4.03,1.86-5.25,1.82-.63,6.72-2.49,10.88-4.13,9.44-3.72,10.41-3.75,10.45-.29,.03,2.49-5.26,6.65-10.36,8.15-7.67,2.25-11.62,2.72-12.84,1.53h0Zm32.69-10.7c-2.55-1.63-2.56-2.05-.05-3.74,1.56-1.05,4.97-1.96,7.58-2.01,2.61-.06,7.95-.68,11.87-1.37,5.84-1.04,7.12-.7,7.15,1.89,.04,3.68-1.41,4.28-14.19,5.88-5.22,.65-10.79,.37-12.37-.65h0Zm44.21,.06c-3.64-.43-7.04-2.29-8.26-4.5-2-3.63-1.63-3.73,9.95-2.74,17.12,1.46,20.97,2.42,20.14,5.05-.76,2.41-11.17,3.46-21.82,2.19Zm-398.48,1.13c-3.06-2.99-1.2-13.6,3.31-18.91,2.61-3.07,4.35-7.07,3.87-8.9-.48-1.82,.03-3.88,1.13-4.58,1.15-.73,1.46-.36,.71,.87-1.79,2.98,5.82,9.96,9.34,8.56,1.59-.63,2.89-.2,2.91,.96,.01,1.16-1.73,2.13-3.87,2.15-4.51,.05-9.89,11.11-8.09,16.63,1.04,3.18,.96,3.17-1.17-.07-1.26-1.92-1.82-5.98-1.25-9.02,.57-3.04,.23-5.52-.75-5.51-3.26,.04-5.9,7.81-4.58,13.47,1.29,5.56,.88,6.72-1.56,4.34h0Zm16.57-1.65c-1.84-4.63-.07-11.48,3.14-12.13,3.82-.78,6.08,6.39,3.55,11.27-2.18,4.2-5.21,4.59-6.69,.86Zm352.75-12.96c-.01-1.07,2.68-1.97,6-2.01,6.92-.08,6.68,.75-.76,2.63-3.09,.78-5.22,.53-5.24-.62Zm18.06-.26c-.66-1.04-.29-1.9,.82-1.91,1.11-.01,2.02,.83,2.04,1.88,.01,1.05-.35,1.91-.82,1.91-.46,0-1.38-.84-2.04-1.88Zm-100.39-7.91c-4.97-.26-9.05-1.06-9.07-1.79-.02-.73,1.31-10.53,2.95-21.79l2.99-20.47,18.17-.29c92.62-1.46,179.94-1.76,181.11-.62,2.05,2,10.48,39.93,9.17,41.28-.6,.62-14.44,1.5-30.76,1.97-22.85,.65-30.15,.27-31.79-1.66-2.75-3.23-7.38-3.18-7.34,.08,.03,2.05-11.85,2.64-63.18,3.15-34.77,.34-67.28,.41-72.25,.16h0Zm193.93-13.74c.35-.23,0-4.04-.8-8.47-2.77-15.52,5.9-14.31-94.94-13.27-73.86,.76-90.57,1.4-92.3,3.54-1.16,1.44-2.57,6.9-3.13,12.15l-1.01,9.54,26.29-.08c14.46-.04,26.48,.11,26.71,.33,.53,.52,138.32-3.18,139.17-3.74h0Zm-97.29-2.35c-.32-.31-20.45-.49-44.73-.38-30.84,.13-43.95-.44-43.48-1.89,.96-2.98,98.6-4.1,99.62-1.14,.64,1.85-9.82,4.97-11.41,3.41Zm24.83-.62c-4.53-.46-7.8-3.98-3.85-4.15,55.03-2.33,72.35-1.75,68.4,2.3-1.05,1.08-56.55,2.67-64.54,1.85Zm-108.49-8.19c-3.8-.66-4.58-4.02-.99-4.24,1.31-.08,40.87-.59,87.92-1.12,68.11-.78,85.55-.49,85.58,1.45,.02,1.93-17.2,2.64-84.58,3.46-46.53,.57-86.1,.77-87.93,.46h0Zm-87.56-47.54c-.02-1.8,5.66-2.78,6.69-1.15,.63,.99-.62,1.83-2.77,1.85-2.15,.03-3.92-.29-3.92-.7Z"/></svg>